G04 start of page 2 for group 0 idx 0 *
G04 Title: (unknown), component *
G04 Creator: pcb 20091103 *
G04 CreationDate: Wed May  9 21:08:20 2012 UTC *
G04 For: markrages *
G04 Format: Gerber/RS-274X *
G04 PCB-Dimensions: 315000 325000 *
G04 PCB-Coordinate-Origin: lower left *
%MOIN*%
%FSLAX25Y25*%
%LNFRONT*%
%ADD11C,0.0200*%
%ADD12C,0.0100*%
%ADD13C,0.0250*%
%ADD14C,0.0866*%
%ADD15C,0.0600*%
%ADD16C,0.0360*%
%ADD17C,0.0394*%
%ADD18C,0.0380*%
%ADD19C,0.0350*%
%ADD20C,0.1270*%
%ADD21C,0.3150*%
G54D11*G36*
X114972Y122868D02*X115450Y122390D01*
Y120380D01*
X115168Y120183D01*
X114972Y119987D01*
Y122868D01*
G37*
G36*
X125000Y139000D02*Y112194D01*
X124293Y111487D01*
X123615Y111306D01*
X122975Y111007D01*
X122397Y110602D01*
X121898Y110103D01*
X121493Y109525D01*
X121194Y108885D01*
X121012Y108203D01*
X120950Y107500D01*
X121012Y106797D01*
X121194Y106115D01*
X121493Y105475D01*
X121898Y104897D01*
X122397Y104398D01*
X122975Y103993D01*
X123615Y103694D01*
X124297Y103512D01*
X125000Y103450D01*
Y102000D01*
X118317D01*
Y105408D01*
X118346Y105417D01*
X118426Y105460D01*
X118498Y105516D01*
X118560Y105584D01*
X118608Y105662D01*
X118755Y105983D01*
X118873Y106316D01*
X118961Y106658D01*
X119019Y107007D01*
X119047Y107359D01*
X119044Y107712D01*
X119010Y108064D01*
X118946Y108412D01*
X118851Y108752D01*
X118728Y109083D01*
X118575Y109402D01*
X118576Y109401D01*
X118526Y109478D01*
X118464Y109545D01*
X118391Y109600D01*
X118317Y109638D01*
Y115482D01*
X118425Y115532D01*
X118832Y115817D01*
X119183Y116168D01*
X119256Y116272D01*
X119322Y116025D01*
X119532Y115575D01*
X119817Y115168D01*
X120168Y114817D01*
X120575Y114532D01*
X121025Y114322D01*
X121505Y114193D01*
X122000Y114150D01*
X122495Y114193D01*
X122975Y114322D01*
X123425Y114532D01*
X123832Y114817D01*
X124183Y115168D01*
X124468Y115575D01*
X124678Y116025D01*
X124807Y116505D01*
X124850Y117000D01*
X124807Y117495D01*
X124678Y117975D01*
X124468Y118425D01*
X124183Y118832D01*
X123832Y119183D01*
X123550Y119380D01*
Y120863D01*
X123545Y120920D01*
Y120999D01*
X123531Y121081D01*
X123526Y121132D01*
X123513Y121180D01*
X123498Y121265D01*
X123472Y121335D01*
X123457Y121393D01*
X123430Y121451D01*
X123405Y121519D01*
X123367Y121585D01*
X123342Y121638D01*
X123310Y121683D01*
X123270Y121753D01*
X123218Y121815D01*
X123187Y121859D01*
X123149Y121897D01*
X123096Y121960D01*
X118317Y126739D01*
Y133295D01*
X121096Y136074D01*
X121097Y136073D01*
X121155Y136142D01*
X121187Y136174D01*
X121213Y136211D01*
X121271Y136280D01*
X121315Y136357D01*
X121342Y136395D01*
X121362Y136438D01*
X121406Y136514D01*
X121436Y136595D01*
X121457Y136640D01*
X121470Y136688D01*
X121499Y136768D01*
X121514Y136854D01*
X121526Y136901D01*
X121530Y136950D01*
X121545Y137035D01*
Y137115D01*
X121550Y137170D01*
Y139000D01*
X125000D01*
G37*
G36*
X118317Y126739D02*X117507Y127549D01*
Y132485D01*
X118317Y133295D01*
Y126739D01*
G37*
G36*
Y102000D02*X114972D01*
Y103454D01*
X115211Y103456D01*
X115563Y103490D01*
X115911Y103554D01*
X116251Y103649D01*
X116582Y103772D01*
X116901Y103925D01*
X116900Y103924D01*
X116977Y103974D01*
X117044Y104036D01*
X117099Y104109D01*
X117141Y104191D01*
X117168Y104278D01*
X117179Y104369D01*
X117174Y104460D01*
X117154Y104550D01*
X117118Y104634D01*
X117068Y104711D01*
X117006Y104778D01*
X116933Y104833D01*
X116851Y104875D01*
X116764Y104902D01*
X116673Y104913D01*
X116582Y104908D01*
X116492Y104888D01*
X116408Y104852D01*
X116172Y104739D01*
X115927Y104647D01*
X115674Y104577D01*
X115417Y104530D01*
X115157Y104505D01*
X114972Y104503D01*
Y110497D01*
X115104Y110499D01*
X115365Y110478D01*
X115623Y110435D01*
X115877Y110369D01*
X116123Y110282D01*
X116361Y110174D01*
X116362Y110173D01*
X116447Y110139D01*
X116536Y110120D01*
X116628Y110117D01*
X116719Y110130D01*
X116806Y110158D01*
X116886Y110201D01*
X116958Y110257D01*
X117020Y110325D01*
X117068Y110403D01*
X117102Y110488D01*
X117121Y110577D01*
X117124Y110669D01*
X117111Y110760D01*
X117083Y110847D01*
X117040Y110927D01*
X116984Y110999D01*
X116916Y111061D01*
X116838Y111109D01*
X116517Y111256D01*
X116184Y111374D01*
X115842Y111462D01*
X115493Y111520D01*
X115141Y111548D01*
X114972Y111547D01*
Y116013D01*
X115168Y115817D01*
X115575Y115532D01*
X116025Y115322D01*
X116505Y115193D01*
X117000Y115150D01*
X117495Y115193D01*
X117975Y115322D01*
X118317Y115482D01*
Y109638D01*
X118309Y109642D01*
X118222Y109669D01*
X118131Y109680D01*
X118040Y109675D01*
X117950Y109655D01*
X117866Y109619D01*
X117789Y109569D01*
X117722Y109507D01*
X117667Y109434D01*
X117625Y109352D01*
X117598Y109265D01*
X117587Y109174D01*
X117592Y109083D01*
X117612Y108993D01*
X117648Y108909D01*
X117761Y108673D01*
X117853Y108428D01*
X117923Y108175D01*
X117970Y107918D01*
X117995Y107658D01*
X117998Y107396D01*
X117977Y107135D01*
X117934Y106877D01*
X117868Y106623D01*
X117781Y106377D01*
X117673Y106139D01*
X117672Y106138D01*
X117638Y106053D01*
X117619Y105964D01*
X117616Y105872D01*
X117629Y105781D01*
X117657Y105694D01*
X117700Y105614D01*
X117756Y105542D01*
X117824Y105480D01*
X117902Y105432D01*
X117987Y105398D01*
X118076Y105379D01*
X118168Y105376D01*
X118259Y105389D01*
X118317Y105408D01*
Y102000D01*
G37*
G36*
X114972D02*X111682D01*
Y105363D01*
X111690Y105359D01*
X111777Y105332D01*
X111868Y105321D01*
X111959Y105326D01*
X112049Y105346D01*
X112133Y105382D01*
X112210Y105432D01*
X112277Y105494D01*
X112332Y105567D01*
X112374Y105649D01*
X112401Y105736D01*
X112412Y105827D01*
X112407Y105918D01*
X112387Y106008D01*
X112351Y106092D01*
X112238Y106328D01*
X112146Y106573D01*
X112076Y106826D01*
X112029Y107083D01*
X112004Y107343D01*
X112001Y107605D01*
X112022Y107866D01*
X112065Y108124D01*
X112131Y108378D01*
X112218Y108624D01*
X112326Y108862D01*
X112327Y108863D01*
X112361Y108948D01*
X112380Y109037D01*
X112383Y109129D01*
X112370Y109220D01*
X112342Y109307D01*
X112299Y109387D01*
X112243Y109459D01*
X112175Y109521D01*
X112097Y109569D01*
X112012Y109603D01*
X111923Y109622D01*
X111831Y109625D01*
X111740Y109612D01*
X111682Y109593D01*
Y134490D01*
X113375Y136183D01*
X113495Y136193D01*
X113975Y136322D01*
X114262Y136456D01*
X112774Y134968D01*
X112775Y134967D01*
X112728Y134911D01*
X112684Y134867D01*
X112649Y134817D01*
X112601Y134760D01*
X112564Y134696D01*
X112529Y134646D01*
X112501Y134587D01*
X112466Y134526D01*
X112443Y134464D01*
X112414Y134401D01*
X112396Y134333D01*
X112374Y134272D01*
X112362Y134205D01*
X112345Y134140D01*
X112339Y134076D01*
X112327Y134006D01*
Y133938D01*
X112321Y133871D01*
Y126162D01*
X112326Y126106D01*
Y126028D01*
X112340Y125947D01*
X112345Y125893D01*
X112359Y125839D01*
X112373Y125761D01*
X112398Y125692D01*
X112414Y125632D01*
X112439Y125579D01*
X112465Y125507D01*
X112507Y125433D01*
X112529Y125387D01*
X112558Y125345D01*
X112600Y125273D01*
X112653Y125209D01*
X112684Y125166D01*
X112721Y125129D01*
X112774Y125066D01*
X114972Y122868D01*
Y119987D01*
X114817Y119832D01*
X114532Y119425D01*
X114322Y118975D01*
X114193Y118495D01*
X114150Y118000D01*
X114193Y117505D01*
X114322Y117025D01*
X114532Y116575D01*
X114817Y116168D01*
X114972Y116013D01*
Y111547D01*
X114788Y111545D01*
X114436Y111511D01*
X114088Y111447D01*
X113748Y111352D01*
X113417Y111229D01*
X113098Y111076D01*
X113099Y111077D01*
X113022Y111027D01*
X112955Y110965D01*
X112900Y110892D01*
X112858Y110810D01*
X112831Y110723D01*
X112820Y110632D01*
X112825Y110541D01*
X112845Y110451D01*
X112881Y110367D01*
X112931Y110290D01*
X112993Y110223D01*
X113066Y110168D01*
X113148Y110126D01*
X113235Y110099D01*
X113326Y110088D01*
X113417Y110093D01*
X113507Y110113D01*
X113591Y110149D01*
X113827Y110262D01*
X114072Y110354D01*
X114325Y110424D01*
X114582Y110471D01*
X114842Y110496D01*
X114972Y110497D01*
Y104503D01*
X114895Y104502D01*
X114634Y104523D01*
X114376Y104566D01*
X114122Y104632D01*
X113876Y104719D01*
X113638Y104827D01*
X113637Y104828D01*
X113552Y104862D01*
X113463Y104881D01*
X113371Y104884D01*
X113280Y104871D01*
X113193Y104843D01*
X113113Y104800D01*
X113041Y104744D01*
X112979Y104676D01*
X112931Y104598D01*
X112897Y104513D01*
X112878Y104424D01*
X112875Y104332D01*
X112888Y104241D01*
X112916Y104154D01*
X112959Y104074D01*
X113015Y104002D01*
X113083Y103940D01*
X113161Y103892D01*
X113482Y103745D01*
X113815Y103627D01*
X114157Y103539D01*
X114506Y103481D01*
X114858Y103453D01*
X114972Y103454D01*
Y102000D01*
G37*
G36*
X111682D02*X103000D01*
Y120807D01*
X103218Y120589D01*
X103193Y120495D01*
X103150Y120000D01*
X103193Y119505D01*
X103322Y119025D01*
X103532Y118575D01*
X103817Y118168D01*
X104168Y117817D01*
X104575Y117532D01*
X105025Y117322D01*
X105505Y117193D01*
X106000Y117150D01*
X106495Y117193D01*
X106975Y117322D01*
X107425Y117532D01*
X107832Y117817D01*
X108183Y118168D01*
X108468Y118575D01*
X108678Y119025D01*
X108807Y119505D01*
X108850Y120000D01*
X108807Y120495D01*
X108678Y120975D01*
X108468Y121425D01*
X108183Y121832D01*
X107832Y122183D01*
X107425Y122468D01*
X106975Y122678D01*
X106495Y122807D01*
X106000Y122850D01*
X105550Y122811D01*
Y128358D01*
X111682Y134490D01*
Y109593D01*
X111653Y109584D01*
X111573Y109541D01*
X111501Y109485D01*
X111439Y109417D01*
X111391Y109339D01*
X111244Y109018D01*
X111126Y108685D01*
X111038Y108343D01*
X110980Y107994D01*
X110952Y107642D01*
X110955Y107289D01*
X110989Y106937D01*
X111053Y106589D01*
X111148Y106249D01*
X111271Y105918D01*
X111424Y105599D01*
X111423Y105600D01*
X111473Y105523D01*
X111535Y105456D01*
X111608Y105401D01*
X111682Y105363D01*
Y102000D01*
G37*
G36*
X155000Y198044D02*X166949D01*
X167131Y198060D01*
X167308Y198107D01*
X167474Y198185D01*
X167624Y198290D01*
X167753Y198419D01*
X167858Y198569D01*
X167936Y198735D01*
X167983Y198912D01*
X167999Y199094D01*
Y211700D01*
X181686D01*
X181898Y211397D01*
X182397Y210898D01*
X182975Y210493D01*
X183615Y210194D01*
X184297Y210012D01*
X185000Y209950D01*
X185703Y210012D01*
X186385Y210194D01*
X186540Y210267D01*
X188588Y208219D01*
Y119326D01*
X184769Y115507D01*
X167999D01*
Y125906D01*
X167983Y126088D01*
X167936Y126265D01*
X167858Y126431D01*
X167753Y126581D01*
X167624Y126710D01*
X167474Y126815D01*
X167308Y126893D01*
X167131Y126940D01*
X166949Y126956D01*
X155000D01*
Y149501D01*
X166949D01*
X167131Y149517D01*
X167308Y149564D01*
X167474Y149642D01*
X167624Y149747D01*
X167753Y149876D01*
X167858Y150026D01*
X167936Y150192D01*
X167983Y150369D01*
X167999Y150551D01*
Y174449D01*
X167983Y174631D01*
X167936Y174808D01*
X167858Y174974D01*
X167753Y175124D01*
X167624Y175253D01*
X167474Y175358D01*
X167308Y175436D01*
X167131Y175483D01*
X166949Y175499D01*
X155000D01*
Y198044D01*
G37*
G36*
X114972Y122868D02*X115450Y122390D01*
Y120380D01*
X115168Y120183D01*
X114972Y119987D01*
Y122868D01*
G37*
G36*
X135000Y140985D02*X135168Y140817D01*
X135575Y140532D01*
X136025Y140322D01*
X136505Y140193D01*
X137000Y140150D01*
X137495Y140193D01*
X137589Y140218D01*
X138450Y139357D01*
Y130644D01*
X137588Y129782D01*
X137495Y129807D01*
X137000Y129850D01*
X136505Y129807D01*
X136025Y129678D01*
X135575Y129468D01*
X135168Y129183D01*
X135000Y129015D01*
Y140985D01*
G37*
G36*
X142001Y103000D02*X135000D01*
Y103450D01*
X138000D01*
X138182Y103466D01*
X138359Y103513D01*
X138525Y103591D01*
X138675Y103696D01*
X138804Y103825D01*
X138909Y103975D01*
X138987Y104141D01*
X139034Y104318D01*
X139050Y104500D01*
Y110500D01*
X139034Y110682D01*
X138987Y110859D01*
X138909Y111025D01*
X138804Y111175D01*
X138675Y111304D01*
X138525Y111409D01*
X138359Y111487D01*
X138182Y111534D01*
X138000Y111550D01*
X135000D01*
Y124985D01*
X135168Y124817D01*
X135575Y124532D01*
X136025Y124322D01*
X136505Y124193D01*
X137000Y124150D01*
X137495Y124193D01*
X137975Y124322D01*
X138425Y124532D01*
X138832Y124817D01*
X139183Y125168D01*
X139468Y125575D01*
X139678Y126025D01*
X139807Y126505D01*
X139850Y127000D01*
X139807Y127495D01*
X139782Y127590D01*
X141096Y128904D01*
X141097Y128903D01*
X141155Y128972D01*
X141187Y129004D01*
X141213Y129041D01*
X141271Y129110D01*
X141316Y129188D01*
X141342Y129225D01*
X141362Y129268D01*
X141406Y129344D01*
X141435Y129423D01*
X141457Y129470D01*
X141469Y129517D01*
X141499Y129598D01*
X141514Y129687D01*
X141526Y129731D01*
X141531Y129782D01*
X141545Y129865D01*
Y129944D01*
X141550Y130000D01*
Y140000D01*
X141545Y140057D01*
Y140136D01*
X141531Y140218D01*
X141526Y140269D01*
X141513Y140317D01*
X141498Y140402D01*
X141472Y140472D01*
X141457Y140530D01*
X141430Y140588D01*
X141405Y140656D01*
X141367Y140722D01*
X141342Y140775D01*
X141310Y140820D01*
X141270Y140890D01*
X141218Y140952D01*
X141187Y140996D01*
X141149Y141034D01*
X141096Y141097D01*
X139782Y142411D01*
X139807Y142505D01*
X139850Y143000D01*
X139807Y143495D01*
X139678Y143975D01*
X139468Y144425D01*
X139183Y144832D01*
X138832Y145183D01*
X138425Y145468D01*
X137975Y145678D01*
X137495Y145807D01*
X137000Y145850D01*
X136505Y145807D01*
X136025Y145678D01*
X135575Y145468D01*
X135168Y145183D01*
X135000Y145015D01*
Y201049D01*
X135545Y203083D01*
X135800Y206000D01*
X135545Y208917D01*
X135000Y210951D01*
Y213018D01*
X135160Y212944D01*
X136066Y212701D01*
X137000Y212619D01*
X137934Y212701D01*
X138840Y212944D01*
X139691Y213340D01*
X140459Y213878D01*
X141122Y214541D01*
X141660Y215309D01*
X142001Y216042D01*
Y199094D01*
X142017Y198912D01*
X142064Y198735D01*
X142142Y198569D01*
X142247Y198419D01*
X142376Y198290D01*
X142526Y198185D01*
X142692Y198107D01*
X142869Y198060D01*
X143051Y198044D01*
X155000D01*
Y175499D01*
X143051D01*
X142869Y175483D01*
X142692Y175436D01*
X142526Y175358D01*
X142376Y175253D01*
X142247Y175124D01*
X142142Y174974D01*
X142064Y174808D01*
X142017Y174631D01*
X142001Y174449D01*
Y150551D01*
X142017Y150369D01*
X142064Y150192D01*
X142142Y150026D01*
X142247Y149876D01*
X142376Y149747D01*
X142526Y149642D01*
X142692Y149564D01*
X142869Y149517D01*
X143051Y149501D01*
X155000D01*
Y126956D01*
X143051D01*
X142869Y126940D01*
X142692Y126893D01*
X142526Y126815D01*
X142376Y126710D01*
X142247Y126581D01*
X142142Y126431D01*
X142064Y126265D01*
X142017Y126088D01*
X142001Y125906D01*
Y103000D01*
G37*
G36*
X135000Y210951D02*X134787Y211746D01*
X133915Y213616D01*
X134309Y213340D01*
X135000Y213018D01*
Y210951D01*
G37*
G36*
X126400Y117858D02*X126532Y117575D01*
X126817Y117168D01*
X127168Y116817D01*
X127450Y116620D01*
Y115644D01*
X126400Y114594D01*
Y117858D01*
G37*
G36*
X135000Y103000D02*X126400D01*
Y103701D01*
X127025Y103993D01*
X127603Y104398D01*
X128102Y104897D01*
X128507Y105475D01*
X128806Y106115D01*
X128988Y106797D01*
X129050Y107500D01*
X128988Y108203D01*
X128806Y108885D01*
X128507Y109525D01*
X128102Y110103D01*
X127698Y110507D01*
X128096Y110904D01*
X128097Y110903D01*
X128155Y110972D01*
X128187Y111004D01*
X128213Y111041D01*
X128271Y111110D01*
X128315Y111187D01*
X128342Y111225D01*
X128362Y111268D01*
X128406Y111344D01*
X128436Y111425D01*
X128457Y111470D01*
X128470Y111518D01*
X128499Y111598D01*
X128514Y111684D01*
X128526Y111731D01*
X128530Y111780D01*
X128545Y111865D01*
Y111945D01*
X128550Y112000D01*
Y112358D01*
X130096Y113904D01*
X130097Y113903D01*
X130155Y113972D01*
X130187Y114004D01*
X130213Y114041D01*
X130271Y114110D01*
X130316Y114188D01*
X130342Y114225D01*
X130362Y114268D01*
X130406Y114344D01*
X130435Y114423D01*
X130457Y114470D01*
X130469Y114517D01*
X130499Y114598D01*
X130514Y114687D01*
X130526Y114731D01*
X130531Y114782D01*
X130545Y114865D01*
Y114944D01*
X130550Y115000D01*
Y116620D01*
X130832Y116817D01*
X131183Y117168D01*
X131468Y117575D01*
X131678Y118025D01*
X131807Y118505D01*
X131850Y119000D01*
X131807Y119495D01*
X131678Y119975D01*
X131468Y120425D01*
X131183Y120832D01*
X130832Y121183D01*
X130425Y121468D01*
X129975Y121678D01*
X129495Y121807D01*
X129000Y121850D01*
X128505Y121807D01*
X128025Y121678D01*
X127575Y121468D01*
X127168Y121183D01*
X126817Y120832D01*
X126532Y120425D01*
X126400Y120142D01*
Y139407D01*
X128218Y137589D01*
X128193Y137495D01*
X128150Y137000D01*
X128193Y136505D01*
X128322Y136025D01*
X128532Y135575D01*
X128817Y135168D01*
X129168Y134817D01*
X129575Y134532D01*
X130025Y134322D01*
X130505Y134193D01*
X131000Y134150D01*
X131495Y134193D01*
X131975Y134322D01*
X132425Y134532D01*
X132832Y134817D01*
X133183Y135168D01*
X133468Y135575D01*
X133678Y136025D01*
X133807Y136505D01*
X133850Y137000D01*
X133807Y137495D01*
X133678Y137975D01*
X133468Y138425D01*
X133183Y138832D01*
X132832Y139183D01*
X132425Y139468D01*
X131975Y139678D01*
X131495Y139807D01*
X131000Y139850D01*
X130505Y139807D01*
X130411Y139782D01*
X126400Y143793D01*
Y158478D01*
X126468Y158575D01*
X126678Y159025D01*
X126807Y159505D01*
X126850Y160000D01*
X126807Y160495D01*
X126782Y160590D01*
X129096Y162904D01*
X129097Y162903D01*
X129155Y162972D01*
X129187Y163004D01*
X129213Y163041D01*
X129271Y163110D01*
X129316Y163188D01*
X129342Y163225D01*
X129362Y163268D01*
X129406Y163344D01*
X129435Y163423D01*
X129457Y163470D01*
X129469Y163517D01*
X129499Y163598D01*
X129514Y163687D01*
X129526Y163731D01*
X129531Y163782D01*
X129545Y163865D01*
Y163944D01*
X129550Y164000D01*
Y168000D01*
X129545Y168056D01*
Y168136D01*
X129531Y168215D01*
X129526Y168269D01*
X129512Y168320D01*
X129498Y168402D01*
X129472Y168473D01*
X129457Y168530D01*
X129430Y168587D01*
X129405Y168656D01*
X129367Y168722D01*
X129342Y168775D01*
X129310Y168820D01*
X129270Y168890D01*
X129217Y168953D01*
X129187Y168996D01*
X129149Y169034D01*
X129096Y169097D01*
X127596Y170597D01*
X127533Y170650D01*
X127495Y170688D01*
X127452Y170718D01*
X127389Y170771D01*
X127319Y170811D01*
X127274Y170843D01*
X127221Y170868D01*
X127155Y170906D01*
X127086Y170931D01*
X127029Y170958D01*
X126972Y170973D01*
X126901Y170999D01*
X126819Y171013D01*
X126768Y171027D01*
X126714Y171032D01*
X126635Y171046D01*
X126555D01*
X126499Y171051D01*
X126400D01*
Y190985D01*
X127400Y191451D01*
X129799Y193130D01*
X131870Y195201D01*
X133549Y197600D01*
X134787Y200254D01*
X135000Y201049D01*
Y145015D01*
X134817Y144832D01*
X134532Y144425D01*
X134322Y143975D01*
X134193Y143495D01*
X134150Y143000D01*
X134193Y142505D01*
X134322Y142025D01*
X134532Y141575D01*
X134817Y141168D01*
X135000Y140985D01*
Y129015D01*
X134817Y128832D01*
X134532Y128425D01*
X134322Y127975D01*
X134193Y127495D01*
X134150Y127000D01*
X134193Y126505D01*
X134322Y126025D01*
X134532Y125575D01*
X134817Y125168D01*
X135000Y124985D01*
Y111550D01*
X132000D01*
X131818Y111534D01*
X131641Y111487D01*
X131475Y111409D01*
X131325Y111304D01*
X131196Y111175D01*
X131091Y111025D01*
X131013Y110859D01*
X130966Y110682D01*
X130950Y110500D01*
Y104500D01*
X130966Y104318D01*
X131013Y104141D01*
X131091Y103975D01*
X131196Y103825D01*
X131325Y103696D01*
X131475Y103591D01*
X131641Y103513D01*
X131818Y103466D01*
X132000Y103450D01*
X135000D01*
Y103000D01*
G37*
G36*
X126400Y171051D02*X124571D01*
X118500Y177122D01*
Y178000D01*
X118494Y178068D01*
Y178131D01*
X118483Y178193D01*
X118477Y178260D01*
X118459Y178329D01*
X118448Y178389D01*
X118429Y178441D01*
X118410Y178513D01*
X118378Y178580D01*
X118359Y178634D01*
X118329Y178686D01*
X118317Y178712D01*
Y189260D01*
X119000Y189200D01*
X121917Y189455D01*
X124746Y190213D01*
X126400Y190985D01*
Y171051D01*
G37*
G36*
Y143793D02*X118317Y151876D01*
Y163244D01*
X118505Y163193D01*
X119000Y163150D01*
X119495Y163193D01*
X119975Y163322D01*
X120425Y163532D01*
X120832Y163817D01*
X121183Y164168D01*
X121468Y164575D01*
X121500Y164644D01*
X121532Y164575D01*
X121817Y164168D01*
X122168Y163817D01*
X122575Y163532D01*
X123025Y163322D01*
X123505Y163193D01*
X124000Y163150D01*
X124495Y163193D01*
X124975Y163322D01*
X125262Y163456D01*
X124588Y162782D01*
X124495Y162807D01*
X124000Y162850D01*
X123505Y162807D01*
X123025Y162678D01*
X122575Y162468D01*
X122168Y162183D01*
X121817Y161832D01*
X121532Y161425D01*
X121322Y160975D01*
X121193Y160495D01*
X121150Y160000D01*
X121193Y159505D01*
X121322Y159025D01*
X121532Y158575D01*
X121817Y158168D01*
X122168Y157817D01*
X122575Y157532D01*
X123025Y157322D01*
X123505Y157193D01*
X124000Y157150D01*
X124495Y157193D01*
X124975Y157322D01*
X125425Y157532D01*
X125832Y157817D01*
X126183Y158168D01*
X126400Y158478D01*
Y143793D01*
G37*
G36*
Y103000D02*X118317D01*
Y105408D01*
X118346Y105417D01*
X118426Y105460D01*
X118498Y105516D01*
X118560Y105584D01*
X118608Y105662D01*
X118755Y105983D01*
X118873Y106316D01*
X118961Y106658D01*
X119019Y107007D01*
X119047Y107359D01*
X119044Y107712D01*
X119010Y108064D01*
X118946Y108412D01*
X118851Y108752D01*
X118728Y109083D01*
X118575Y109402D01*
X118576Y109401D01*
X118526Y109478D01*
X118464Y109545D01*
X118391Y109600D01*
X118317Y109638D01*
Y115482D01*
X118425Y115532D01*
X118832Y115817D01*
X119183Y116168D01*
X119256Y116272D01*
X119322Y116025D01*
X119532Y115575D01*
X119817Y115168D01*
X120168Y114817D01*
X120575Y114532D01*
X121025Y114322D01*
X121505Y114193D01*
X122000Y114150D01*
X122495Y114193D01*
X122975Y114322D01*
X123425Y114532D01*
X123832Y114817D01*
X124183Y115168D01*
X124468Y115575D01*
X124678Y116025D01*
X124807Y116505D01*
X124850Y117000D01*
X124807Y117495D01*
X124678Y117975D01*
X124468Y118425D01*
X124183Y118832D01*
X123832Y119183D01*
X123550Y119380D01*
Y120863D01*
X123545Y120920D01*
Y120999D01*
X123531Y121081D01*
X123526Y121132D01*
X123513Y121180D01*
X123498Y121265D01*
X123472Y121335D01*
X123457Y121393D01*
X123430Y121451D01*
X123405Y121519D01*
X123367Y121585D01*
X123342Y121638D01*
X123310Y121683D01*
X123270Y121753D01*
X123218Y121815D01*
X123187Y121859D01*
X123149Y121897D01*
X123096Y121960D01*
X118317Y126739D01*
Y133295D01*
X121096Y136074D01*
X121097Y136073D01*
X121155Y136142D01*
X121187Y136174D01*
X121213Y136211D01*
X121271Y136280D01*
X121315Y136357D01*
X121342Y136395D01*
X121362Y136438D01*
X121406Y136514D01*
X121436Y136595D01*
X121457Y136640D01*
X121470Y136688D01*
X121499Y136768D01*
X121514Y136854D01*
X121526Y136901D01*
X121530Y136950D01*
X121545Y137035D01*
Y137115D01*
X121550Y137170D01*
Y142000D01*
X121545Y142056D01*
Y142136D01*
X121531Y142215D01*
X121526Y142269D01*
X121512Y142320D01*
X121498Y142402D01*
X121471Y142475D01*
X121457Y142530D01*
X121431Y142586D01*
X121405Y142656D01*
X121366Y142723D01*
X121342Y142775D01*
X121310Y142821D01*
X121270Y142890D01*
X121218Y142952D01*
X121187Y142996D01*
X121149Y143034D01*
X121096Y143097D01*
X118317Y145876D01*
Y147490D01*
X126400Y139407D01*
Y120142D01*
X126322Y119975D01*
X126193Y119495D01*
X126150Y119000D01*
X126193Y118505D01*
X126322Y118025D01*
X126400Y117858D01*
Y114594D01*
X125903Y114097D01*
X125904Y114096D01*
X125857Y114040D01*
X125813Y113996D01*
X125778Y113946D01*
X125730Y113889D01*
X125694Y113826D01*
X125658Y113775D01*
X125631Y113717D01*
X125595Y113655D01*
X125573Y113593D01*
X125543Y113530D01*
X125525Y113461D01*
X125503Y113401D01*
X125491Y113332D01*
X125474Y113269D01*
X125468Y113204D01*
X125456Y113135D01*
Y113068D01*
X125450Y113000D01*
Y112644D01*
X124293Y111487D01*
X123615Y111306D01*
X122975Y111007D01*
X122397Y110602D01*
X121898Y110103D01*
X121493Y109525D01*
X121194Y108885D01*
X121012Y108203D01*
X120950Y107500D01*
X121012Y106797D01*
X121194Y106115D01*
X121493Y105475D01*
X121898Y104897D01*
X122397Y104398D01*
X122975Y103993D01*
X123615Y103694D01*
X124297Y103512D01*
X125000Y103450D01*
X125703Y103512D01*
X126385Y103694D01*
X126400Y103701D01*
Y103000D01*
G37*
G36*
X118317Y178712D02*X118299Y178750D01*
X118259Y178806D01*
X118228Y178861D01*
X118187Y178910D01*
X118149Y178964D01*
X118102Y179011D01*
X118060Y179061D01*
X114972Y182149D01*
Y189753D01*
X116083Y189455D01*
X118317Y189260D01*
Y178712D01*
G37*
G36*
Y151876D02*X114972Y155221D01*
Y167835D01*
X116218Y166589D01*
X116193Y166495D01*
X116150Y166000D01*
X116193Y165505D01*
X116322Y165025D01*
X116532Y164575D01*
X116817Y164168D01*
X117168Y163817D01*
X117575Y163532D01*
X118025Y163322D01*
X118317Y163244D01*
Y151876D01*
G37*
G36*
Y145876D02*X114972Y149221D01*
Y150835D01*
X118317Y147490D01*
Y145876D01*
G37*
G36*
Y126739D02*X117507Y127549D01*
Y132485D01*
X118317Y133295D01*
Y126739D01*
G37*
G36*
Y103000D02*X114972D01*
Y103454D01*
X115211Y103456D01*
X115563Y103490D01*
X115911Y103554D01*
X116251Y103649D01*
X116582Y103772D01*
X116901Y103925D01*
X116900Y103924D01*
X116977Y103974D01*
X117044Y104036D01*
X117099Y104109D01*
X117141Y104191D01*
X117168Y104278D01*
X117179Y104369D01*
X117174Y104460D01*
X117154Y104550D01*
X117118Y104634D01*
X117068Y104711D01*
X117006Y104778D01*
X116933Y104833D01*
X116851Y104875D01*
X116764Y104902D01*
X116673Y104913D01*
X116582Y104908D01*
X116492Y104888D01*
X116408Y104852D01*
X116172Y104739D01*
X115927Y104647D01*
X115674Y104577D01*
X115417Y104530D01*
X115157Y104505D01*
X114972Y104503D01*
Y110497D01*
X115104Y110499D01*
X115365Y110478D01*
X115623Y110435D01*
X115877Y110369D01*
X116123Y110282D01*
X116361Y110174D01*
X116362Y110173D01*
X116447Y110139D01*
X116536Y110120D01*
X116628Y110117D01*
X116719Y110130D01*
X116806Y110158D01*
X116886Y110201D01*
X116958Y110257D01*
X117020Y110325D01*
X117068Y110403D01*
X117102Y110488D01*
X117121Y110577D01*
X117124Y110669D01*
X117111Y110760D01*
X117083Y110847D01*
X117040Y110927D01*
X116984Y110999D01*
X116916Y111061D01*
X116838Y111109D01*
X116517Y111256D01*
X116184Y111374D01*
X115842Y111462D01*
X115493Y111520D01*
X115141Y111548D01*
X114972Y111547D01*
Y116013D01*
X115168Y115817D01*
X115575Y115532D01*
X116025Y115322D01*
X116505Y115193D01*
X117000Y115150D01*
X117495Y115193D01*
X117975Y115322D01*
X118317Y115482D01*
Y109638D01*
X118309Y109642D01*
X118222Y109669D01*
X118131Y109680D01*
X118040Y109675D01*
X117950Y109655D01*
X117866Y109619D01*
X117789Y109569D01*
X117722Y109507D01*
X117667Y109434D01*
X117625Y109352D01*
X117598Y109265D01*
X117587Y109174D01*
X117592Y109083D01*
X117612Y108993D01*
X117648Y108909D01*
X117761Y108673D01*
X117853Y108428D01*
X117923Y108175D01*
X117970Y107918D01*
X117995Y107658D01*
X117998Y107396D01*
X117977Y107135D01*
X117934Y106877D01*
X117868Y106623D01*
X117781Y106377D01*
X117673Y106139D01*
X117672Y106138D01*
X117638Y106053D01*
X117619Y105964D01*
X117616Y105872D01*
X117629Y105781D01*
X117657Y105694D01*
X117700Y105614D01*
X117756Y105542D01*
X117824Y105480D01*
X117902Y105432D01*
X117987Y105398D01*
X118076Y105379D01*
X118168Y105376D01*
X118259Y105389D01*
X118317Y105408D01*
Y103000D01*
G37*
G36*
X114972Y182149D02*X112141Y184980D01*
X112299Y185567D01*
X112381Y186501D01*
X112299Y187435D01*
X112056Y188341D01*
X111682Y189145D01*
Y190946D01*
X113254Y190213D01*
X114972Y189753D01*
Y182149D01*
G37*
G36*
Y155221D02*X111682Y158511D01*
Y171125D01*
X114972Y167835D01*
Y155221D01*
G37*
G36*
Y149221D02*X111682Y152511D01*
Y154125D01*
X114972Y150835D01*
Y149221D01*
G37*
G36*
Y103000D02*X111682D01*
Y105363D01*
X111690Y105359D01*
X111777Y105332D01*
X111868Y105321D01*
X111959Y105326D01*
X112049Y105346D01*
X112133Y105382D01*
X112210Y105432D01*
X112277Y105494D01*
X112332Y105567D01*
X112374Y105649D01*
X112401Y105736D01*
X112412Y105827D01*
X112407Y105918D01*
X112387Y106008D01*
X112351Y106092D01*
X112238Y106328D01*
X112146Y106573D01*
X112076Y106826D01*
X112029Y107083D01*
X112004Y107343D01*
X112001Y107605D01*
X112022Y107866D01*
X112065Y108124D01*
X112131Y108378D01*
X112218Y108624D01*
X112326Y108862D01*
X112327Y108863D01*
X112361Y108948D01*
X112380Y109037D01*
X112383Y109129D01*
X112370Y109220D01*
X112342Y109307D01*
X112299Y109387D01*
X112243Y109459D01*
X112175Y109521D01*
X112097Y109569D01*
X112012Y109603D01*
X111923Y109622D01*
X111831Y109625D01*
X111740Y109612D01*
X111682Y109593D01*
Y134490D01*
X113375Y136183D01*
X113495Y136193D01*
X113975Y136322D01*
X114262Y136456D01*
X112774Y134968D01*
X112775Y134967D01*
X112728Y134911D01*
X112684Y134867D01*
X112649Y134817D01*
X112601Y134760D01*
X112564Y134696D01*
X112529Y134646D01*
X112501Y134587D01*
X112466Y134526D01*
X112443Y134464D01*
X112414Y134401D01*
X112396Y134333D01*
X112374Y134272D01*
X112362Y134205D01*
X112345Y134140D01*
X112339Y134076D01*
X112327Y134006D01*
Y133938D01*
X112321Y133871D01*
Y126162D01*
X112326Y126106D01*
Y126028D01*
X112340Y125947D01*
X112345Y125893D01*
X112359Y125839D01*
X112373Y125761D01*
X112398Y125692D01*
X112414Y125632D01*
X112439Y125579D01*
X112465Y125507D01*
X112507Y125434D01*
X112529Y125387D01*
X112558Y125345D01*
X112600Y125273D01*
X112654Y125209D01*
X112684Y125166D01*
X112721Y125129D01*
X112774Y125066D01*
X114972Y122868D01*
Y119987D01*
X114817Y119832D01*
X114532Y119425D01*
X114322Y118975D01*
X114193Y118495D01*
X114150Y118000D01*
X114193Y117505D01*
X114322Y117025D01*
X114532Y116575D01*
X114817Y116168D01*
X114972Y116013D01*
Y111547D01*
X114788Y111545D01*
X114436Y111511D01*
X114088Y111447D01*
X113748Y111352D01*
X113417Y111229D01*
X113098Y111076D01*
X113099Y111077D01*
X113022Y111027D01*
X112955Y110965D01*
X112900Y110892D01*
X112858Y110810D01*
X112831Y110723D01*
X112820Y110632D01*
X112825Y110541D01*
X112845Y110451D01*
X112881Y110367D01*
X112931Y110290D01*
X112993Y110223D01*
X113066Y110168D01*
X113148Y110126D01*
X113235Y110099D01*
X113326Y110088D01*
X113417Y110093D01*
X113507Y110113D01*
X113591Y110149D01*
X113827Y110262D01*
X114072Y110354D01*
X114325Y110424D01*
X114582Y110471D01*
X114842Y110496D01*
X114972Y110497D01*
Y104503D01*
X114895Y104502D01*
X114634Y104523D01*
X114376Y104566D01*
X114122Y104632D01*
X113876Y104719D01*
X113638Y104827D01*
X113637Y104828D01*
X113552Y104862D01*
X113463Y104881D01*
X113371Y104884D01*
X113280Y104871D01*
X113193Y104843D01*
X113113Y104800D01*
X113041Y104744D01*
X112979Y104676D01*
X112931Y104598D01*
X112897Y104513D01*
X112878Y104424D01*
X112875Y104332D01*
X112888Y104241D01*
X112916Y104154D01*
X112959Y104074D01*
X113015Y104002D01*
X113083Y103940D01*
X113161Y103892D01*
X113482Y103745D01*
X113815Y103627D01*
X114157Y103539D01*
X114506Y103481D01*
X114858Y103453D01*
X114972Y103454D01*
Y103000D01*
G37*
G36*
X111682Y189145D02*X111660Y189192D01*
X111122Y189960D01*
X110459Y190623D01*
X109691Y191161D01*
X108840Y191557D01*
X107934Y191800D01*
X107000Y191882D01*
X106066Y191800D01*
X105160Y191557D01*
X104309Y191161D01*
X103541Y190623D01*
X103000Y190082D01*
Y201049D01*
X103213Y200254D01*
X104451Y197600D01*
X106130Y195201D01*
X108201Y193130D01*
X110600Y191451D01*
X111682Y190946D01*
Y189145D01*
G37*
G36*
Y158511D02*X109830Y160363D01*
X109909Y160475D01*
X109987Y160641D01*
X110034Y160818D01*
X110050Y161000D01*
Y167000D01*
X110034Y167182D01*
X109987Y167359D01*
X109909Y167525D01*
X109804Y167675D01*
X109675Y167804D01*
X109525Y167909D01*
X109359Y167987D01*
X109182Y168034D01*
X109000Y168050D01*
X103000D01*
Y182920D01*
X103541Y182379D01*
X104309Y181841D01*
X105160Y181445D01*
X106066Y181202D01*
X107000Y181120D01*
X107934Y181202D01*
X108357Y181316D01*
X108168Y181183D01*
X107817Y180832D01*
X107532Y180425D01*
X107322Y179975D01*
X107193Y179495D01*
X107150Y179000D01*
X107193Y178505D01*
X107322Y178025D01*
X107532Y177575D01*
X107817Y177168D01*
X108148Y176837D01*
X108000Y176850D01*
X107505Y176807D01*
X107025Y176678D01*
X106575Y176468D01*
X106168Y176183D01*
X105817Y175832D01*
X105532Y175425D01*
X105322Y174975D01*
X105193Y174495D01*
X105150Y174000D01*
X105193Y173505D01*
X105322Y173025D01*
X105532Y172575D01*
X105817Y172168D01*
X106168Y171817D01*
X106575Y171532D01*
X107025Y171322D01*
X107505Y171193D01*
X108000Y171150D01*
X108495Y171193D01*
X108975Y171322D01*
X109425Y171532D01*
X109832Y171817D01*
X110183Y172168D01*
X110371Y172436D01*
X111682Y171125D01*
Y158511D01*
G37*
G36*
Y152511D02*X110036Y154157D01*
X109988Y154703D01*
X109806Y155385D01*
X109507Y156025D01*
X109102Y156603D01*
X108603Y157102D01*
X108025Y157507D01*
X107385Y157806D01*
X106703Y157988D01*
X106000Y158050D01*
X105297Y157988D01*
X104615Y157806D01*
X103975Y157507D01*
X103397Y157102D01*
X103000Y156705D01*
Y159950D01*
X105857D01*
X111682Y154125D01*
Y152511D01*
G37*
G36*
Y103000D02*X103000D01*
Y120807D01*
X103218Y120589D01*
X103193Y120495D01*
X103150Y120000D01*
X103193Y119505D01*
X103322Y119025D01*
X103532Y118575D01*
X103817Y118168D01*
X104168Y117817D01*
X104575Y117532D01*
X105025Y117322D01*
X105505Y117193D01*
X106000Y117150D01*
X106495Y117193D01*
X106975Y117322D01*
X107425Y117532D01*
X107832Y117817D01*
X108183Y118168D01*
X108468Y118575D01*
X108678Y119025D01*
X108807Y119505D01*
X108850Y120000D01*
X108807Y120495D01*
X108678Y120975D01*
X108468Y121425D01*
X108183Y121832D01*
X107832Y122183D01*
X107425Y122468D01*
X106975Y122678D01*
X106495Y122807D01*
X106000Y122850D01*
X105550Y122811D01*
Y128358D01*
X111682Y134490D01*
Y109593D01*
X111653Y109584D01*
X111573Y109541D01*
X111501Y109485D01*
X111439Y109417D01*
X111391Y109339D01*
X111244Y109018D01*
X111126Y108685D01*
X111038Y108343D01*
X110980Y107994D01*
X110952Y107642D01*
X110955Y107289D01*
X110989Y106937D01*
X111053Y106589D01*
X111148Y106249D01*
X111271Y105918D01*
X111424Y105599D01*
X111423Y105600D01*
X111473Y105523D01*
X111535Y105456D01*
X111608Y105401D01*
X111682Y105363D01*
Y103000D01*
G37*
G36*
X155000Y198044D02*X166949D01*
X167131Y198060D01*
X167308Y198107D01*
X167474Y198185D01*
X167624Y198290D01*
X167753Y198419D01*
X167858Y198569D01*
X167936Y198735D01*
X167983Y198912D01*
X167999Y199094D01*
Y211700D01*
X181686D01*
X181898Y211397D01*
X182397Y210898D01*
X182975Y210493D01*
X183615Y210194D01*
X184297Y210012D01*
X185000Y209950D01*
X185703Y210012D01*
X186385Y210194D01*
X186540Y210267D01*
X188588Y208219D01*
Y119326D01*
X184769Y115507D01*
X167999D01*
Y125906D01*
X167983Y126088D01*
X167936Y126265D01*
X167858Y126431D01*
X167753Y126581D01*
X167624Y126710D01*
X167474Y126815D01*
X167308Y126893D01*
X167131Y126940D01*
X166949Y126956D01*
X155000D01*
Y149501D01*
X166949D01*
X167131Y149517D01*
X167308Y149564D01*
X167474Y149642D01*
X167624Y149747D01*
X167753Y149876D01*
X167858Y150026D01*
X167936Y150192D01*
X167983Y150369D01*
X167999Y150551D01*
Y174449D01*
X167983Y174631D01*
X167936Y174808D01*
X167858Y174974D01*
X167753Y175124D01*
X167624Y175253D01*
X167474Y175358D01*
X167308Y175436D01*
X167131Y175483D01*
X166949Y175499D01*
X155000D01*
Y198044D01*
G37*
G36*
X114972Y122868D02*X115450Y122390D01*
Y120380D01*
X115168Y120183D01*
X114972Y119987D01*
Y122868D01*
G37*
G36*
X135000Y140985D02*X135168Y140817D01*
X135575Y140532D01*
X136025Y140322D01*
X136505Y140193D01*
X137000Y140150D01*
X137495Y140193D01*
X137589Y140218D01*
X138450Y139357D01*
Y130644D01*
X137588Y129782D01*
X137495Y129807D01*
X137000Y129850D01*
X136505Y129807D01*
X136025Y129678D01*
X135575Y129468D01*
X135168Y129183D01*
X135000Y129015D01*
Y140985D01*
G37*
G36*
X142002Y102000D02*X135000D01*
Y103450D01*
X138000D01*
X138182Y103466D01*
X138359Y103513D01*
X138525Y103591D01*
X138675Y103696D01*
X138804Y103825D01*
X138909Y103975D01*
X138987Y104141D01*
X139034Y104318D01*
X139050Y104500D01*
Y110500D01*
X139034Y110682D01*
X138987Y110859D01*
X138909Y111025D01*
X138804Y111175D01*
X138675Y111304D01*
X138525Y111409D01*
X138359Y111487D01*
X138182Y111534D01*
X138000Y111550D01*
X135000D01*
Y124985D01*
X135168Y124817D01*
X135575Y124532D01*
X136025Y124322D01*
X136505Y124193D01*
X137000Y124150D01*
X137495Y124193D01*
X137975Y124322D01*
X138425Y124532D01*
X138832Y124817D01*
X139183Y125168D01*
X139468Y125575D01*
X139678Y126025D01*
X139807Y126505D01*
X139850Y127000D01*
X139807Y127495D01*
X139782Y127590D01*
X141096Y128904D01*
X141097Y128903D01*
X141155Y128972D01*
X141187Y129004D01*
X141213Y129041D01*
X141271Y129110D01*
X141316Y129188D01*
X141342Y129225D01*
X141362Y129268D01*
X141406Y129344D01*
X141435Y129423D01*
X141457Y129470D01*
X141469Y129517D01*
X141499Y129598D01*
X141514Y129687D01*
X141526Y129731D01*
X141531Y129782D01*
X141545Y129865D01*
Y129944D01*
X141550Y130000D01*
Y140000D01*
X141545Y140057D01*
Y140136D01*
X141531Y140218D01*
X141526Y140269D01*
X141513Y140317D01*
X141498Y140402D01*
X141472Y140472D01*
X141457Y140530D01*
X141430Y140588D01*
X141405Y140656D01*
X141367Y140722D01*
X141342Y140775D01*
X141310Y140820D01*
X141270Y140890D01*
X141218Y140952D01*
X141187Y140996D01*
X141149Y141034D01*
X141096Y141097D01*
X139782Y142411D01*
X139807Y142505D01*
X139850Y143000D01*
X139807Y143495D01*
X139678Y143975D01*
X139468Y144425D01*
X139183Y144832D01*
X138832Y145183D01*
X138425Y145468D01*
X137975Y145678D01*
X137495Y145807D01*
X137000Y145850D01*
X136505Y145807D01*
X136025Y145678D01*
X135575Y145468D01*
X135168Y145183D01*
X135000Y145015D01*
Y201049D01*
X135545Y203083D01*
X135800Y206000D01*
X135545Y208917D01*
X135000Y210951D01*
Y213018D01*
X135160Y212944D01*
X136066Y212701D01*
X137000Y212619D01*
X137934Y212701D01*
X138840Y212944D01*
X139691Y213340D01*
X140459Y213878D01*
X141122Y214541D01*
X141660Y215309D01*
X142001Y216042D01*
Y199094D01*
X142017Y198912D01*
X142064Y198735D01*
X142142Y198569D01*
X142247Y198419D01*
X142376Y198290D01*
X142526Y198185D01*
X142692Y198107D01*
X142869Y198060D01*
X143051Y198044D01*
X155000D01*
Y175499D01*
X143051D01*
X142869Y175483D01*
X142692Y175436D01*
X142526Y175358D01*
X142376Y175253D01*
X142247Y175124D01*
X142142Y174974D01*
X142064Y174808D01*
X142017Y174631D01*
X142001Y174449D01*
Y150551D01*
X142017Y150369D01*
X142064Y150192D01*
X142142Y150026D01*
X142247Y149876D01*
X142376Y149747D01*
X142526Y149642D01*
X142692Y149564D01*
X142869Y149517D01*
X143051Y149501D01*
X155000D01*
Y126956D01*
X143051D01*
X142869Y126940D01*
X142692Y126893D01*
X142526Y126815D01*
X142376Y126710D01*
X142247Y126581D01*
X142142Y126431D01*
X142064Y126265D01*
X142017Y126088D01*
X142001Y125906D01*
Y102008D01*
X142002Y102000D01*
G37*
G36*
X135000Y210951D02*X134787Y211746D01*
X133915Y213616D01*
X134309Y213340D01*
X135000Y213018D01*
Y210951D01*
G37*
G36*
X126400Y117858D02*X126532Y117575D01*
X126817Y117168D01*
X127168Y116817D01*
X127450Y116620D01*
Y115644D01*
X126400Y114594D01*
Y117858D01*
G37*
G36*
X135000Y102000D02*X126400D01*
Y103701D01*
X127025Y103993D01*
X127603Y104398D01*
X128102Y104897D01*
X128507Y105475D01*
X128806Y106115D01*
X128988Y106797D01*
X129050Y107500D01*
X128988Y108203D01*
X128806Y108885D01*
X128507Y109525D01*
X128102Y110103D01*
X127698Y110507D01*
X128096Y110904D01*
X128097Y110903D01*
X128155Y110972D01*
X128187Y111004D01*
X128213Y111041D01*
X128271Y111110D01*
X128315Y111187D01*
X128342Y111225D01*
X128362Y111268D01*
X128406Y111344D01*
X128436Y111425D01*
X128457Y111470D01*
X128470Y111518D01*
X128499Y111598D01*
X128514Y111684D01*
X128526Y111731D01*
X128530Y111780D01*
X128545Y111865D01*
Y111945D01*
X128550Y112000D01*
Y112358D01*
X130096Y113904D01*
X130097Y113903D01*
X130155Y113972D01*
X130187Y114004D01*
X130213Y114041D01*
X130271Y114110D01*
X130316Y114188D01*
X130342Y114225D01*
X130362Y114268D01*
X130406Y114344D01*
X130435Y114423D01*
X130457Y114470D01*
X130469Y114517D01*
X130499Y114598D01*
X130514Y114687D01*
X130526Y114731D01*
X130531Y114782D01*
X130545Y114865D01*
Y114944D01*
X130550Y115000D01*
Y116620D01*
X130832Y116817D01*
X131183Y117168D01*
X131468Y117575D01*
X131678Y118025D01*
X131807Y118505D01*
X131850Y119000D01*
X131807Y119495D01*
X131678Y119975D01*
X131468Y120425D01*
X131183Y120832D01*
X130832Y121183D01*
X130425Y121468D01*
X129975Y121678D01*
X129495Y121807D01*
X129000Y121850D01*
X128505Y121807D01*
X128025Y121678D01*
X127575Y121468D01*
X127168Y121183D01*
X126817Y120832D01*
X126532Y120425D01*
X126400Y120142D01*
Y139407D01*
X128218Y137589D01*
X128193Y137495D01*
X128150Y137000D01*
X128193Y136505D01*
X128322Y136025D01*
X128532Y135575D01*
X128817Y135168D01*
X129168Y134817D01*
X129575Y134532D01*
X130025Y134322D01*
X130505Y134193D01*
X131000Y134150D01*
X131495Y134193D01*
X131975Y134322D01*
X132425Y134532D01*
X132832Y134817D01*
X133183Y135168D01*
X133468Y135575D01*
X133678Y136025D01*
X133807Y136505D01*
X133850Y137000D01*
X133807Y137495D01*
X133678Y137975D01*
X133468Y138425D01*
X133183Y138832D01*
X132832Y139183D01*
X132425Y139468D01*
X131975Y139678D01*
X131495Y139807D01*
X131000Y139850D01*
X130505Y139807D01*
X130411Y139782D01*
X126400Y143793D01*
Y158478D01*
X126468Y158575D01*
X126678Y159025D01*
X126807Y159505D01*
X126850Y160000D01*
X126807Y160495D01*
X126782Y160590D01*
X129096Y162904D01*
X129097Y162903D01*
X129155Y162972D01*
X129187Y163004D01*
X129213Y163041D01*
X129271Y163110D01*
X129316Y163188D01*
X129342Y163225D01*
X129362Y163268D01*
X129406Y163344D01*
X129435Y163423D01*
X129457Y163470D01*
X129469Y163517D01*
X129499Y163598D01*
X129514Y163687D01*
X129526Y163731D01*
X129531Y163782D01*
X129545Y163865D01*
Y163944D01*
X129550Y164000D01*
Y168000D01*
X129545Y168056D01*
Y168136D01*
X129531Y168215D01*
X129526Y168269D01*
X129512Y168320D01*
X129498Y168402D01*
X129472Y168473D01*
X129457Y168530D01*
X129430Y168587D01*
X129405Y168656D01*
X129367Y168722D01*
X129342Y168775D01*
X129310Y168820D01*
X129270Y168890D01*
X129217Y168953D01*
X129187Y168996D01*
X129149Y169034D01*
X129096Y169097D01*
X127596Y170597D01*
X127533Y170650D01*
X127495Y170688D01*
X127452Y170718D01*
X127389Y170771D01*
X127319Y170811D01*
X127274Y170843D01*
X127221Y170868D01*
X127155Y170906D01*
X127086Y170931D01*
X127029Y170958D01*
X126971Y170973D01*
X126901Y170999D01*
X126817Y171014D01*
X126768Y171027D01*
X126717Y171032D01*
X126635Y171046D01*
X126555D01*
X126499Y171051D01*
X126400D01*
Y190985D01*
X127400Y191451D01*
X129799Y193130D01*
X131870Y195201D01*
X133549Y197600D01*
X134787Y200254D01*
X135000Y201049D01*
Y145015D01*
X134817Y144832D01*
X134532Y144425D01*
X134322Y143975D01*
X134193Y143495D01*
X134150Y143000D01*
X134193Y142505D01*
X134322Y142025D01*
X134532Y141575D01*
X134817Y141168D01*
X135000Y140985D01*
Y129015D01*
X134817Y128832D01*
X134532Y128425D01*
X134322Y127975D01*
X134193Y127495D01*
X134150Y127000D01*
X134193Y126505D01*
X134322Y126025D01*
X134532Y125575D01*
X134817Y125168D01*
X135000Y124985D01*
Y111550D01*
X132000D01*
X131818Y111534D01*
X131641Y111487D01*
X131475Y111409D01*
X131325Y111304D01*
X131196Y111175D01*
X131091Y111025D01*
X131013Y110859D01*
X130966Y110682D01*
X130950Y110500D01*
Y104500D01*
X130966Y104318D01*
X131013Y104141D01*
X131091Y103975D01*
X131196Y103825D01*
X131325Y103696D01*
X131475Y103591D01*
X131641Y103513D01*
X131818Y103466D01*
X132000Y103450D01*
X135000D01*
Y102000D01*
G37*
G36*
X126400Y171051D02*X124571D01*
X118500Y177122D01*
Y178000D01*
X118494Y178068D01*
Y178131D01*
X118483Y178193D01*
X118477Y178260D01*
X118459Y178329D01*
X118448Y178389D01*
X118429Y178441D01*
X118410Y178513D01*
X118378Y178580D01*
X118359Y178634D01*
X118329Y178686D01*
X118317Y178712D01*
Y189260D01*
X119000Y189200D01*
X121917Y189455D01*
X124746Y190213D01*
X126400Y190985D01*
Y171051D01*
G37*
G36*
Y143793D02*X118317Y151876D01*
Y163244D01*
X118505Y163193D01*
X119000Y163150D01*
X119495Y163193D01*
X119975Y163322D01*
X120425Y163532D01*
X120832Y163817D01*
X121183Y164168D01*
X121468Y164575D01*
X121500Y164644D01*
X121532Y164575D01*
X121817Y164168D01*
X122168Y163817D01*
X122575Y163532D01*
X123025Y163322D01*
X123505Y163193D01*
X124000Y163150D01*
X124495Y163193D01*
X124975Y163322D01*
X125262Y163456D01*
X124588Y162782D01*
X124495Y162807D01*
X124000Y162850D01*
X123505Y162807D01*
X123025Y162678D01*
X122575Y162468D01*
X122168Y162183D01*
X121817Y161832D01*
X121532Y161425D01*
X121322Y160975D01*
X121193Y160495D01*
X121150Y160000D01*
X121193Y159505D01*
X121322Y159025D01*
X121532Y158575D01*
X121817Y158168D01*
X122168Y157817D01*
X122575Y157532D01*
X123025Y157322D01*
X123505Y157193D01*
X124000Y157150D01*
X124495Y157193D01*
X124975Y157322D01*
X125425Y157532D01*
X125832Y157817D01*
X126183Y158168D01*
X126400Y158478D01*
Y143793D01*
G37*
G36*
Y102000D02*X118317D01*
Y105408D01*
X118346Y105417D01*
X118426Y105460D01*
X118498Y105516D01*
X118560Y105584D01*
X118608Y105662D01*
X118755Y105983D01*
X118873Y106316D01*
X118961Y106658D01*
X119019Y107007D01*
X119047Y107359D01*
X119044Y107712D01*
X119010Y108064D01*
X118946Y108412D01*
X118851Y108752D01*
X118728Y109083D01*
X118575Y109402D01*
X118576Y109401D01*
X118526Y109478D01*
X118464Y109545D01*
X118391Y109600D01*
X118317Y109638D01*
Y115482D01*
X118425Y115532D01*
X118832Y115817D01*
X119183Y116168D01*
X119256Y116272D01*
X119322Y116025D01*
X119532Y115575D01*
X119817Y115168D01*
X120168Y114817D01*
X120575Y114532D01*
X121025Y114322D01*
X121505Y114193D01*
X122000Y114150D01*
X122495Y114193D01*
X122975Y114322D01*
X123425Y114532D01*
X123832Y114817D01*
X124183Y115168D01*
X124468Y115575D01*
X124678Y116025D01*
X124807Y116505D01*
X124850Y117000D01*
X124807Y117495D01*
X124678Y117975D01*
X124468Y118425D01*
X124183Y118832D01*
X123832Y119183D01*
X123550Y119380D01*
Y120863D01*
X123545Y120920D01*
Y120999D01*
X123531Y121081D01*
X123526Y121132D01*
X123513Y121180D01*
X123498Y121265D01*
X123472Y121335D01*
X123457Y121393D01*
X123430Y121451D01*
X123405Y121519D01*
X123367Y121585D01*
X123342Y121638D01*
X123310Y121683D01*
X123270Y121753D01*
X123218Y121815D01*
X123187Y121859D01*
X123149Y121897D01*
X123096Y121960D01*
X118317Y126739D01*
Y133295D01*
X121096Y136074D01*
X121097Y136073D01*
X121154Y136141D01*
X121187Y136174D01*
X121212Y136210D01*
X121271Y136280D01*
X121315Y136357D01*
X121342Y136395D01*
X121362Y136438D01*
X121406Y136514D01*
X121436Y136595D01*
X121457Y136640D01*
X121470Y136688D01*
X121499Y136768D01*
X121514Y136854D01*
X121526Y136901D01*
X121530Y136950D01*
X121545Y137035D01*
Y137115D01*
X121550Y137170D01*
Y142000D01*
X121545Y142056D01*
Y142136D01*
X121531Y142216D01*
X121526Y142269D01*
X121512Y142321D01*
X121498Y142402D01*
X121472Y142474D01*
X121457Y142530D01*
X121431Y142586D01*
X121405Y142656D01*
X121367Y142721D01*
X121342Y142775D01*
X121310Y142820D01*
X121270Y142890D01*
X121217Y142953D01*
X121187Y142996D01*
X121149Y143034D01*
X121096Y143097D01*
X118317Y145876D01*
Y147490D01*
X126400Y139407D01*
Y120142D01*
X126322Y119975D01*
X126193Y119495D01*
X126150Y119000D01*
X126193Y118505D01*
X126322Y118025D01*
X126400Y117858D01*
Y114594D01*
X125903Y114097D01*
X125904Y114096D01*
X125857Y114040D01*
X125813Y113996D01*
X125778Y113946D01*
X125730Y113889D01*
X125694Y113826D01*
X125658Y113775D01*
X125631Y113717D01*
X125595Y113655D01*
X125573Y113593D01*
X125543Y113530D01*
X125525Y113461D01*
X125503Y113401D01*
X125491Y113332D01*
X125474Y113269D01*
X125468Y113204D01*
X125456Y113135D01*
Y113068D01*
X125450Y113000D01*
Y112644D01*
X124293Y111487D01*
X123615Y111306D01*
X122975Y111007D01*
X122397Y110602D01*
X121898Y110103D01*
X121493Y109525D01*
X121194Y108885D01*
X121012Y108203D01*
X120950Y107500D01*
X121012Y106797D01*
X121194Y106115D01*
X121493Y105475D01*
X121898Y104897D01*
X122397Y104398D01*
X122975Y103993D01*
X123615Y103694D01*
X124297Y103512D01*
X125000Y103450D01*
X125703Y103512D01*
X126385Y103694D01*
X126400Y103701D01*
Y102000D01*
G37*
G36*
X118317Y178712D02*X118299Y178750D01*
X118259Y178806D01*
X118228Y178861D01*
X118187Y178910D01*
X118149Y178964D01*
X118102Y179011D01*
X118060Y179061D01*
X114972Y182149D01*
Y189753D01*
X116083Y189455D01*
X118317Y189260D01*
Y178712D01*
G37*
G36*
Y151876D02*X114972Y155221D01*
Y167835D01*
X116218Y166589D01*
X116193Y166495D01*
X116150Y166000D01*
X116193Y165505D01*
X116322Y165025D01*
X116532Y164575D01*
X116817Y164168D01*
X117168Y163817D01*
X117575Y163532D01*
X118025Y163322D01*
X118317Y163244D01*
Y151876D01*
G37*
G36*
Y145876D02*X114972Y149221D01*
Y150835D01*
X118317Y147490D01*
Y145876D01*
G37*
G36*
Y126739D02*X117507Y127549D01*
Y132485D01*
X118317Y133295D01*
Y126739D01*
G37*
G36*
Y102000D02*X114972D01*
Y103454D01*
X115211Y103456D01*
X115563Y103490D01*
X115911Y103554D01*
X116251Y103649D01*
X116582Y103772D01*
X116901Y103925D01*
X116900Y103924D01*
X116977Y103974D01*
X117044Y104036D01*
X117099Y104109D01*
X117141Y104191D01*
X117168Y104278D01*
X117179Y104369D01*
X117174Y104460D01*
X117154Y104550D01*
X117118Y104634D01*
X117068Y104711D01*
X117006Y104778D01*
X116933Y104833D01*
X116851Y104875D01*
X116764Y104902D01*
X116673Y104913D01*
X116582Y104908D01*
X116492Y104888D01*
X116408Y104852D01*
X116172Y104739D01*
X115927Y104647D01*
X115674Y104577D01*
X115417Y104530D01*
X115157Y104505D01*
X114972Y104503D01*
Y110497D01*
X115104Y110499D01*
X115365Y110478D01*
X115623Y110435D01*
X115877Y110369D01*
X116123Y110282D01*
X116361Y110174D01*
X116362Y110173D01*
X116447Y110139D01*
X116536Y110120D01*
X116628Y110117D01*
X116719Y110130D01*
X116806Y110158D01*
X116886Y110201D01*
X116958Y110257D01*
X117020Y110325D01*
X117068Y110403D01*
X117102Y110488D01*
X117121Y110577D01*
X117124Y110669D01*
X117111Y110760D01*
X117083Y110847D01*
X117040Y110927D01*
X116984Y110999D01*
X116916Y111061D01*
X116838Y111109D01*
X116517Y111256D01*
X116184Y111374D01*
X115842Y111462D01*
X115493Y111520D01*
X115141Y111548D01*
X114972Y111547D01*
Y116013D01*
X115168Y115817D01*
X115575Y115532D01*
X116025Y115322D01*
X116505Y115193D01*
X117000Y115150D01*
X117495Y115193D01*
X117975Y115322D01*
X118317Y115482D01*
Y109638D01*
X118309Y109642D01*
X118222Y109669D01*
X118131Y109680D01*
X118040Y109675D01*
X117950Y109655D01*
X117866Y109619D01*
X117789Y109569D01*
X117722Y109507D01*
X117667Y109434D01*
X117625Y109352D01*
X117598Y109265D01*
X117587Y109174D01*
X117592Y109083D01*
X117612Y108993D01*
X117648Y108909D01*
X117761Y108673D01*
X117853Y108428D01*
X117923Y108175D01*
X117970Y107918D01*
X117995Y107658D01*
X117998Y107396D01*
X117977Y107135D01*
X117934Y106877D01*
X117868Y106623D01*
X117781Y106377D01*
X117673Y106139D01*
X117672Y106138D01*
X117638Y106053D01*
X117619Y105964D01*
X117616Y105872D01*
X117629Y105781D01*
X117657Y105694D01*
X117700Y105614D01*
X117756Y105542D01*
X117824Y105480D01*
X117902Y105432D01*
X117987Y105398D01*
X118076Y105379D01*
X118168Y105376D01*
X118259Y105389D01*
X118317Y105408D01*
Y102000D01*
G37*
G36*
X114972Y182149D02*X112141Y184980D01*
X112299Y185567D01*
X112381Y186501D01*
X112299Y187435D01*
X112056Y188341D01*
X111682Y189145D01*
Y190946D01*
X113254Y190213D01*
X114972Y189753D01*
Y182149D01*
G37*
G36*
Y155221D02*X111682Y158511D01*
Y171125D01*
X114972Y167835D01*
Y155221D01*
G37*
G36*
Y149221D02*X111682Y152511D01*
Y154125D01*
X114972Y150835D01*
Y149221D01*
G37*
G36*
Y102000D02*X111682D01*
Y105363D01*
X111690Y105359D01*
X111777Y105332D01*
X111868Y105321D01*
X111959Y105326D01*
X112049Y105346D01*
X112133Y105382D01*
X112210Y105432D01*
X112277Y105494D01*
X112332Y105567D01*
X112374Y105649D01*
X112401Y105736D01*
X112412Y105827D01*
X112407Y105918D01*
X112387Y106008D01*
X112351Y106092D01*
X112238Y106328D01*
X112146Y106573D01*
X112076Y106826D01*
X112029Y107083D01*
X112004Y107343D01*
X112001Y107605D01*
X112022Y107866D01*
X112065Y108124D01*
X112131Y108378D01*
X112218Y108624D01*
X112326Y108862D01*
X112327Y108863D01*
X112361Y108948D01*
X112380Y109037D01*
X112383Y109129D01*
X112370Y109220D01*
X112342Y109307D01*
X112299Y109387D01*
X112243Y109459D01*
X112175Y109521D01*
X112097Y109569D01*
X112012Y109603D01*
X111923Y109622D01*
X111831Y109625D01*
X111740Y109612D01*
X111682Y109593D01*
Y134490D01*
X113375Y136183D01*
X113495Y136193D01*
X113975Y136322D01*
X114262Y136456D01*
X112774Y134968D01*
X112775Y134967D01*
X112728Y134911D01*
X112684Y134867D01*
X112649Y134817D01*
X112601Y134760D01*
X112564Y134696D01*
X112529Y134646D01*
X112501Y134587D01*
X112466Y134526D01*
X112443Y134464D01*
X112414Y134401D01*
X112396Y134333D01*
X112374Y134272D01*
X112362Y134205D01*
X112345Y134140D01*
X112339Y134076D01*
X112327Y134006D01*
Y133938D01*
X112321Y133871D01*
Y126162D01*
X112326Y126106D01*
Y126028D01*
X112340Y125947D01*
X112345Y125893D01*
X112359Y125839D01*
X112373Y125761D01*
X112398Y125692D01*
X112414Y125632D01*
X112439Y125579D01*
X112465Y125507D01*
X112507Y125434D01*
X112529Y125387D01*
X112558Y125345D01*
X112600Y125273D01*
X112654Y125209D01*
X112684Y125166D01*
X112721Y125129D01*
X112774Y125066D01*
X114972Y122868D01*
Y119987D01*
X114817Y119832D01*
X114532Y119425D01*
X114322Y118975D01*
X114193Y118495D01*
X114150Y118000D01*
X114193Y117505D01*
X114322Y117025D01*
X114532Y116575D01*
X114817Y116168D01*
X114972Y116013D01*
Y111547D01*
X114788Y111545D01*
X114436Y111511D01*
X114088Y111447D01*
X113748Y111352D01*
X113417Y111229D01*
X113098Y111076D01*
X113099Y111077D01*
X113022Y111027D01*
X112955Y110965D01*
X112900Y110892D01*
X112858Y110810D01*
X112831Y110723D01*
X112820Y110632D01*
X112825Y110541D01*
X112845Y110451D01*
X112881Y110367D01*
X112931Y110290D01*
X112993Y110223D01*
X113066Y110168D01*
X113148Y110126D01*
X113235Y110099D01*
X113326Y110088D01*
X113417Y110093D01*
X113507Y110113D01*
X113591Y110149D01*
X113827Y110262D01*
X114072Y110354D01*
X114325Y110424D01*
X114582Y110471D01*
X114842Y110496D01*
X114972Y110497D01*
Y104503D01*
X114895Y104502D01*
X114634Y104523D01*
X114376Y104566D01*
X114122Y104632D01*
X113876Y104719D01*
X113638Y104827D01*
X113637Y104828D01*
X113552Y104862D01*
X113463Y104881D01*
X113371Y104884D01*
X113280Y104871D01*
X113193Y104843D01*
X113113Y104800D01*
X113041Y104744D01*
X112979Y104676D01*
X112931Y104598D01*
X112897Y104513D01*
X112878Y104424D01*
X112875Y104332D01*
X112888Y104241D01*
X112916Y104154D01*
X112959Y104074D01*
X113015Y104002D01*
X113083Y103940D01*
X113161Y103892D01*
X113482Y103745D01*
X113815Y103627D01*
X114157Y103539D01*
X114506Y103481D01*
X114858Y103453D01*
X114972Y103454D01*
Y102000D01*
G37*
G36*
X111682Y189145D02*X111660Y189192D01*
X111122Y189960D01*
X110459Y190623D01*
X109691Y191161D01*
X108840Y191557D01*
X107934Y191800D01*
X107000Y191882D01*
X106066Y191800D01*
X105160Y191557D01*
X104309Y191161D01*
X103541Y190623D01*
X103000Y190082D01*
Y201049D01*
X103213Y200254D01*
X104451Y197600D01*
X106130Y195201D01*
X108201Y193130D01*
X110600Y191451D01*
X111682Y190946D01*
Y189145D01*
G37*
G36*
Y158511D02*X109830Y160363D01*
X109909Y160475D01*
X109987Y160641D01*
X110034Y160818D01*
X110050Y161000D01*
Y167000D01*
X110034Y167182D01*
X109987Y167359D01*
X109909Y167525D01*
X109804Y167675D01*
X109675Y167804D01*
X109525Y167909D01*
X109359Y167987D01*
X109182Y168034D01*
X109000Y168050D01*
X103000D01*
Y182920D01*
X103541Y182379D01*
X104309Y181841D01*
X105160Y181445D01*
X106066Y181202D01*
X107000Y181120D01*
X107934Y181202D01*
X108357Y181316D01*
X108168Y181183D01*
X107817Y180832D01*
X107532Y180425D01*
X107322Y179975D01*
X107193Y179495D01*
X107150Y179000D01*
X107193Y178505D01*
X107322Y178025D01*
X107532Y177575D01*
X107817Y177168D01*
X108148Y176837D01*
X108000Y176850D01*
X107505Y176807D01*
X107025Y176678D01*
X106575Y176468D01*
X106168Y176183D01*
X105817Y175832D01*
X105532Y175425D01*
X105322Y174975D01*
X105193Y174495D01*
X105150Y174000D01*
X105193Y173505D01*
X105322Y173025D01*
X105532Y172575D01*
X105817Y172168D01*
X106168Y171817D01*
X106575Y171532D01*
X107025Y171322D01*
X107505Y171193D01*
X108000Y171150D01*
X108495Y171193D01*
X108975Y171322D01*
X109425Y171532D01*
X109832Y171817D01*
X110183Y172168D01*
X110371Y172436D01*
X111682Y171125D01*
Y158511D01*
G37*
G36*
Y152511D02*X110036Y154157D01*
X109988Y154703D01*
X109806Y155385D01*
X109507Y156025D01*
X109102Y156603D01*
X108603Y157102D01*
X108025Y157507D01*
X107385Y157806D01*
X106703Y157988D01*
X106000Y158050D01*
X105297Y157988D01*
X104615Y157806D01*
X103975Y157507D01*
X103397Y157102D01*
X103000Y156705D01*
Y159950D01*
X105857D01*
X111682Y154125D01*
Y152511D01*
G37*
G36*
Y102000D02*X103000D01*
Y120807D01*
X103218Y120589D01*
X103193Y120495D01*
X103150Y120000D01*
X103193Y119505D01*
X103322Y119025D01*
X103532Y118575D01*
X103817Y118168D01*
X104168Y117817D01*
X104575Y117532D01*
X105025Y117322D01*
X105505Y117193D01*
X106000Y117150D01*
X106495Y117193D01*
X106975Y117322D01*
X107425Y117532D01*
X107832Y117817D01*
X108183Y118168D01*
X108468Y118575D01*
X108678Y119025D01*
X108807Y119505D01*
X108850Y120000D01*
X108807Y120495D01*
X108678Y120975D01*
X108468Y121425D01*
X108183Y121832D01*
X107832Y122183D01*
X107425Y122468D01*
X106975Y122678D01*
X106495Y122807D01*
X106000Y122850D01*
X105550Y122811D01*
Y128358D01*
X111682Y134490D01*
Y109593D01*
X111653Y109584D01*
X111573Y109541D01*
X111501Y109485D01*
X111439Y109417D01*
X111391Y109339D01*
X111244Y109018D01*
X111126Y108685D01*
X111038Y108343D01*
X110980Y107994D01*
X110952Y107642D01*
X110955Y107289D01*
X110989Y106937D01*
X111053Y106589D01*
X111148Y106249D01*
X111271Y105918D01*
X111424Y105599D01*
X111423Y105600D01*
X111473Y105523D01*
X111535Y105456D01*
X111608Y105401D01*
X111682Y105363D01*
Y102000D01*
G37*
G36*
X155000Y126956D02*Y149501D01*
X166949D01*
X167131Y149517D01*
X167308Y149564D01*
X167474Y149642D01*
X167624Y149747D01*
X167753Y149876D01*
X167858Y150026D01*
X167936Y150192D01*
X167983Y150369D01*
X167999Y150551D01*
Y158000D01*
X188588D01*
Y119326D01*
X184769Y115507D01*
X167999D01*
Y125906D01*
X167983Y126088D01*
X167936Y126265D01*
X167858Y126431D01*
X167753Y126581D01*
X167624Y126710D01*
X167474Y126815D01*
X167308Y126893D01*
X167131Y126940D01*
X166949Y126956D01*
X155000D01*
G37*
G36*
X167999Y211700D02*X181686D01*
X181898Y211397D01*
X182397Y210898D01*
X182975Y210493D01*
X183615Y210194D01*
X184297Y210012D01*
X185000Y209950D01*
X185703Y210012D01*
X186385Y210194D01*
X186540Y210267D01*
X188588Y208219D01*
Y139000D01*
X155000D01*
Y149501D01*
X166949D01*
X167131Y149517D01*
X167308Y149564D01*
X167474Y149642D01*
X167624Y149747D01*
X167753Y149876D01*
X167858Y150026D01*
X167936Y150192D01*
X167983Y150369D01*
X167999Y150551D01*
Y174449D01*
X167983Y174631D01*
X167936Y174808D01*
X167858Y174974D01*
X167753Y175124D01*
X167624Y175253D01*
X167474Y175358D01*
X167308Y175436D01*
X167131Y175483D01*
X166949Y175499D01*
X155000D01*
Y198044D01*
X166949D01*
X167131Y198060D01*
X167308Y198107D01*
X167474Y198185D01*
X167624Y198290D01*
X167753Y198419D01*
X167858Y198569D01*
X167936Y198735D01*
X167983Y198912D01*
X167999Y199094D01*
Y211700D01*
G37*
G36*
X155000Y139000D02*X141550D01*
Y140000D01*
X141545Y140057D01*
Y140136D01*
X141531Y140218D01*
X141526Y140269D01*
X141513Y140317D01*
X141498Y140402D01*
X141472Y140472D01*
X141457Y140530D01*
X141430Y140588D01*
X141405Y140656D01*
X141367Y140722D01*
X141342Y140775D01*
X141310Y140820D01*
X141270Y140890D01*
X141218Y140952D01*
X141187Y140996D01*
X141149Y141034D01*
X141096Y141097D01*
X139782Y142411D01*
X139807Y142505D01*
X139850Y143000D01*
X139807Y143495D01*
X139678Y143975D01*
X139468Y144425D01*
X139183Y144832D01*
X138832Y145183D01*
X138425Y145468D01*
X137975Y145678D01*
X137495Y145807D01*
X137000Y145850D01*
X136505Y145807D01*
X136025Y145678D01*
X135575Y145468D01*
X135168Y145183D01*
X134817Y144832D01*
X134532Y144425D01*
X134322Y143975D01*
X134193Y143495D01*
X134150Y143000D01*
X134193Y142505D01*
X134322Y142025D01*
X134532Y141575D01*
X134817Y141168D01*
X135168Y140817D01*
X135575Y140532D01*
X136025Y140322D01*
X136505Y140193D01*
X137000Y140150D01*
X137495Y140193D01*
X137589Y140218D01*
X138450Y139357D01*
Y139000D01*
X133015D01*
X132832Y139183D01*
X132425Y139468D01*
X131975Y139678D01*
X131495Y139807D01*
X131000Y139850D01*
X130505Y139807D01*
X130411Y139782D01*
X130000Y140193D01*
Y193331D01*
X131870Y195201D01*
X133549Y197600D01*
X134787Y200254D01*
X135545Y203083D01*
X135800Y206000D01*
X135545Y208917D01*
X134787Y211746D01*
X133915Y213616D01*
X134309Y213340D01*
X135160Y212944D01*
X136066Y212701D01*
X137000Y212619D01*
X137934Y212701D01*
X138840Y212944D01*
X139691Y213340D01*
X140459Y213878D01*
X141122Y214541D01*
X141660Y215309D01*
X142001Y216042D01*
Y199094D01*
X142017Y198912D01*
X142064Y198735D01*
X142142Y198569D01*
X142247Y198419D01*
X142376Y198290D01*
X142526Y198185D01*
X142692Y198107D01*
X142869Y198060D01*
X143051Y198044D01*
X155000D01*
Y175499D01*
X143051D01*
X142869Y175483D01*
X142692Y175436D01*
X142526Y175358D01*
X142376Y175253D01*
X142247Y175124D01*
X142142Y174974D01*
X142064Y174808D01*
X142017Y174631D01*
X142001Y174449D01*
Y150551D01*
X142017Y150369D01*
X142064Y150192D01*
X142142Y150026D01*
X142247Y149876D01*
X142376Y149747D01*
X142526Y149642D01*
X142692Y149564D01*
X142869Y149517D01*
X143051Y149501D01*
X155000D01*
Y139000D01*
G37*
G36*
X137850Y139957D02*X138450Y139357D01*
Y130644D01*
X137850Y130044D01*
Y139957D01*
G37*
G36*
X160765Y185063D02*Y175499D01*
X143051D01*
X142869Y175483D01*
X142692Y175436D01*
X142526Y175358D01*
X142376Y175253D01*
X142247Y175124D01*
X142142Y174974D01*
X142064Y174808D01*
X142017Y174631D01*
X142001Y174449D01*
Y150551D01*
X142017Y150369D01*
X142064Y150192D01*
X142142Y150026D01*
X142247Y149876D01*
X142376Y149747D01*
X142526Y149642D01*
X142692Y149564D01*
X142869Y149517D01*
X143051Y149501D01*
X160765D01*
Y126956D01*
X143051D01*
X142869Y126940D01*
X142692Y126893D01*
X142526Y126815D01*
X142376Y126710D01*
X142247Y126581D01*
X142142Y126431D01*
X142064Y126265D01*
X142017Y126088D01*
X142001Y125906D01*
Y112063D01*
X137850D01*
Y124288D01*
X137975Y124322D01*
X138425Y124532D01*
X138832Y124817D01*
X139183Y125168D01*
X139468Y125575D01*
X139678Y126025D01*
X139807Y126505D01*
X139850Y127000D01*
X139807Y127495D01*
X139782Y127590D01*
X141096Y128904D01*
X141097Y128903D01*
X141155Y128972D01*
X141187Y129004D01*
X141213Y129041D01*
X141271Y129110D01*
X141316Y129188D01*
X141342Y129225D01*
X141362Y129268D01*
X141406Y129344D01*
X141435Y129423D01*
X141457Y129470D01*
X141469Y129517D01*
X141499Y129598D01*
X141514Y129687D01*
X141526Y129731D01*
X141531Y129782D01*
X141545Y129865D01*
Y129944D01*
X141550Y130000D01*
Y140000D01*
X141545Y140057D01*
Y140136D01*
X141531Y140218D01*
X141526Y140269D01*
X141513Y140317D01*
X141498Y140402D01*
X141472Y140472D01*
X141457Y140530D01*
X141430Y140588D01*
X141405Y140656D01*
X141367Y140722D01*
X141342Y140775D01*
X141310Y140820D01*
X141270Y140890D01*
X141218Y140952D01*
X141187Y140996D01*
X141149Y141034D01*
X141096Y141097D01*
X139782Y142411D01*
X139807Y142505D01*
X139850Y143000D01*
X139807Y143495D01*
X139678Y143975D01*
X139468Y144425D01*
X139183Y144832D01*
X138832Y145183D01*
X138425Y145468D01*
X137975Y145678D01*
X137850Y145712D01*
Y185063D01*
X160765D01*
G37*
G36*
X137850Y112063D02*X128550D01*
Y112358D01*
X130096Y113904D01*
X130097Y113903D01*
X130155Y113972D01*
X130187Y114004D01*
X130213Y114041D01*
X130271Y114110D01*
X130316Y114188D01*
X130342Y114225D01*
X130362Y114268D01*
X130406Y114344D01*
X130435Y114423D01*
X130457Y114470D01*
X130469Y114517D01*
X130499Y114598D01*
X130514Y114687D01*
X130526Y114731D01*
X130531Y114782D01*
X130545Y114865D01*
Y114944D01*
X130550Y115000D01*
Y116620D01*
X130832Y116817D01*
X131183Y117168D01*
X131468Y117575D01*
X131678Y118025D01*
X131807Y118505D01*
X131850Y119000D01*
X131807Y119495D01*
X131678Y119975D01*
X131468Y120425D01*
X131183Y120832D01*
X130832Y121183D01*
X130425Y121468D01*
X129975Y121678D01*
X129495Y121807D01*
X129000Y121850D01*
X128505Y121807D01*
X128025Y121678D01*
X127575Y121468D01*
X127168Y121183D01*
X126817Y120832D01*
X126532Y120425D01*
X126322Y119975D01*
X126193Y119495D01*
X126150Y119000D01*
X126193Y118505D01*
X126322Y118025D01*
X126532Y117575D01*
X126817Y117168D01*
X127168Y116817D01*
X127450Y116620D01*
Y115644D01*
X125903Y114097D01*
X125904Y114096D01*
X125855Y114038D01*
X125813Y113996D01*
X125778Y113947D01*
X125730Y113889D01*
X125694Y113826D01*
X125658Y113775D01*
X125631Y113717D01*
X125595Y113655D01*
X125572Y113592D01*
X125543Y113530D01*
X125525Y113462D01*
X125503Y113401D01*
X125491Y113333D01*
X125474Y113269D01*
X125468Y113204D01*
X125456Y113135D01*
Y113068D01*
X125450Y113000D01*
Y112644D01*
X124869Y112063D01*
X114765D01*
Y116242D01*
X114817Y116168D01*
X115168Y115817D01*
X115575Y115532D01*
X116025Y115322D01*
X116505Y115193D01*
X117000Y115150D01*
X117495Y115193D01*
X117975Y115322D01*
X118425Y115532D01*
X118832Y115817D01*
X119183Y116168D01*
X119256Y116272D01*
X119322Y116025D01*
X119532Y115575D01*
X119817Y115168D01*
X120168Y114817D01*
X120575Y114532D01*
X121025Y114322D01*
X121505Y114193D01*
X122000Y114150D01*
X122495Y114193D01*
X122975Y114322D01*
X123425Y114532D01*
X123832Y114817D01*
X124183Y115168D01*
X124468Y115575D01*
X124678Y116025D01*
X124807Y116505D01*
X124850Y117000D01*
X124807Y117495D01*
X124678Y117975D01*
X124468Y118425D01*
X124183Y118832D01*
X123832Y119183D01*
X123550Y119380D01*
Y120863D01*
X123545Y120920D01*
Y120999D01*
X123531Y121079D01*
X123526Y121132D01*
X123512Y121184D01*
X123498Y121265D01*
X123472Y121337D01*
X123457Y121393D01*
X123431Y121449D01*
X123405Y121519D01*
X123366Y121586D01*
X123342Y121638D01*
X123310Y121684D01*
X123270Y121753D01*
X123218Y121815D01*
X123187Y121859D01*
X123149Y121897D01*
X123096Y121960D01*
X117507Y127549D01*
Y132485D01*
X121096Y136074D01*
X121097Y136073D01*
X121155Y136142D01*
X121187Y136174D01*
X121213Y136211D01*
X121271Y136280D01*
X121315Y136357D01*
X121342Y136395D01*
X121362Y136438D01*
X121406Y136514D01*
X121436Y136595D01*
X121457Y136640D01*
X121470Y136688D01*
X121499Y136768D01*
X121514Y136854D01*
X121526Y136901D01*
X121530Y136950D01*
X121545Y137035D01*
Y137115D01*
X121550Y137170D01*
Y142000D01*
X121545Y142057D01*
Y142136D01*
X121531Y142216D01*
X121526Y142269D01*
X121512Y142321D01*
X121498Y142402D01*
X121472Y142474D01*
X121457Y142530D01*
X121431Y142586D01*
X121405Y142656D01*
X121366Y142723D01*
X121342Y142775D01*
X121310Y142821D01*
X121270Y142890D01*
X121218Y142952D01*
X121187Y142996D01*
X121149Y143034D01*
X121096Y143097D01*
X114765Y149428D01*
Y151042D01*
X128218Y137589D01*
X128193Y137495D01*
X128150Y137000D01*
X128193Y136505D01*
X128322Y136025D01*
X128532Y135575D01*
X128817Y135168D01*
X129168Y134817D01*
X129575Y134532D01*
X130025Y134322D01*
X130505Y134193D01*
X131000Y134150D01*
X131495Y134193D01*
X131975Y134322D01*
X132425Y134532D01*
X132832Y134817D01*
X133183Y135168D01*
X133468Y135575D01*
X133678Y136025D01*
X133807Y136505D01*
X133850Y137000D01*
X133807Y137495D01*
X133678Y137975D01*
X133468Y138425D01*
X133183Y138832D01*
X132832Y139183D01*
X132425Y139468D01*
X131975Y139678D01*
X131495Y139807D01*
X131000Y139850D01*
X130505Y139807D01*
X130411Y139782D01*
X114765Y155428D01*
Y168042D01*
X116218Y166589D01*
X116193Y166495D01*
X116150Y166000D01*
X116193Y165505D01*
X116322Y165025D01*
X116532Y164575D01*
X116817Y164168D01*
X117168Y163817D01*
X117575Y163532D01*
X118025Y163322D01*
X118505Y163193D01*
X119000Y163150D01*
X119495Y163193D01*
X119975Y163322D01*
X120425Y163532D01*
X120832Y163817D01*
X121183Y164168D01*
X121468Y164575D01*
X121500Y164644D01*
X121532Y164575D01*
X121817Y164168D01*
X122168Y163817D01*
X122575Y163532D01*
X123025Y163322D01*
X123505Y163193D01*
X124000Y163150D01*
X124495Y163193D01*
X124975Y163322D01*
X125262Y163456D01*
X124588Y162782D01*
X124495Y162807D01*
X124000Y162850D01*
X123505Y162807D01*
X123025Y162678D01*
X122575Y162468D01*
X122168Y162183D01*
X121817Y161832D01*
X121532Y161425D01*
X121322Y160975D01*
X121193Y160495D01*
X121150Y160000D01*
X121193Y159505D01*
X121322Y159025D01*
X121532Y158575D01*
X121817Y158168D01*
X122168Y157817D01*
X122575Y157532D01*
X123025Y157322D01*
X123505Y157193D01*
X124000Y157150D01*
X124495Y157193D01*
X124975Y157322D01*
X125425Y157532D01*
X125832Y157817D01*
X126183Y158168D01*
X126468Y158575D01*
X126678Y159025D01*
X126807Y159505D01*
X126850Y160000D01*
X126807Y160495D01*
X126782Y160590D01*
X129096Y162904D01*
X129097Y162903D01*
X129155Y162972D01*
X129187Y163004D01*
X129213Y163041D01*
X129271Y163110D01*
X129316Y163188D01*
X129342Y163225D01*
X129362Y163268D01*
X129406Y163344D01*
X129435Y163423D01*
X129457Y163470D01*
X129469Y163517D01*
X129499Y163598D01*
X129514Y163687D01*
X129526Y163731D01*
X129531Y163782D01*
X129545Y163865D01*
Y163944D01*
X129550Y164000D01*
Y168000D01*
X129545Y168056D01*
Y168136D01*
X129531Y168215D01*
X129526Y168269D01*
X129512Y168320D01*
X129498Y168402D01*
X129472Y168473D01*
X129457Y168530D01*
X129430Y168587D01*
X129405Y168656D01*
X129367Y168722D01*
X129342Y168775D01*
X129310Y168820D01*
X129270Y168890D01*
X129217Y168953D01*
X129187Y168996D01*
X129149Y169034D01*
X129096Y169097D01*
X127596Y170597D01*
X127533Y170650D01*
X127495Y170688D01*
X127452Y170718D01*
X127389Y170771D01*
X127319Y170811D01*
X127274Y170843D01*
X127221Y170868D01*
X127155Y170906D01*
X127086Y170931D01*
X127029Y170958D01*
X126972Y170973D01*
X126901Y170999D01*
X126819Y171013D01*
X126768Y171027D01*
X126714Y171032D01*
X126635Y171046D01*
X126555D01*
X126499Y171051D01*
X124571D01*
X118500Y177122D01*
Y178000D01*
X118494Y178068D01*
Y178131D01*
X118483Y178193D01*
X118477Y178260D01*
X118459Y178329D01*
X118448Y178389D01*
X118429Y178441D01*
X118410Y178513D01*
X118378Y178580D01*
X118359Y178634D01*
X118329Y178686D01*
X118299Y178750D01*
X118259Y178806D01*
X118228Y178861D01*
X118187Y178910D01*
X118149Y178964D01*
X118102Y179011D01*
X118060Y179061D01*
X114765Y182356D01*
Y185063D01*
X137850D01*
Y145712D01*
X137495Y145807D01*
X137000Y145850D01*
X136505Y145807D01*
X136025Y145678D01*
X135575Y145468D01*
X135168Y145183D01*
X134817Y144832D01*
X134532Y144425D01*
X134322Y143975D01*
X134193Y143495D01*
X134150Y143000D01*
X134193Y142505D01*
X134322Y142025D01*
X134532Y141575D01*
X134817Y141168D01*
X135168Y140817D01*
X135575Y140532D01*
X136025Y140322D01*
X136505Y140193D01*
X137000Y140150D01*
X137495Y140193D01*
X137589Y140218D01*
X137850Y139957D01*
Y130044D01*
X137588Y129782D01*
X137495Y129807D01*
X137000Y129850D01*
X136505Y129807D01*
X136025Y129678D01*
X135575Y129468D01*
X135168Y129183D01*
X134817Y128832D01*
X134532Y128425D01*
X134322Y127975D01*
X134193Y127495D01*
X134150Y127000D01*
X134193Y126505D01*
X134322Y126025D01*
X134532Y125575D01*
X134817Y125168D01*
X135168Y124817D01*
X135575Y124532D01*
X136025Y124322D01*
X136505Y124193D01*
X137000Y124150D01*
X137495Y124193D01*
X137850Y124288D01*
Y112063D01*
G37*
G36*
X135607Y203792D02*Y175457D01*
X120165D01*
X118500Y177122D01*
Y178000D01*
X118494Y178068D01*
Y178131D01*
X118483Y178193D01*
X118477Y178260D01*
X118459Y178329D01*
X118448Y178389D01*
X118429Y178441D01*
X118410Y178513D01*
X118378Y178581D01*
X118359Y178634D01*
X118330Y178684D01*
X118299Y178750D01*
X118259Y178806D01*
X118228Y178861D01*
X118187Y178910D01*
X118149Y178964D01*
X118102Y179011D01*
X118060Y179061D01*
X112141Y184980D01*
X112299Y185567D01*
X112381Y186501D01*
X112299Y187435D01*
X112056Y188341D01*
X111660Y189192D01*
X111122Y189960D01*
X110459Y190623D01*
X109691Y191161D01*
X108840Y191557D01*
X107934Y191800D01*
X107000Y191882D01*
X106066Y191800D01*
X105160Y191557D01*
X104309Y191161D01*
X103541Y190623D01*
X102878Y189960D01*
X102340Y189192D01*
X102000Y188461D01*
Y205000D01*
X102287D01*
X102455Y203083D01*
X103213Y200254D01*
X104451Y197600D01*
X106130Y195201D01*
X108201Y193130D01*
X110600Y191451D01*
X113254Y190213D01*
X116083Y189455D01*
X119000Y189200D01*
X121917Y189455D01*
X124746Y190213D01*
X127400Y191451D01*
X129799Y193130D01*
X131870Y195201D01*
X133549Y197600D01*
X134787Y200254D01*
X135545Y203083D01*
X135607Y203792D01*
G37*
G54D12*X140000Y140000D02*Y130000D01*
X127000Y112000D02*X125000Y110000D01*
Y107500D01*
X129000Y119000D02*Y115000D01*
X127000Y113000D01*
Y112000D01*
X140000Y140000D02*X137000Y143000D01*
Y127000D02*X140000Y130000D01*
X122000Y120863D02*Y117000D01*
G54D13*X143000Y150000D02*X167000D01*
X155000Y162500D02*X157000Y160500D01*
Y145000D01*
X167000Y175000D02*Y150000D01*
X143000Y175000D02*X167000D01*
G54D12*X139543Y220543D02*X137000Y218000D01*
G54D13*X143000Y175000D02*Y150000D01*
X166000Y214000D02*X185000D01*
G54D12*X190138Y208862D01*
Y118682D01*
X185413Y113957D01*
X155000D02*X185413D01*
X106000Y120000D02*X104000Y122000D01*
Y129000D02*Y122000D01*
X114000Y139000D02*X104000Y129000D01*
X112669Y144000D02*X117000Y139669D01*
X106000Y144000D02*X112669D01*
X113871Y126162D02*X117000Y123033D01*
X120000Y142000D02*X111000Y151000D01*
X112000Y150000D02*X108000Y154000D01*
X106000D02*X108000D01*
X131000Y137000D02*X106000Y162000D01*
X122000Y120863D02*X115957Y126906D01*
X117000Y123033D02*Y118000D01*
Y139669D02*Y137000D01*
X113871Y133871D02*Y126162D01*
X117000Y137000D02*X113871Y133871D01*
X115957Y133127D02*Y126906D01*
Y133127D02*X120000Y137170D01*
Y142000D02*Y137170D01*
X119000Y170000D02*X110000Y179000D01*
X108000Y174000D02*X111000D01*
X119000Y166000D02*X111000Y174000D01*
X124000Y169501D02*X117000Y176501D01*
Y178000D01*
X119000Y170000D02*X120000D01*
X124000Y166000D02*X120000Y170000D01*
X124000Y169501D02*X126499D01*
X128000Y168000D01*
Y164000D01*
X124000Y160000D01*
X106000Y164000D02*Y162000D01*
X109501Y184000D02*X107000Y186501D01*
X109287Y184214D01*
X111000Y184000D02*X115000Y180000D01*
X117000Y178000D02*X111000Y184000D01*
X109501D01*
G54D14*X107000Y186501D03*
X137000Y218000D03*
G54D11*G36*
X103000Y167000D02*Y161000D01*
X109000D01*
Y167000D01*
X103000D01*
G37*
G54D15*X106000Y154000D03*
G54D11*G36*
X132000Y110500D02*Y104500D01*
X138000D01*
Y110500D01*
X132000D01*
G37*
G54D15*X125000Y107500D03*
X115000D03*
X106000Y144000D03*
X182000Y137000D03*
Y170000D03*
X185000Y214000D03*
X166000Y190000D03*
G54D16*X124000Y166000D03*
X119000D03*
X110000Y179000D03*
X108000Y174000D03*
X131000Y137000D03*
X129000Y119000D03*
X137000Y127000D03*
G54D15*X112000Y121000D03*
G54D16*X124000Y128000D03*
X120000D03*
X117000Y118000D03*
X122000Y117000D03*
X124000Y160000D03*
X137000Y143000D03*
X106000Y120000D03*
X113000Y139000D03*
X124000Y132000D03*
X120000D03*
G54D11*G36*
X143052Y174448D02*Y150551D01*
X166949D01*
Y174448D01*
X143052D01*
G37*
G36*
Y222991D02*Y199094D01*
X166949D01*
Y222991D01*
X143052D01*
G37*
G36*
Y125905D02*Y102008D01*
X166949D01*
Y125905D01*
X143052D01*
G37*
G54D17*G54D18*G54D19*G54D11*G54D20*G54D21*G54D11*G54D19*G54D11*G54D20*M02*
