G04 start of page 6 for group -4062 idx -4062 *
G04 Title: (unknown), soldermask *
G04 Creator: pcb 20091103 *
G04 CreationDate: Wed May  9 21:08:20 2012 UTC *
G04 For: markrages *
G04 Format: Gerber/RS-274X *
G04 PCB-Dimensions: 315000 325000 *
G04 PCB-Coordinate-Origin: lower left *
%MOIN*%
%FSLAX25Y25*%
%LNBACKMASK*%
%ADD11C,0.0200*%
%ADD14C,0.0866*%
%ADD20C,0.1270*%
%ADD21C,0.3150*%
%ADD25C,0.0660*%
%ADD26R,0.0572X0.0572*%
%ADD27R,0.0454X0.0454*%
%ADD28R,0.0176X0.0176*%
G54D14*X107000Y186501D03*
X137000Y218000D03*
G54D11*G36*
X102700Y167300D02*Y160700D01*
X109300D01*
Y167300D01*
X102700D01*
G37*
G54D25*X106000Y154000D03*
G54D11*G36*
X131700Y110800D02*Y104200D01*
X138300D01*
Y110800D01*
X131700D01*
G37*
G54D25*X125000Y107500D03*
X115000D03*
X106000Y144000D03*
G54D20*X205000Y215000D03*
G54D21*X119000Y206000D03*
G54D20*X205000Y110000D03*
G54D26*X118914Y185000D02*Y184214D01*
X126000Y185000D02*Y184214D01*
X134607Y192543D02*X135393D01*
X134607Y185457D02*X135393D01*
G54D27*X142894Y206318D02*Y200216D01*
X135906Y170374D02*X142008D01*
X135906Y162500D02*X142008D01*
X135906Y154626D02*X142008D01*
X150768Y206318D02*Y200216D01*
X158642Y206318D02*Y200216D01*
X166516Y206318D02*Y200216D01*
X174390Y206318D02*Y200216D01*
X182264Y206318D02*Y200216D01*
X190138Y206318D02*Y200216D01*
G54D26*X177607Y213457D02*X178393D01*
X177607Y220543D02*X178393D01*
X170607Y213457D02*X171393D01*
X170607Y220543D02*X171393D01*
X163607D02*X164393D01*
X163607Y213457D02*X164393D01*
X156607Y220543D02*X157393D01*
X156607Y213457D02*X157393D01*
X106607Y114543D02*X107393D01*
X106607Y107457D02*X107393D01*
X106214Y125914D02*X107000D01*
X106214Y133000D02*X107000D01*
G54D28*X118162Y138129D02*Y136043D01*
X120721Y138129D02*Y136043D01*
X123279Y138129D02*Y136043D01*
X125838Y138129D02*Y136043D01*
X128043Y133838D02*X130129D01*
X128043Y131279D02*X130129D01*
X128043Y128721D02*X130129D01*
X128043Y126162D02*X130129D01*
X125838Y123957D02*Y121871D01*
X123279Y123957D02*Y121871D01*
X120721Y123957D02*Y121871D01*
X118162Y123957D02*Y121871D01*
X113871Y126162D02*X115957D01*
X113871Y128721D02*X115957D01*
X113871Y131279D02*X115957D01*
X113871Y133838D02*X115957D01*
G54D11*G36*
X117667Y134333D02*Y125666D01*
X126334D01*
Y134333D01*
X117667D01*
G37*
G54D27*X142894Y124784D02*Y118682D01*
X150768Y124784D02*Y118682D01*
X158642Y124784D02*Y118682D01*
X166516Y124784D02*Y118682D01*
X174390Y124784D02*Y118682D01*
X182264Y124784D02*Y118682D01*
X190138Y124784D02*Y118682D01*
M02*
