G04 start of page 3 for group 1 idx 1 *
G04 Title: (unknown), solder *
G04 Creator: pcb 20091103 *
G04 CreationDate: Wed May  9 21:08:20 2012 UTC *
G04 For: markrages *
G04 Format: Gerber/RS-274X *
G04 PCB-Dimensions: 315000 325000 *
G04 PCB-Coordinate-Origin: lower left *
%MOIN*%
%FSLAX25Y25*%
%LNBACK*%
%ADD11C,0.0200*%
%ADD12C,0.0100*%
%ADD13C,0.0250*%
%ADD14C,0.0866*%
%ADD15C,0.0600*%
%ADD16C,0.0360*%
%ADD17C,0.0394*%
%ADD18C,0.0380*%
%ADD19C,0.0350*%
%ADD20C,0.1270*%
%ADD21C,0.3150*%
%ADD22R,0.0512X0.0512*%
%ADD23R,0.0374X0.0374*%
%ADD24R,0.0146X0.0146*%
G54D11*G36*
X154000Y209852D02*Y194000D01*
X150768D01*
Y197296D01*
X152638D01*
X152820Y197312D01*
X152997Y197359D01*
X153163Y197437D01*
X153313Y197542D01*
X153442Y197671D01*
X153547Y197821D01*
X153625Y197987D01*
X153672Y198164D01*
X153688Y198346D01*
Y208188D01*
X153672Y208370D01*
X153625Y208547D01*
X153547Y208713D01*
X153442Y208863D01*
X153313Y208992D01*
X153163Y209097D01*
X152997Y209175D01*
X152820Y209222D01*
X152638Y209238D01*
X150768D01*
Y218243D01*
X152998D01*
Y217984D01*
X153014Y217802D01*
X153061Y217625D01*
X153139Y217459D01*
X153244Y217309D01*
X153373Y217180D01*
X153523Y217075D01*
X153683Y217000D01*
X153523Y216925D01*
X153373Y216820D01*
X153244Y216691D01*
X153139Y216541D01*
X153061Y216375D01*
X153014Y216198D01*
X152998Y216016D01*
Y210898D01*
X153014Y210716D01*
X153061Y210539D01*
X153139Y210373D01*
X153244Y210223D01*
X153373Y210094D01*
X153523Y209989D01*
X153689Y209911D01*
X153866Y209864D01*
X154000Y209852D01*
G37*
G36*
X150768Y194000D02*X142894D01*
Y197296D01*
X144764D01*
X144946Y197312D01*
X145123Y197359D01*
X145289Y197437D01*
X145439Y197542D01*
X145568Y197671D01*
X145673Y197821D01*
X145751Y197987D01*
X145798Y198164D01*
X145814Y198346D01*
Y208188D01*
X145798Y208370D01*
X145751Y208547D01*
X145673Y208713D01*
X145568Y208863D01*
X145439Y208992D01*
X145289Y209097D01*
X145123Y209175D01*
X144946Y209222D01*
X144764Y209238D01*
X142894D01*
Y218243D01*
X150768D01*
Y209238D01*
X148898D01*
X148716Y209222D01*
X148539Y209175D01*
X148373Y209097D01*
X148223Y208992D01*
X148094Y208863D01*
X147989Y208713D01*
X147911Y208547D01*
X147864Y208370D01*
X147848Y208188D01*
Y198346D01*
X147864Y198164D01*
X147911Y197987D01*
X147989Y197821D01*
X148094Y197671D01*
X148223Y197542D01*
X148373Y197437D01*
X148539Y197359D01*
X148716Y197312D01*
X148898Y197296D01*
X150768D01*
Y194000D01*
G37*
G36*
X142894D02*X139292D01*
Y194058D01*
X139300Y194150D01*
Y213158D01*
X139691Y213340D01*
X140459Y213878D01*
X141122Y214541D01*
X141660Y215309D01*
X142056Y216160D01*
X142299Y217066D01*
X142381Y218000D01*
X142360Y218243D01*
X142894D01*
Y209238D01*
X141024D01*
X140842Y209222D01*
X140665Y209175D01*
X140499Y209097D01*
X140349Y208992D01*
X140220Y208863D01*
X140115Y208713D01*
X140037Y208547D01*
X139990Y208370D01*
X139974Y208188D01*
Y198346D01*
X139990Y198164D01*
X140037Y197987D01*
X140115Y197821D01*
X140220Y197671D01*
X140349Y197542D01*
X140499Y197437D01*
X140665Y197359D01*
X140842Y197312D01*
X141024Y197296D01*
X142894D01*
Y194000D01*
G37*
G36*
X139002Y193021D02*X139032Y193086D01*
X139085Y193178D01*
X139123Y193281D01*
X139161Y193363D01*
X139182Y193443D01*
X139223Y193554D01*
X139243Y193670D01*
X139265Y193751D01*
X139273Y193839D01*
X139292Y193949D01*
Y194059D01*
X139300Y194150D01*
Y198000D01*
X140034D01*
X140037Y197987D01*
X140115Y197821D01*
X140220Y197671D01*
X140349Y197542D01*
X140499Y197437D01*
X140665Y197359D01*
X140842Y197312D01*
X141024Y197296D01*
X144764D01*
X144946Y197312D01*
X145123Y197359D01*
X145289Y197437D01*
X145439Y197542D01*
X145568Y197671D01*
X145673Y197821D01*
X145751Y197987D01*
X145754Y198000D01*
X147908D01*
X147911Y197987D01*
X147989Y197821D01*
X148094Y197671D01*
X148223Y197542D01*
X148373Y197437D01*
X148539Y197359D01*
X148716Y197312D01*
X148898Y197296D01*
X149000D01*
Y187194D01*
X141356Y179550D01*
X116000D01*
Y180667D01*
X116173Y180621D01*
X116355Y180605D01*
X121473D01*
X121655Y180621D01*
X121832Y180668D01*
X121998Y180746D01*
X122148Y180851D01*
X122277Y180980D01*
X122382Y181130D01*
X122457Y181290D01*
X122532Y181130D01*
X122637Y180980D01*
X122766Y180851D01*
X122916Y180746D01*
X123082Y180668D01*
X123259Y180621D01*
X123441Y180605D01*
X128559D01*
X128741Y180621D01*
X128918Y180668D01*
X129084Y180746D01*
X129234Y180851D01*
X129363Y180980D01*
X129468Y181130D01*
X129546Y181296D01*
X129593Y181473D01*
X129609Y181655D01*
Y183157D01*
X130998D01*
Y182898D01*
X131014Y182716D01*
X131061Y182539D01*
X131139Y182373D01*
X131244Y182223D01*
X131373Y182094D01*
X131523Y181989D01*
X131689Y181911D01*
X131866Y181864D01*
X132048Y181848D01*
X137952D01*
X138134Y181864D01*
X138311Y181911D01*
X138477Y181989D01*
X138627Y182094D01*
X138756Y182223D01*
X138861Y182373D01*
X138939Y182539D01*
X138986Y182716D01*
X139002Y182898D01*
Y188016D01*
X138986Y188198D01*
X138939Y188375D01*
X138861Y188541D01*
X138756Y188691D01*
X138627Y188820D01*
X138477Y188925D01*
X138317Y189000D01*
X138477Y189075D01*
X138627Y189180D01*
X138756Y189309D01*
X138861Y189459D01*
X138939Y189625D01*
X138986Y189802D01*
X139002Y189984D01*
Y193021D01*
G37*
G36*
X169436Y199000D02*X171470D01*
Y198346D01*
X171486Y198164D01*
X171533Y197987D01*
X171611Y197821D01*
X171716Y197671D01*
X171845Y197542D01*
X171995Y197437D01*
X172161Y197359D01*
X172338Y197312D01*
X172520Y197296D01*
X174000D01*
Y189254D01*
X157420Y172674D01*
X144832D01*
X144787Y172769D01*
X144682Y172919D01*
X144553Y173048D01*
X144403Y173153D01*
X144237Y173231D01*
X144060Y173278D01*
X143878Y173294D01*
X134036D01*
X133854Y173278D01*
X133677Y173231D01*
X133511Y173153D01*
X133361Y173048D01*
X133232Y172919D01*
X133127Y172769D01*
X133082Y172674D01*
X116374D01*
X116282Y172666D01*
X116173D01*
X116063Y172647D01*
X115975Y172639D01*
X115893Y172617D01*
X115778Y172597D01*
X115668Y172557D01*
X115587Y172535D01*
X115505Y172497D01*
X115402Y172459D01*
X115308Y172405D01*
X115224Y172366D01*
X115151Y172315D01*
X115054Y172259D01*
X114966Y172185D01*
X114896Y172136D01*
X114835Y172075D01*
X114747Y172001D01*
X111373Y168627D01*
X111374Y168626D01*
X111311Y168551D01*
X111238Y168478D01*
X111180Y168395D01*
X111116Y168319D01*
X111068Y168235D01*
X111008Y168150D01*
X110964Y168055D01*
X110932Y168000D01*
X109310D01*
X109182Y168034D01*
X109000Y168050D01*
X103000D01*
Y182920D01*
X103541Y182379D01*
X104309Y181841D01*
X105160Y181445D01*
X106066Y181202D01*
X107000Y181120D01*
X107934Y181202D01*
X108357Y181316D01*
X108168Y181183D01*
X107817Y180832D01*
X107532Y180425D01*
X107322Y179975D01*
X107193Y179495D01*
X107150Y179000D01*
X107193Y178505D01*
X107322Y178025D01*
X107532Y177575D01*
X107817Y177168D01*
X108148Y176837D01*
X108000Y176850D01*
X107505Y176807D01*
X107025Y176678D01*
X106575Y176468D01*
X106168Y176183D01*
X105817Y175832D01*
X105532Y175425D01*
X105322Y174975D01*
X105193Y174495D01*
X105150Y174000D01*
X105193Y173505D01*
X105322Y173025D01*
X105532Y172575D01*
X105817Y172168D01*
X106168Y171817D01*
X106575Y171532D01*
X107025Y171322D01*
X107505Y171193D01*
X108000Y171150D01*
X108495Y171193D01*
X108975Y171322D01*
X109425Y171532D01*
X109832Y171817D01*
X110183Y172168D01*
X110380Y172450D01*
X112000D01*
X112068Y172456D01*
X112135D01*
X112205Y172468D01*
X112269Y172474D01*
X112334Y172491D01*
X112401Y172503D01*
X112462Y172525D01*
X112530Y172543D01*
X112592Y172572D01*
X112655Y172595D01*
X112717Y172631D01*
X112775Y172658D01*
X112825Y172693D01*
X112889Y172730D01*
X112946Y172778D01*
X112996Y172813D01*
X113040Y172857D01*
X113096Y172904D01*
X113642Y173450D01*
X143000D01*
X143068Y173456D01*
X143135D01*
X143204Y173468D01*
X143269Y173474D01*
X143332Y173491D01*
X143401Y173503D01*
X143461Y173525D01*
X143530Y173543D01*
X143593Y173573D01*
X143655Y173595D01*
X143717Y173631D01*
X143775Y173658D01*
X143826Y173694D01*
X143889Y173730D01*
X143946Y173778D01*
X143996Y173813D01*
X144040Y173857D01*
X144096Y173904D01*
X167488Y197296D01*
X168386D01*
X168568Y197312D01*
X168745Y197359D01*
X168911Y197437D01*
X169061Y197542D01*
X169190Y197671D01*
X169295Y197821D01*
X169373Y197987D01*
X169420Y198164D01*
X169436Y198346D01*
Y199000D01*
G37*
G36*
X174390Y209948D02*X174477Y209989D01*
X174500Y210005D01*
X174523Y209989D01*
X174689Y209911D01*
X174866Y209864D01*
X175048Y209848D01*
X179964D01*
Y209142D01*
X179869Y209097D01*
X179719Y208992D01*
X179590Y208863D01*
X179485Y208713D01*
X179407Y208547D01*
X179360Y208370D01*
X179344Y208188D01*
Y198346D01*
X179360Y198164D01*
X179407Y197987D01*
X179485Y197821D01*
X179590Y197671D01*
X179719Y197542D01*
X179869Y197437D01*
X179964Y197392D01*
Y195218D01*
X174390Y189644D01*
Y197296D01*
X176260D01*
X176442Y197312D01*
X176619Y197359D01*
X176785Y197437D01*
X176935Y197542D01*
X177064Y197671D01*
X177169Y197821D01*
X177247Y197987D01*
X177294Y198164D01*
X177310Y198346D01*
Y208188D01*
X177294Y208370D01*
X177247Y208547D01*
X177169Y208713D01*
X177064Y208863D01*
X176935Y208992D01*
X176785Y209097D01*
X176619Y209175D01*
X176442Y209222D01*
X176260Y209238D01*
X174390D01*
Y209948D01*
G37*
G36*
X148000Y215000D02*X152998D01*
Y210898D01*
X153014Y210716D01*
X153061Y210539D01*
X153139Y210373D01*
X153244Y210223D01*
X153373Y210094D01*
X153523Y209989D01*
X153689Y209911D01*
X153866Y209864D01*
X154048Y209848D01*
X159952D01*
X160134Y209864D01*
X160311Y209911D01*
X160477Y209989D01*
X160500Y210005D01*
X160523Y209989D01*
X160689Y209911D01*
X160866Y209864D01*
X161048Y209848D01*
X166952D01*
X167134Y209864D01*
X167311Y209911D01*
X167477Y209989D01*
X167500Y210005D01*
X167523Y209989D01*
X167689Y209911D01*
X167866Y209864D01*
X168048Y209848D01*
X173952D01*
X174134Y209864D01*
X174311Y209911D01*
X174390Y209948D01*
Y209238D01*
X172520D01*
X172338Y209222D01*
X172161Y209175D01*
X171995Y209097D01*
X171845Y208992D01*
X171716Y208863D01*
X171611Y208713D01*
X171533Y208547D01*
X171486Y208370D01*
X171470Y208188D01*
Y198346D01*
X171486Y198164D01*
X171533Y197987D01*
X171611Y197821D01*
X171716Y197671D01*
X171845Y197542D01*
X171995Y197437D01*
X172161Y197359D01*
X172338Y197312D01*
X172520Y197296D01*
X174390D01*
Y189644D01*
X157746Y173000D01*
X148000D01*
Y177808D01*
X167488Y197296D01*
X168386D01*
X168568Y197312D01*
X168745Y197359D01*
X168911Y197437D01*
X169061Y197542D01*
X169190Y197671D01*
X169295Y197821D01*
X169373Y197987D01*
X169420Y198164D01*
X169436Y198346D01*
Y208188D01*
X169420Y208370D01*
X169373Y208547D01*
X169295Y208713D01*
X169190Y208863D01*
X169061Y208992D01*
X168911Y209097D01*
X168745Y209175D01*
X168568Y209222D01*
X168386Y209238D01*
X164646D01*
X164464Y209222D01*
X164287Y209175D01*
X164121Y209097D01*
X163971Y208992D01*
X163842Y208863D01*
X163737Y208713D01*
X163659Y208547D01*
X163612Y208370D01*
X163596Y208188D01*
Y198346D01*
X163612Y198164D01*
X163659Y197987D01*
X163702Y197896D01*
X160164Y194358D01*
X160168Y194373D01*
X160172Y194422D01*
X160187Y194507D01*
Y194586D01*
X160192Y194642D01*
Y197296D01*
X160512D01*
X160694Y197312D01*
X160871Y197359D01*
X161037Y197437D01*
X161187Y197542D01*
X161316Y197671D01*
X161421Y197821D01*
X161499Y197987D01*
X161546Y198164D01*
X161562Y198346D01*
Y208188D01*
X161546Y208370D01*
X161499Y208547D01*
X161421Y208713D01*
X161316Y208863D01*
X161187Y208992D01*
X161037Y209097D01*
X160871Y209175D01*
X160694Y209222D01*
X160512Y209238D01*
X156772D01*
X156590Y209222D01*
X156413Y209175D01*
X156247Y209097D01*
X156097Y208992D01*
X155968Y208863D01*
X155863Y208713D01*
X155785Y208547D01*
X155738Y208370D01*
X155722Y208188D01*
Y198346D01*
X155738Y198164D01*
X155785Y197987D01*
X155863Y197821D01*
X155968Y197671D01*
X156097Y197542D01*
X156247Y197437D01*
X156413Y197359D01*
X156590Y197312D01*
X156772Y197296D01*
X157092D01*
Y195286D01*
X148000Y186194D01*
Y197805D01*
X148094Y197671D01*
X148223Y197542D01*
X148373Y197437D01*
X148539Y197359D01*
X148716Y197312D01*
X148898Y197296D01*
X152638D01*
X152820Y197312D01*
X152997Y197359D01*
X153163Y197437D01*
X153313Y197542D01*
X153442Y197671D01*
X153547Y197821D01*
X153625Y197987D01*
X153672Y198164D01*
X153688Y198346D01*
Y208188D01*
X153672Y208370D01*
X153625Y208547D01*
X153547Y208713D01*
X153442Y208863D01*
X153313Y208992D01*
X153163Y209097D01*
X152997Y209175D01*
X152820Y209222D01*
X152638Y209238D01*
X148898D01*
X148716Y209222D01*
X148539Y209175D01*
X148373Y209097D01*
X148223Y208992D01*
X148094Y208863D01*
X148000Y208729D01*
Y215000D01*
G37*
G36*
X182002Y223000D02*X192000D01*
Y209238D01*
X188268D01*
X188086Y209222D01*
X187909Y209175D01*
X187743Y209097D01*
X187593Y208992D01*
X187464Y208863D01*
X187359Y208713D01*
X187281Y208547D01*
X187234Y208370D01*
X187218Y208188D01*
Y198346D01*
X187234Y198164D01*
X187281Y197987D01*
X187359Y197821D01*
X187464Y197671D01*
X187593Y197542D01*
X187743Y197437D01*
X187909Y197359D01*
X188086Y197312D01*
X188268Y197296D01*
X188588D01*
Y168782D01*
X170806Y151000D01*
X138957D01*
Y151706D01*
X143878D01*
X144060Y151722D01*
X144237Y151769D01*
X144403Y151847D01*
X144553Y151952D01*
X144682Y152081D01*
X144787Y152231D01*
X144865Y152397D01*
X144912Y152574D01*
X144928Y152756D01*
Y156496D01*
X144912Y156678D01*
X144865Y156855D01*
X144787Y157021D01*
X144682Y157171D01*
X144553Y157300D01*
X144403Y157405D01*
X144237Y157483D01*
X144060Y157530D01*
X143878Y157546D01*
X138957D01*
Y159580D01*
X143878D01*
X144060Y159596D01*
X144237Y159643D01*
X144403Y159721D01*
X144553Y159826D01*
X144682Y159955D01*
X144787Y160105D01*
X144865Y160271D01*
X144912Y160448D01*
X144928Y160630D01*
Y164370D01*
X144912Y164552D01*
X144865Y164729D01*
X144787Y164895D01*
X144682Y165045D01*
X144553Y165174D01*
X144403Y165279D01*
X144237Y165357D01*
X144060Y165404D01*
X143878Y165420D01*
X138957D01*
Y167454D01*
X143878D01*
X144060Y167470D01*
X144237Y167517D01*
X144403Y167595D01*
X144553Y167700D01*
X144682Y167829D01*
X144787Y167979D01*
X144832Y168074D01*
X158374D01*
X158477Y168083D01*
X158574D01*
X158671Y168100D01*
X158773Y168109D01*
X158875Y168136D01*
X158969Y168153D01*
X159056Y168185D01*
X159161Y168213D01*
X159257Y168258D01*
X159346Y168290D01*
X159431Y168339D01*
X159524Y168382D01*
X159609Y168441D01*
X159693Y168490D01*
X159767Y168552D01*
X159852Y168612D01*
X159925Y168685D01*
X160000Y168748D01*
X183890Y192638D01*
X183891Y192637D01*
X183965Y192725D01*
X184026Y192786D01*
X184075Y192856D01*
X184149Y192944D01*
X184204Y193040D01*
X184256Y193114D01*
X184296Y193200D01*
X184349Y193292D01*
X184387Y193395D01*
X184425Y193477D01*
X184446Y193557D01*
X184487Y193668D01*
X184507Y193784D01*
X184529Y193865D01*
X184537Y193953D01*
X184556Y194063D01*
Y194173D01*
X184564Y194264D01*
Y197392D01*
X184659Y197437D01*
X184809Y197542D01*
X184938Y197671D01*
X185043Y197821D01*
X185121Y197987D01*
X185168Y198164D01*
X185184Y198346D01*
Y208188D01*
X185168Y208370D01*
X185121Y208547D01*
X185043Y208713D01*
X184938Y208863D01*
X184809Y208992D01*
X184659Y209097D01*
X184564Y209142D01*
Y209988D01*
X185000Y209950D01*
X185703Y210012D01*
X186385Y210194D01*
X187025Y210493D01*
X187603Y210898D01*
X188102Y211397D01*
X188507Y211975D01*
X188806Y212615D01*
X188988Y213297D01*
X189050Y214000D01*
X188988Y214703D01*
X188806Y215385D01*
X188507Y216025D01*
X188102Y216603D01*
X187603Y217102D01*
X187025Y217507D01*
X186385Y217806D01*
X185703Y217988D01*
X185000Y218050D01*
X184297Y217988D01*
X183615Y217806D01*
X182975Y217507D01*
X182397Y217102D01*
X181898Y216603D01*
X181858Y216546D01*
X181756Y216691D01*
X181627Y216820D01*
X181477Y216925D01*
X181317Y217000D01*
X181477Y217075D01*
X181627Y217180D01*
X181756Y217309D01*
X181861Y217459D01*
X181939Y217625D01*
X181986Y217802D01*
X182002Y217984D01*
Y223000D01*
G37*
G36*
X138957Y151000D02*X125550D01*
Y157620D01*
X125832Y157817D01*
X126183Y158168D01*
X126468Y158575D01*
X126678Y159025D01*
X126807Y159505D01*
X126850Y160000D01*
X126807Y160495D01*
X126678Y160975D01*
X126468Y161425D01*
X126183Y161832D01*
X125832Y162183D01*
X125425Y162468D01*
X124975Y162678D01*
X124495Y162807D01*
X124000Y162850D01*
X123505Y162807D01*
X123025Y162678D01*
X122734Y162542D01*
X123410Y163218D01*
X123505Y163193D01*
X124000Y163150D01*
X124495Y163193D01*
X124975Y163322D01*
X125425Y163532D01*
X125832Y163817D01*
X126183Y164168D01*
X126468Y164575D01*
X126678Y165025D01*
X126807Y165505D01*
X126850Y166000D01*
X126807Y166495D01*
X126678Y166975D01*
X126468Y167425D01*
X126183Y167832D01*
X125941Y168074D01*
X133082D01*
X133127Y167979D01*
X133232Y167829D01*
X133361Y167700D01*
X133511Y167595D01*
X133677Y167517D01*
X133854Y167470D01*
X134036Y167454D01*
X138957D01*
Y165420D01*
X134036D01*
X133854Y165404D01*
X133677Y165357D01*
X133511Y165279D01*
X133361Y165174D01*
X133232Y165045D01*
X133127Y164895D01*
X133049Y164729D01*
X133002Y164552D01*
X132986Y164370D01*
Y160630D01*
X133002Y160448D01*
X133049Y160271D01*
X133127Y160105D01*
X133232Y159955D01*
X133361Y159826D01*
X133511Y159721D01*
X133677Y159643D01*
X133854Y159596D01*
X134036Y159580D01*
X138957D01*
Y157546D01*
X134036D01*
X133854Y157530D01*
X133677Y157483D01*
X133511Y157405D01*
X133361Y157300D01*
X133232Y157171D01*
X133127Y157021D01*
X133049Y156855D01*
X133002Y156678D01*
X132986Y156496D01*
Y152756D01*
X133002Y152574D01*
X133049Y152397D01*
X133127Y152231D01*
X133232Y152081D01*
X133361Y151952D01*
X133511Y151847D01*
X133677Y151769D01*
X133854Y151722D01*
X134036Y151706D01*
X138957D01*
Y151000D01*
G37*
G36*
Y140942D02*X139183Y141168D01*
X139468Y141575D01*
X139678Y142025D01*
X139807Y142505D01*
X139850Y143000D01*
X139807Y143495D01*
X139678Y143975D01*
X139468Y144425D01*
X139183Y144832D01*
X138957Y145058D01*
Y151706D01*
X143878D01*
X144060Y151722D01*
X144237Y151769D01*
X144403Y151847D01*
X144553Y151952D01*
X144682Y152081D01*
X144787Y152231D01*
X144865Y152397D01*
X144912Y152574D01*
X144928Y152756D01*
Y156496D01*
X144912Y156678D01*
X144865Y156855D01*
X144787Y157021D01*
X144682Y157171D01*
X144553Y157300D01*
X144403Y157405D01*
X144237Y157483D01*
X144060Y157530D01*
X143878Y157546D01*
X138957D01*
Y159580D01*
X143878D01*
X144060Y159596D01*
X144237Y159643D01*
X144403Y159721D01*
X144553Y159826D01*
X144682Y159955D01*
X144787Y160105D01*
X144865Y160271D01*
X144912Y160448D01*
X144928Y160630D01*
Y164370D01*
X144912Y164552D01*
X144865Y164729D01*
X144787Y164895D01*
X144682Y165045D01*
X144553Y165174D01*
X144403Y165279D01*
X144237Y165357D01*
X144060Y165404D01*
X143878Y165420D01*
X138957D01*
Y167454D01*
X143878D01*
X144060Y167470D01*
X144237Y167517D01*
X144403Y167595D01*
X144553Y167700D01*
X144682Y167829D01*
X144787Y167979D01*
X144832Y168074D01*
X158374D01*
X158477Y168083D01*
X158574D01*
X158671Y168100D01*
X158773Y168109D01*
X158875Y168136D01*
X158969Y168153D01*
X159056Y168185D01*
X159161Y168213D01*
X159257Y168258D01*
X159346Y168290D01*
X159431Y168339D01*
X159524Y168382D01*
X159609Y168441D01*
X159693Y168490D01*
X159767Y168552D01*
X159852Y168612D01*
X159925Y168685D01*
X160000Y168748D01*
X183252Y192000D01*
X188588D01*
Y168782D01*
X152635Y132829D01*
X138957D01*
Y140942D01*
G37*
G36*
Y145058D02*X138832Y145183D01*
X138425Y145468D01*
X137975Y145678D01*
X137495Y145807D01*
X137000Y145850D01*
X136505Y145807D01*
X136025Y145678D01*
X135575Y145468D01*
X135168Y145183D01*
X134817Y144832D01*
X134620Y144550D01*
X130000D01*
X129945Y144545D01*
X129865D01*
X129780Y144530D01*
X129731Y144526D01*
X129684Y144514D01*
X129598Y144499D01*
X129518Y144470D01*
X129470Y144457D01*
X129425Y144436D01*
X129344Y144406D01*
X129268Y144362D01*
X129225Y144342D01*
X129187Y144315D01*
X129110Y144271D01*
X129041Y144213D01*
X129004Y144187D01*
X128972Y144155D01*
X128903Y144097D01*
X124741Y139935D01*
X124742Y139934D01*
X124695Y139878D01*
X124651Y139834D01*
X124616Y139784D01*
X124611Y139778D01*
X124585Y139766D01*
X124558Y139747D01*
X124550Y139753D01*
Y140358D01*
X125096Y140904D01*
X125097Y140903D01*
X125155Y140972D01*
X125187Y141004D01*
X125213Y141041D01*
X125271Y141110D01*
X125315Y141187D01*
X125342Y141225D01*
X125362Y141268D01*
X125406Y141344D01*
X125436Y141425D01*
X125457Y141470D01*
X125470Y141518D01*
X125499Y141598D01*
X125514Y141684D01*
X125526Y141731D01*
X125530Y141780D01*
X125545Y141865D01*
Y141945D01*
X125550Y142000D01*
Y157620D01*
X125832Y157817D01*
X126183Y158168D01*
X126468Y158575D01*
X126678Y159025D01*
X126807Y159505D01*
X126850Y160000D01*
X126807Y160495D01*
X126678Y160975D01*
X126468Y161425D01*
X126183Y161832D01*
X125832Y162183D01*
X125425Y162468D01*
X124975Y162678D01*
X124495Y162807D01*
X124000Y162850D01*
X123505Y162807D01*
X123025Y162678D01*
X122734Y162542D01*
X123410Y163218D01*
X123505Y163193D01*
X124000Y163150D01*
X124495Y163193D01*
X124975Y163322D01*
X125425Y163532D01*
X125832Y163817D01*
X126183Y164168D01*
X126468Y164575D01*
X126678Y165025D01*
X126807Y165505D01*
X126850Y166000D01*
X126807Y166495D01*
X126678Y166975D01*
X126468Y167425D01*
X126183Y167832D01*
X125941Y168074D01*
X133082D01*
X133127Y167979D01*
X133232Y167829D01*
X133361Y167700D01*
X133511Y167595D01*
X133677Y167517D01*
X133854Y167470D01*
X134036Y167454D01*
X138957D01*
Y165420D01*
X134036D01*
X133854Y165404D01*
X133677Y165357D01*
X133511Y165279D01*
X133361Y165174D01*
X133232Y165045D01*
X133127Y164895D01*
X133049Y164729D01*
X133002Y164552D01*
X132986Y164370D01*
Y160630D01*
X133002Y160448D01*
X133049Y160271D01*
X133127Y160105D01*
X133232Y159955D01*
X133361Y159826D01*
X133511Y159721D01*
X133677Y159643D01*
X133854Y159596D01*
X134036Y159580D01*
X138957D01*
Y157546D01*
X134036D01*
X133854Y157530D01*
X133677Y157483D01*
X133511Y157405D01*
X133361Y157300D01*
X133232Y157171D01*
X133127Y157021D01*
X133049Y156855D01*
X133002Y156678D01*
X132986Y156496D01*
Y152756D01*
X133002Y152574D01*
X133049Y152397D01*
X133127Y152231D01*
X133232Y152081D01*
X133361Y151952D01*
X133511Y151847D01*
X133677Y151769D01*
X133854Y151722D01*
X134036Y151706D01*
X138957D01*
Y145058D01*
G37*
G36*
X127616Y135616D02*Y138424D01*
X130642Y141450D01*
X134620D01*
X134817Y141168D01*
X135168Y140817D01*
X135575Y140532D01*
X136025Y140322D01*
X136505Y140193D01*
X137000Y140150D01*
X137495Y140193D01*
X137975Y140322D01*
X138425Y140532D01*
X138832Y140817D01*
X138957Y140942D01*
Y132829D01*
X131865D01*
X131891Y132928D01*
X131907Y133110D01*
Y133424D01*
X132096Y133613D01*
X132097Y133612D01*
X132155Y133681D01*
X132187Y133713D01*
X132213Y133750D01*
X132271Y133819D01*
X132316Y133897D01*
X132342Y133934D01*
X132362Y133977D01*
X132406Y134053D01*
X132435Y134132D01*
X132457Y134179D01*
X132469Y134226D01*
X132499Y134307D01*
X132514Y134396D01*
X132526Y134440D01*
X132530Y134489D01*
X132545Y134574D01*
Y134617D01*
X132832Y134817D01*
X133183Y135168D01*
X133468Y135575D01*
X133678Y136025D01*
X133807Y136505D01*
X133850Y137000D01*
X133807Y137495D01*
X133678Y137975D01*
X133468Y138425D01*
X133183Y138832D01*
X132832Y139183D01*
X132425Y139468D01*
X131975Y139678D01*
X131495Y139807D01*
X131000Y139850D01*
X130505Y139807D01*
X130025Y139678D01*
X129575Y139468D01*
X129168Y139183D01*
X128817Y138832D01*
X128532Y138425D01*
X128322Y137975D01*
X128193Y137495D01*
X128150Y137000D01*
X128193Y136505D01*
X128322Y136025D01*
X128513Y135616D01*
X127616D01*
G37*
G36*
X103000Y172000D02*X105985D01*
X106168Y171817D01*
X106575Y171532D01*
X107025Y171322D01*
X107505Y171193D01*
X108000Y171150D01*
X108495Y171193D01*
X108975Y171322D01*
X109425Y171532D01*
X109832Y171817D01*
X110015Y172000D01*
X114746D01*
X111373Y168627D01*
X111374Y168626D01*
X111311Y168551D01*
X111238Y168478D01*
X111179Y168394D01*
X111116Y168319D01*
X111067Y168234D01*
X111008Y168150D01*
X110963Y168054D01*
X110916Y167972D01*
X110884Y167885D01*
X110839Y167787D01*
X110812Y167685D01*
X110779Y167595D01*
X110762Y167500D01*
X110735Y167399D01*
X110726Y167295D01*
X110709Y167200D01*
Y167102D01*
X110700Y167000D01*
Y140740D01*
X106569Y136609D01*
X103655D01*
X103473Y136593D01*
X103296Y136546D01*
X103130Y136468D01*
X103000Y136377D01*
Y141295D01*
X103397Y140898D01*
X103975Y140493D01*
X104615Y140194D01*
X105297Y140012D01*
X106000Y139950D01*
X106703Y140012D01*
X107385Y140194D01*
X108025Y140493D01*
X108603Y140898D01*
X109102Y141397D01*
X109507Y141975D01*
X109806Y142615D01*
X109988Y143297D01*
X110050Y144000D01*
X109988Y144703D01*
X109806Y145385D01*
X109507Y146025D01*
X109102Y146603D01*
X108603Y147102D01*
X108025Y147507D01*
X107385Y147806D01*
X106703Y147988D01*
X106000Y148050D01*
X105297Y147988D01*
X104615Y147806D01*
X103975Y147507D01*
X103397Y147102D01*
X103000Y146705D01*
Y151295D01*
X103397Y150898D01*
X103975Y150493D01*
X104615Y150194D01*
X105297Y150012D01*
X106000Y149950D01*
X106703Y150012D01*
X107385Y150194D01*
X108025Y150493D01*
X108603Y150898D01*
X109102Y151397D01*
X109507Y151975D01*
X109806Y152615D01*
X109988Y153297D01*
X110050Y154000D01*
X109988Y154703D01*
X109806Y155385D01*
X109507Y156025D01*
X109102Y156603D01*
X108603Y157102D01*
X108025Y157507D01*
X107385Y157806D01*
X106703Y157988D01*
X106000Y158050D01*
X105297Y157988D01*
X104615Y157806D01*
X103975Y157507D01*
X103397Y157102D01*
X103000Y156705D01*
Y159950D01*
X109000D01*
X109182Y159966D01*
X109359Y160013D01*
X109525Y160091D01*
X109675Y160196D01*
X109804Y160325D01*
X109909Y160475D01*
X109987Y160641D01*
X110034Y160818D01*
X110050Y161000D01*
Y167000D01*
X110034Y167182D01*
X109987Y167359D01*
X109909Y167525D01*
X109804Y167675D01*
X109675Y167804D01*
X109525Y167909D01*
X109359Y167987D01*
X109182Y168034D01*
X109000Y168050D01*
X103000D01*
Y172000D01*
G37*
G36*
X188450Y115762D02*Y113644D01*
X183786Y108980D01*
X183790Y108996D01*
X183794Y109043D01*
X183809Y109130D01*
Y109209D01*
X183814Y109265D01*
Y115762D01*
X184134D01*
X184316Y115778D01*
X184493Y115825D01*
X184659Y115903D01*
X184809Y116008D01*
X184938Y116137D01*
X185043Y116287D01*
X185121Y116453D01*
X185168Y116630D01*
X185184Y116812D01*
Y126654D01*
X185168Y126836D01*
X185121Y127013D01*
X185043Y127179D01*
X184938Y127329D01*
X184809Y127458D01*
X184659Y127563D01*
X184493Y127641D01*
X184316Y127688D01*
X184134Y127704D01*
X180394D01*
X180212Y127688D01*
X180035Y127641D01*
X179869Y127563D01*
X179719Y127458D01*
X179590Y127329D01*
X179485Y127179D01*
X179407Y127013D01*
X179360Y126836D01*
X179344Y126654D01*
Y116812D01*
X179360Y116630D01*
X179407Y116453D01*
X179485Y116287D01*
X179590Y116137D01*
X179719Y116008D01*
X179869Y115903D01*
X180035Y115825D01*
X180212Y115778D01*
X180394Y115762D01*
X180714D01*
Y109909D01*
X180356Y109551D01*
X174390D01*
Y115762D01*
X176260D01*
X176442Y115778D01*
X176619Y115825D01*
X176785Y115903D01*
X176935Y116008D01*
X177064Y116137D01*
X177169Y116287D01*
X177247Y116453D01*
X177294Y116630D01*
X177310Y116812D01*
Y126654D01*
X177294Y126836D01*
X177247Y127013D01*
X177169Y127179D01*
X177064Y127329D01*
X176935Y127458D01*
X176785Y127563D01*
X176619Y127641D01*
X176442Y127688D01*
X176260Y127704D01*
X174390D01*
Y150198D01*
X191192Y167000D01*
X192000D01*
Y127704D01*
X188268D01*
X188086Y127688D01*
X187909Y127641D01*
X187743Y127563D01*
X187593Y127458D01*
X187464Y127329D01*
X187359Y127179D01*
X187281Y127013D01*
X187234Y126836D01*
X187218Y126654D01*
Y116812D01*
X187234Y116630D01*
X187281Y116453D01*
X187359Y116287D01*
X187464Y116137D01*
X187593Y116008D01*
X187743Y115903D01*
X187909Y115825D01*
X188086Y115778D01*
X188268Y115762D01*
X188450D01*
G37*
G36*
X174390Y109551D02*X166516D01*
Y115762D01*
X168386D01*
X168568Y115778D01*
X168745Y115825D01*
X168911Y115903D01*
X169061Y116008D01*
X169190Y116137D01*
X169295Y116287D01*
X169373Y116453D01*
X169420Y116630D01*
X169436Y116812D01*
Y126654D01*
X169420Y126836D01*
X169373Y127013D01*
X169295Y127179D01*
X169190Y127329D01*
X169061Y127458D01*
X168911Y127563D01*
X168745Y127641D01*
X168568Y127688D01*
X168386Y127704D01*
X166516D01*
Y142324D01*
X174390Y150198D01*
Y127704D01*
X172520D01*
X172338Y127688D01*
X172161Y127641D01*
X171995Y127563D01*
X171845Y127458D01*
X171716Y127329D01*
X171611Y127179D01*
X171533Y127013D01*
X171486Y126836D01*
X171470Y126654D01*
Y116812D01*
X171486Y116630D01*
X171533Y116453D01*
X171611Y116287D01*
X171716Y116137D01*
X171845Y116008D01*
X171995Y115903D01*
X172161Y115825D01*
X172338Y115778D01*
X172520Y115762D01*
X174390D01*
Y109551D01*
G37*
G36*
X166516D02*X158642D01*
Y115762D01*
X160512D01*
X160694Y115778D01*
X160871Y115825D01*
X161037Y115903D01*
X161187Y116008D01*
X161316Y116137D01*
X161421Y116287D01*
X161499Y116453D01*
X161546Y116630D01*
X161562Y116812D01*
Y126654D01*
X161546Y126836D01*
X161499Y127013D01*
X161421Y127179D01*
X161316Y127329D01*
X161187Y127458D01*
X161037Y127563D01*
X160871Y127641D01*
X160694Y127688D01*
X160512Y127704D01*
X158642D01*
Y134450D01*
X166516Y142324D01*
Y127704D01*
X164646D01*
X164464Y127688D01*
X164287Y127641D01*
X164121Y127563D01*
X163971Y127458D01*
X163842Y127329D01*
X163737Y127179D01*
X163659Y127013D01*
X163612Y126836D01*
X163596Y126654D01*
Y116812D01*
X163612Y116630D01*
X163659Y116453D01*
X163737Y116287D01*
X163842Y116137D01*
X163971Y116008D01*
X164121Y115903D01*
X164287Y115825D01*
X164464Y115778D01*
X164646Y115762D01*
X166516D01*
Y109551D01*
G37*
G36*
X158642D02*X150768D01*
Y115762D01*
X152638D01*
X152820Y115778D01*
X152997Y115825D01*
X153163Y115903D01*
X153313Y116008D01*
X153442Y116137D01*
X153547Y116287D01*
X153625Y116453D01*
X153672Y116630D01*
X153688Y116812D01*
Y126654D01*
X153672Y126836D01*
X153625Y127013D01*
X153547Y127179D01*
X153442Y127329D01*
X153313Y127458D01*
X153163Y127563D01*
X152997Y127641D01*
X152820Y127688D01*
X152638Y127704D01*
X150768D01*
Y129729D01*
X153279D01*
X153346Y129735D01*
X153414D01*
X153484Y129747D01*
X153548Y129753D01*
X153613Y129770D01*
X153680Y129782D01*
X153740Y129804D01*
X153809Y129822D01*
X153871Y129851D01*
X153934Y129874D01*
X153996Y129910D01*
X154054Y129937D01*
X154104Y129972D01*
X154168Y130009D01*
X154225Y130057D01*
X154275Y130092D01*
X154319Y130136D01*
X154375Y130183D01*
X158642Y134450D01*
Y127704D01*
X156772D01*
X156590Y127688D01*
X156413Y127641D01*
X156247Y127563D01*
X156097Y127458D01*
X155968Y127329D01*
X155863Y127179D01*
X155785Y127013D01*
X155738Y126836D01*
X155722Y126654D01*
Y116812D01*
X155738Y116630D01*
X155785Y116453D01*
X155863Y116287D01*
X155968Y116137D01*
X156097Y116008D01*
X156247Y115903D01*
X156413Y115825D01*
X156590Y115778D01*
X156772Y115762D01*
X158642D01*
Y109551D01*
G37*
G36*
X150768D02*X145379D01*
Y111001D01*
X145374Y111058D01*
Y111137D01*
X145360Y111219D01*
X145355Y111270D01*
X145342Y111318D01*
X145327Y111403D01*
X145301Y111473D01*
X145286Y111531D01*
X145259Y111589D01*
X145234Y111657D01*
X145196Y111723D01*
X145171Y111776D01*
X145139Y111821D01*
X145099Y111891D01*
X145047Y111953D01*
X145016Y111997D01*
X144978Y112035D01*
X144925Y112098D01*
X141261Y115762D01*
X144764D01*
X144946Y115778D01*
X145123Y115825D01*
X145289Y115903D01*
X145439Y116008D01*
X145568Y116137D01*
X145673Y116287D01*
X145751Y116453D01*
X145798Y116630D01*
X145814Y116812D01*
Y126654D01*
X145798Y126836D01*
X145751Y127013D01*
X145673Y127179D01*
X145568Y127329D01*
X145439Y127458D01*
X145289Y127563D01*
X145123Y127641D01*
X144946Y127688D01*
X144764Y127704D01*
X142167D01*
X141775Y128096D01*
X141712Y128149D01*
X141674Y128187D01*
X141630Y128218D01*
X141568Y128270D01*
X141498Y128310D01*
X141453Y128342D01*
X141400Y128367D01*
X141334Y128405D01*
X141266Y128430D01*
X141208Y128457D01*
X141150Y128472D01*
X141080Y128498D01*
X140995Y128513D01*
X140947Y128526D01*
X140896Y128531D01*
X140814Y128545D01*
X140735D01*
X140678Y128550D01*
X139380D01*
X139183Y128832D01*
X138832Y129183D01*
X138425Y129468D01*
X137975Y129678D01*
X137785Y129729D01*
X150768D01*
Y127704D01*
X148898D01*
X148716Y127688D01*
X148539Y127641D01*
X148373Y127563D01*
X148223Y127458D01*
X148094Y127329D01*
X147989Y127179D01*
X147911Y127013D01*
X147864Y126836D01*
X147848Y126654D01*
Y116812D01*
X147864Y116630D01*
X147911Y116453D01*
X147989Y116287D01*
X148094Y116137D01*
X148223Y116008D01*
X148373Y115903D01*
X148539Y115825D01*
X148716Y115778D01*
X148898Y115762D01*
X150768D01*
Y109551D01*
G37*
G36*
X188588Y197296D02*Y168782D01*
X152635Y132829D01*
X138957D01*
Y140942D01*
X139183Y141168D01*
X139468Y141575D01*
X139678Y142025D01*
X139807Y142505D01*
X139850Y143000D01*
X139807Y143495D01*
X139678Y143975D01*
X139468Y144425D01*
X139183Y144832D01*
X138957Y145058D01*
Y151706D01*
X143878D01*
X144060Y151722D01*
X144237Y151769D01*
X144403Y151847D01*
X144553Y151952D01*
X144682Y152081D01*
X144787Y152231D01*
X144865Y152397D01*
X144912Y152574D01*
X144928Y152756D01*
Y156496D01*
X144912Y156678D01*
X144865Y156855D01*
X144787Y157021D01*
X144682Y157171D01*
X144553Y157300D01*
X144403Y157405D01*
X144237Y157483D01*
X144060Y157530D01*
X143878Y157546D01*
X138957D01*
Y159580D01*
X143878D01*
X144060Y159596D01*
X144237Y159643D01*
X144403Y159721D01*
X144553Y159826D01*
X144682Y159955D01*
X144787Y160105D01*
X144865Y160271D01*
X144912Y160448D01*
X144928Y160630D01*
Y164370D01*
X144912Y164552D01*
X144865Y164729D01*
X144787Y164895D01*
X144682Y165045D01*
X144553Y165174D01*
X144403Y165279D01*
X144237Y165357D01*
X144060Y165404D01*
X143878Y165420D01*
X138957D01*
Y167454D01*
X143878D01*
X144060Y167470D01*
X144237Y167517D01*
X144403Y167595D01*
X144553Y167700D01*
X144682Y167829D01*
X144787Y167979D01*
X144832Y168074D01*
X158374D01*
X158477Y168083D01*
X158574D01*
X158671Y168100D01*
X158773Y168109D01*
X158875Y168136D01*
X158969Y168153D01*
X159056Y168185D01*
X159161Y168213D01*
X159257Y168258D01*
X159346Y168290D01*
X159431Y168339D01*
X159524Y168382D01*
X159609Y168441D01*
X159693Y168490D01*
X159767Y168552D01*
X159852Y168612D01*
X159925Y168685D01*
X160000Y168748D01*
X183890Y192638D01*
X183891Y192637D01*
X183965Y192725D01*
X184026Y192786D01*
X184075Y192856D01*
X184149Y192944D01*
X184204Y193040D01*
X184256Y193114D01*
X184296Y193200D01*
X184349Y193292D01*
X184387Y193395D01*
X184425Y193477D01*
X184446Y193557D01*
X184487Y193668D01*
X184507Y193784D01*
X184529Y193865D01*
X184537Y193953D01*
X184556Y194063D01*
Y194173D01*
X184564Y194264D01*
Y197392D01*
X184659Y197437D01*
X184809Y197542D01*
X184938Y197671D01*
X185043Y197821D01*
X185121Y197987D01*
X185168Y198164D01*
X185184Y198346D01*
Y208188D01*
X185168Y208370D01*
X185121Y208547D01*
X185043Y208713D01*
X184938Y208863D01*
X184809Y208992D01*
X184659Y209097D01*
X184564Y209142D01*
Y209988D01*
X185000Y209950D01*
X185703Y210012D01*
X186385Y210194D01*
X187025Y210493D01*
X187603Y210898D01*
X188102Y211397D01*
X188507Y211975D01*
X188806Y212615D01*
X188988Y213297D01*
X189050Y214000D01*
X188988Y214703D01*
X188806Y215385D01*
X188507Y216025D01*
X188102Y216603D01*
X187603Y217102D01*
X187025Y217507D01*
X186385Y217806D01*
X185703Y217988D01*
X185000Y218050D01*
X184297Y217988D01*
X183615Y217806D01*
X182975Y217507D01*
X182397Y217102D01*
X181898Y216603D01*
X181858Y216546D01*
X181756Y216691D01*
X181627Y216820D01*
X181477Y216925D01*
X181317Y217000D01*
X181477Y217075D01*
X181627Y217180D01*
X181756Y217309D01*
X181861Y217459D01*
X181939Y217625D01*
X181986Y217802D01*
X182002Y217984D01*
Y223000D01*
X192000D01*
Y209238D01*
X188268D01*
X188086Y209222D01*
X187909Y209175D01*
X187743Y209097D01*
X187593Y208992D01*
X187464Y208863D01*
X187359Y208713D01*
X187281Y208547D01*
X187234Y208370D01*
X187218Y208188D01*
Y198346D01*
X187234Y198164D01*
X187281Y197987D01*
X187359Y197821D01*
X187464Y197671D01*
X187593Y197542D01*
X187743Y197437D01*
X187909Y197359D01*
X188086Y197312D01*
X188268Y197296D01*
X188588D01*
G37*
G36*
X138957Y145058D02*X138832Y145183D01*
X138425Y145468D01*
X137975Y145678D01*
X137495Y145807D01*
X137000Y145850D01*
X136505Y145807D01*
X136025Y145678D01*
X135575Y145468D01*
X135168Y145183D01*
X134817Y144832D01*
X134620Y144550D01*
X130000D01*
X129945Y144545D01*
X129865D01*
X129780Y144530D01*
X129731Y144526D01*
X129684Y144514D01*
X129598Y144499D01*
X129518Y144470D01*
X129470Y144457D01*
X129425Y144436D01*
X129344Y144406D01*
X129268Y144362D01*
X129225Y144342D01*
X129187Y144315D01*
X129110Y144271D01*
X129041Y144213D01*
X129004Y144187D01*
X128972Y144155D01*
X128903Y144097D01*
X124741Y139935D01*
X124742Y139934D01*
X124695Y139878D01*
X124651Y139834D01*
X124616Y139784D01*
X124611Y139778D01*
X124585Y139766D01*
X124558Y139747D01*
X124550Y139753D01*
Y140358D01*
X125096Y140904D01*
X125097Y140903D01*
X125155Y140972D01*
X125187Y141004D01*
X125213Y141041D01*
X125271Y141110D01*
X125315Y141187D01*
X125342Y141225D01*
X125362Y141268D01*
X125406Y141344D01*
X125436Y141425D01*
X125457Y141470D01*
X125470Y141518D01*
X125499Y141598D01*
X125514Y141684D01*
X125526Y141731D01*
X125530Y141780D01*
X125545Y141865D01*
Y141945D01*
X125550Y142000D01*
Y157620D01*
X125832Y157817D01*
X126183Y158168D01*
X126468Y158575D01*
X126678Y159025D01*
X126807Y159505D01*
X126850Y160000D01*
X126807Y160495D01*
X126678Y160975D01*
X126468Y161425D01*
X126183Y161832D01*
X125832Y162183D01*
X125425Y162468D01*
X124975Y162678D01*
X124495Y162807D01*
X124000Y162850D01*
X123505Y162807D01*
X123025Y162678D01*
X122734Y162542D01*
X123410Y163218D01*
X123505Y163193D01*
X124000Y163150D01*
X124495Y163193D01*
X124975Y163322D01*
X125425Y163532D01*
X125832Y163817D01*
X126183Y164168D01*
X126468Y164575D01*
X126678Y165025D01*
X126807Y165505D01*
X126850Y166000D01*
X126807Y166495D01*
X126678Y166975D01*
X126468Y167425D01*
X126183Y167832D01*
X125941Y168074D01*
X133082D01*
X133127Y167979D01*
X133232Y167829D01*
X133361Y167700D01*
X133511Y167595D01*
X133677Y167517D01*
X133854Y167470D01*
X134036Y167454D01*
X138957D01*
Y165420D01*
X134036D01*
X133854Y165404D01*
X133677Y165357D01*
X133511Y165279D01*
X133361Y165174D01*
X133232Y165045D01*
X133127Y164895D01*
X133049Y164729D01*
X133002Y164552D01*
X132986Y164370D01*
Y160630D01*
X133002Y160448D01*
X133049Y160271D01*
X133127Y160105D01*
X133232Y159955D01*
X133361Y159826D01*
X133511Y159721D01*
X133677Y159643D01*
X133854Y159596D01*
X134036Y159580D01*
X138957D01*
Y157546D01*
X134036D01*
X133854Y157530D01*
X133677Y157483D01*
X133511Y157405D01*
X133361Y157300D01*
X133232Y157171D01*
X133127Y157021D01*
X133049Y156855D01*
X133002Y156678D01*
X132986Y156496D01*
Y152756D01*
X133002Y152574D01*
X133049Y152397D01*
X133127Y152231D01*
X133232Y152081D01*
X133361Y151952D01*
X133511Y151847D01*
X133677Y151769D01*
X133854Y151722D01*
X134036Y151706D01*
X138957D01*
Y145058D01*
G37*
G36*
Y132829D02*X131865D01*
X131891Y132928D01*
X131907Y133110D01*
Y133424D01*
X132096Y133613D01*
X132097Y133612D01*
X132155Y133681D01*
X132187Y133713D01*
X132213Y133750D01*
X132271Y133819D01*
X132316Y133897D01*
X132342Y133934D01*
X132362Y133977D01*
X132406Y134053D01*
X132435Y134132D01*
X132457Y134179D01*
X132469Y134226D01*
X132499Y134307D01*
X132514Y134396D01*
X132526Y134440D01*
X132530Y134489D01*
X132545Y134574D01*
Y134617D01*
X132832Y134817D01*
X133183Y135168D01*
X133468Y135575D01*
X133678Y136025D01*
X133807Y136505D01*
X133850Y137000D01*
X133807Y137495D01*
X133678Y137975D01*
X133468Y138425D01*
X133183Y138832D01*
X132832Y139183D01*
X132425Y139468D01*
X131975Y139678D01*
X131495Y139807D01*
X131000Y139850D01*
X130505Y139807D01*
X130025Y139678D01*
X129575Y139468D01*
X129168Y139183D01*
X128817Y138832D01*
X128532Y138425D01*
X128322Y137975D01*
X128193Y137495D01*
X128150Y137000D01*
X128193Y136505D01*
X128322Y136025D01*
X128513Y135616D01*
X127616D01*
Y138424D01*
X130642Y141450D01*
X134620D01*
X134817Y141168D01*
X135168Y140817D01*
X135575Y140532D01*
X136025Y140322D01*
X136505Y140193D01*
X137000Y140150D01*
X137495Y140193D01*
X137975Y140322D01*
X138425Y140532D01*
X138832Y140817D01*
X138957Y140942D01*
Y132829D01*
G37*
G36*
X157735Y137929D02*X142221Y151706D01*
X143878D01*
X144060Y151722D01*
X144237Y151769D01*
X144403Y151847D01*
X144553Y151952D01*
X144682Y152081D01*
X144787Y152231D01*
X144865Y152397D01*
X144912Y152574D01*
X144928Y152756D01*
Y156496D01*
X144912Y156678D01*
X144865Y156855D01*
X144787Y157021D01*
X144682Y157171D01*
X144553Y157300D01*
X144403Y157405D01*
X144237Y157483D01*
X144060Y157530D01*
X143878Y157546D01*
X138957D01*
Y159580D01*
X143878D01*
X144060Y159596D01*
X144237Y159643D01*
X144403Y159721D01*
X144553Y159826D01*
X144682Y159955D01*
X144787Y160105D01*
X144865Y160271D01*
X144912Y160448D01*
X144928Y160630D01*
Y164370D01*
X144912Y164552D01*
X144865Y164729D01*
X144787Y164895D01*
X144682Y165045D01*
X144553Y165174D01*
X144403Y165279D01*
X144237Y165357D01*
X144060Y165404D01*
X143878Y165420D01*
X138957D01*
Y167000D01*
X186806D01*
X157735Y137929D01*
G37*
G36*
X138957Y157546D02*X135645D01*
X126783Y165416D01*
X126807Y165505D01*
X126850Y166000D01*
X126807Y166495D01*
X126678Y166975D01*
X126666Y167000D01*
X138957D01*
Y165420D01*
X134036D01*
X133854Y165404D01*
X133677Y165357D01*
X133511Y165279D01*
X133361Y165174D01*
X133232Y165045D01*
X133127Y164895D01*
X133049Y164729D01*
X133002Y164552D01*
X132986Y164370D01*
Y160630D01*
X133002Y160448D01*
X133049Y160271D01*
X133127Y160105D01*
X133232Y159955D01*
X133361Y159826D01*
X133511Y159721D01*
X133677Y159643D01*
X133854Y159596D01*
X134036Y159580D01*
X138957D01*
Y157546D01*
G37*
G36*
X188450Y115762D02*Y113644D01*
X183786Y108980D01*
X183790Y108996D01*
X183794Y109043D01*
X183809Y109130D01*
Y109209D01*
X183814Y109265D01*
Y115762D01*
X184134D01*
X184316Y115778D01*
X184493Y115825D01*
X184659Y115903D01*
X184809Y116008D01*
X184938Y116137D01*
X185043Y116287D01*
X185121Y116453D01*
X185168Y116630D01*
X185184Y116812D01*
Y126654D01*
X185168Y126836D01*
X185121Y127013D01*
X185043Y127179D01*
X184938Y127329D01*
X184809Y127458D01*
X184659Y127563D01*
X184493Y127641D01*
X184316Y127688D01*
X184134Y127704D01*
X180394D01*
X180212Y127688D01*
X180035Y127641D01*
X179869Y127563D01*
X179719Y127458D01*
X179590Y127329D01*
X179485Y127179D01*
X179407Y127013D01*
X179360Y126836D01*
X179344Y126654D01*
Y116812D01*
X179360Y116630D01*
X179407Y116453D01*
X179485Y116287D01*
X179590Y116137D01*
X179719Y116008D01*
X179869Y115903D01*
X180035Y115825D01*
X180212Y115778D01*
X180394Y115762D01*
X180714D01*
Y109909D01*
X180356Y109551D01*
X174390D01*
Y115762D01*
X176260D01*
X176442Y115778D01*
X176619Y115825D01*
X176785Y115903D01*
X176935Y116008D01*
X177064Y116137D01*
X177169Y116287D01*
X177247Y116453D01*
X177294Y116630D01*
X177310Y116812D01*
Y126654D01*
X177294Y126836D01*
X177247Y127013D01*
X177169Y127179D01*
X177064Y127329D01*
X176935Y127458D01*
X176785Y127563D01*
X176619Y127641D01*
X176442Y127688D01*
X176260Y127704D01*
X174390D01*
Y130000D01*
X192000D01*
Y127704D01*
X188268D01*
X188086Y127688D01*
X187909Y127641D01*
X187743Y127563D01*
X187593Y127458D01*
X187464Y127329D01*
X187359Y127179D01*
X187281Y127013D01*
X187234Y126836D01*
X187218Y126654D01*
Y116812D01*
X187234Y116630D01*
X187281Y116453D01*
X187359Y116287D01*
X187464Y116137D01*
X187593Y116008D01*
X187743Y115903D01*
X187909Y115825D01*
X188086Y115778D01*
X188268Y115762D01*
X188450D01*
G37*
G36*
X174390Y109551D02*X166516D01*
Y115762D01*
X168386D01*
X168568Y115778D01*
X168745Y115825D01*
X168911Y115903D01*
X169061Y116008D01*
X169190Y116137D01*
X169295Y116287D01*
X169373Y116453D01*
X169420Y116630D01*
X169436Y116812D01*
Y126654D01*
X169420Y126836D01*
X169373Y127013D01*
X169295Y127179D01*
X169190Y127329D01*
X169061Y127458D01*
X168911Y127563D01*
X168745Y127641D01*
X168568Y127688D01*
X168386Y127704D01*
X166516D01*
Y130000D01*
X174390D01*
Y127704D01*
X172520D01*
X172338Y127688D01*
X172161Y127641D01*
X171995Y127563D01*
X171845Y127458D01*
X171716Y127329D01*
X171611Y127179D01*
X171533Y127013D01*
X171486Y126836D01*
X171470Y126654D01*
Y116812D01*
X171486Y116630D01*
X171533Y116453D01*
X171611Y116287D01*
X171716Y116137D01*
X171845Y116008D01*
X171995Y115903D01*
X172161Y115825D01*
X172338Y115778D01*
X172520Y115762D01*
X174390D01*
Y109551D01*
G37*
G36*
X166516D02*X158642D01*
Y115762D01*
X160512D01*
X160694Y115778D01*
X160871Y115825D01*
X161037Y115903D01*
X161187Y116008D01*
X161316Y116137D01*
X161421Y116287D01*
X161499Y116453D01*
X161546Y116630D01*
X161562Y116812D01*
Y126654D01*
X161546Y126836D01*
X161499Y127013D01*
X161421Y127179D01*
X161316Y127329D01*
X161187Y127458D01*
X161037Y127563D01*
X160871Y127641D01*
X160694Y127688D01*
X160512Y127704D01*
X158642D01*
Y130000D01*
X166516D01*
Y127704D01*
X164646D01*
X164464Y127688D01*
X164287Y127641D01*
X164121Y127563D01*
X163971Y127458D01*
X163842Y127329D01*
X163737Y127179D01*
X163659Y127013D01*
X163612Y126836D01*
X163596Y126654D01*
Y116812D01*
X163612Y116630D01*
X163659Y116453D01*
X163737Y116287D01*
X163842Y116137D01*
X163971Y116008D01*
X164121Y115903D01*
X164287Y115825D01*
X164464Y115778D01*
X164646Y115762D01*
X166516D01*
Y109551D01*
G37*
G36*
X158642D02*X150768D01*
Y115762D01*
X152638D01*
X152820Y115778D01*
X152997Y115825D01*
X153163Y115903D01*
X153313Y116008D01*
X153442Y116137D01*
X153547Y116287D01*
X153625Y116453D01*
X153672Y116630D01*
X153688Y116812D01*
Y126654D01*
X153672Y126836D01*
X153625Y127013D01*
X153547Y127179D01*
X153442Y127329D01*
X153313Y127458D01*
X153163Y127563D01*
X152997Y127641D01*
X152820Y127688D01*
X152638Y127704D01*
X150768D01*
Y129729D01*
X153279D01*
X153347Y129735D01*
X153414D01*
X153484Y129747D01*
X153548Y129753D01*
X153613Y129770D01*
X153680Y129782D01*
X153741Y129804D01*
X153809Y129822D01*
X153872Y129851D01*
X153934Y129874D01*
X153995Y129909D01*
X154054Y129937D01*
X154106Y129973D01*
X154152Y130000D01*
X158642D01*
Y127704D01*
X156772D01*
X156590Y127688D01*
X156413Y127641D01*
X156247Y127563D01*
X156097Y127458D01*
X155968Y127329D01*
X155863Y127179D01*
X155785Y127013D01*
X155738Y126836D01*
X155722Y126654D01*
Y116812D01*
X155738Y116630D01*
X155785Y116453D01*
X155863Y116287D01*
X155968Y116137D01*
X156097Y116008D01*
X156247Y115903D01*
X156413Y115825D01*
X156590Y115778D01*
X156772Y115762D01*
X158642D01*
Y109551D01*
G37*
G36*
X150768D02*X145379D01*
Y111001D01*
X145374Y111058D01*
Y111137D01*
X145360Y111219D01*
X145355Y111270D01*
X145342Y111318D01*
X145327Y111403D01*
X145301Y111473D01*
X145286Y111531D01*
X145259Y111589D01*
X145234Y111657D01*
X145196Y111723D01*
X145171Y111776D01*
X145139Y111821D01*
X145099Y111891D01*
X145047Y111953D01*
X145016Y111997D01*
X144978Y112035D01*
X144925Y112098D01*
X141261Y115762D01*
X144764D01*
X144946Y115778D01*
X145123Y115825D01*
X145289Y115903D01*
X145439Y116008D01*
X145568Y116137D01*
X145673Y116287D01*
X145751Y116453D01*
X145798Y116630D01*
X145814Y116812D01*
Y126654D01*
X145798Y126836D01*
X145751Y127013D01*
X145673Y127179D01*
X145568Y127329D01*
X145439Y127458D01*
X145289Y127563D01*
X145123Y127641D01*
X144946Y127688D01*
X144764Y127704D01*
X142167D01*
X141775Y128096D01*
X141712Y128149D01*
X141674Y128187D01*
X141630Y128218D01*
X141568Y128270D01*
X141498Y128310D01*
X141453Y128342D01*
X141400Y128367D01*
X141334Y128405D01*
X141266Y128430D01*
X141208Y128457D01*
X141150Y128472D01*
X141080Y128498D01*
X140995Y128513D01*
X140947Y128526D01*
X140896Y128531D01*
X140814Y128545D01*
X140735D01*
X140678Y128550D01*
X139380D01*
X139183Y128832D01*
X138832Y129183D01*
X138425Y129468D01*
X137975Y129678D01*
X137785Y129729D01*
X150768D01*
Y127704D01*
X148898D01*
X148716Y127688D01*
X148539Y127641D01*
X148373Y127563D01*
X148223Y127458D01*
X148094Y127329D01*
X147989Y127179D01*
X147911Y127013D01*
X147864Y126836D01*
X147848Y126654D01*
Y116812D01*
X147864Y116630D01*
X147911Y116453D01*
X147989Y116287D01*
X148094Y116137D01*
X148223Y116008D01*
X148373Y115903D01*
X148539Y115825D01*
X148716Y115778D01*
X148898Y115762D01*
X150768D01*
Y109551D01*
G37*
G54D13*X137000Y218000D02*Y194150D01*
X135393Y192543D01*
X134607Y185457D02*X133543Y184393D01*
X127243Y185457D02*X134607D01*
X127243D02*X126000Y184214D01*
X142894Y211894D02*Y206318D01*
X109287Y184214D02*X118914D01*
G54D12*X118779Y184079D02*X118914Y184214D01*
X115000Y178000D02*X114000Y179000D01*
X110000D02*X114000D01*
G54D13*X109287Y184214D02*X107000Y186501D01*
G54D12*X113000Y175000D02*X143000D01*
G54D13*X116374Y170374D02*X135906D01*
G54D12*X115000Y178000D02*X142000D01*
G54D13*X113000Y167000D02*X116374Y170374D01*
G54D12*X108000Y174000D02*X112000D01*
X113000Y175000D02*X112000Y174000D01*
G54D13*X107000Y125914D02*X107086D01*
G54D12*X108162Y133838D02*X113871D01*
X108721Y131279D02*X113871D01*
X108721D02*X108000Y132000D01*
G54D13*X106214Y133000D02*X113000Y139786D01*
G54D12*X108162Y133838D02*X108000Y134000D01*
X110721Y128721D02*X113871D01*
X110721D02*X108000Y126000D01*
X108162Y126162D02*X113871D01*
X108162D02*X108000Y126000D01*
G54D13*X106214Y133000D02*X106000Y133214D01*
X113000Y167000D02*Y139786D01*
G54D12*X131000Y137000D02*Y134709D01*
X130000Y143000D02*X137000D01*
X130129Y133838D02*X131000Y134709D01*
X125838Y138838D02*Y138129D01*
X123279D02*X123000Y138408D01*
Y141000D02*Y138408D01*
Y141000D02*X124000Y142000D01*
X118162Y138129D02*X118000Y138291D01*
X124000Y160000D02*Y142000D01*
X120721Y157279D02*Y138129D01*
X118000Y151000D02*Y138291D01*
Y151000D02*X116000Y153000D01*
X119000Y166000D02*X116000Y163000D01*
Y153000D01*
X120000Y162000D02*Y158000D01*
X120721Y157279D02*X120000Y158000D01*
X124000Y166000D02*X120000Y162000D01*
G54D13*X139543Y220543D02*X177607D01*
X139543D02*X137000Y218000D01*
X144457Y213457D02*X163607D01*
X144457D02*X142894Y211894D01*
X170607Y213457D02*X180543D01*
G54D12*X190138Y200216D02*Y168138D01*
G54D13*X182264Y211264D02*Y206318D01*
X180543Y213457D02*X182264Y211736D01*
Y206318D01*
X185000Y214000D02*X184457Y213457D01*
X178393D02*X184457D01*
X185000Y214000D02*X182264Y211264D01*
Y200216D02*Y194264D01*
G54D12*X166516Y206318D02*Y198516D01*
G54D13*X182264Y194264D02*X158374Y170374D01*
G54D12*X166516Y198516D02*X143000Y175000D01*
X158642Y200216D02*Y194642D01*
X142000Y178000D01*
G54D13*X142008Y170374D02*X158374D01*
G54D12*X174390Y114390D02*X174000Y114000D01*
X143000Y106000D02*X183000D01*
X182264Y109265D02*X181000Y108001D01*
X143829D02*X181000D01*
X143829Y111001D02*Y108001D01*
X174390Y118682D02*Y114390D01*
X190138Y118682D02*X190000Y118544D01*
Y113000D01*
X174390Y118682D02*X174000Y118292D01*
X190000Y113000D02*X183000Y106000D01*
X182264Y118682D02*Y109265D01*
X150768Y118682D02*Y115232D01*
X158642Y114358D02*X159000Y114000D01*
X166516Y118682D02*Y114516D01*
X158642Y118682D02*Y114358D01*
X150768Y115232D02*X151000Y115000D01*
X166516Y114516D02*X166000Y114000D01*
X125838Y138838D02*X130000Y143000D01*
X131626Y154626D02*X135906D01*
X131626D02*X131000Y154000D01*
X190138Y168138D02*X153279Y131279D01*
X121366Y107500D02*X115866Y113000D01*
X114000D02*X115866D01*
X125000Y108000D02*X121366Y107500D01*
X108457Y107457D02*X114000Y113000D01*
X107393Y107457D02*X108457D01*
X130129Y131279D02*X153279D01*
X142894Y124784D02*X140678Y127000D01*
X137000D02*X140678D01*
X133000D02*Y124000D01*
Y127000D02*X131279Y128721D01*
X130129D02*X131279D01*
X130129Y126162D02*X130999Y125292D01*
X131000Y115000D02*X135000Y111000D01*
Y107000D01*
X128331Y115000D02*X131000D01*
X128709Y119000D02*X129000D01*
X143000Y106000D02*X141000Y108000D01*
Y111000D02*Y108000D01*
X137000Y113000D02*X133000Y117000D01*
Y121000D02*Y117000D01*
X135001Y121829D02*Y117999D01*
X135000Y122000D02*X133000Y124000D01*
Y121000D02*X131000Y123000D01*
Y123916D02*Y123000D01*
X141000Y111000D02*X139000Y113000D01*
X137000D02*X139000D01*
X143829Y111001D02*X139830Y115000D01*
X139081D02*X139830D01*
X137998Y115002D02*X139000D01*
X137998D02*X135001Y117999D01*
X130999Y125292D02*Y123000D01*
X106607Y114543D02*X106000Y115150D01*
Y120000D02*Y115150D01*
G54D13*X112000Y121000D02*X107086Y125914D01*
G54D12*X123279Y120721D02*Y121871D01*
X126000Y116000D02*X125000Y119000D01*
X125838Y121871D02*X128709Y119000D01*
X125000D02*X123279Y120721D01*
X122000Y117000D02*X120721Y118279D01*
X118162Y119162D02*X117000Y118000D01*
X118162Y121871D02*Y119162D01*
X120721Y121871D02*Y118279D01*
Y121871D02*Y119279D01*
X129000Y115000D02*X127000D01*
X126000Y116000D01*
G54D14*X107000Y186501D03*
X137000Y218000D03*
G54D11*G36*
X103000Y167000D02*Y161000D01*
X109000D01*
Y167000D01*
X103000D01*
G37*
G54D15*X106000Y154000D03*
G54D11*G36*
X132000Y110500D02*Y104500D01*
X138000D01*
Y110500D01*
X132000D01*
G37*
G54D15*X125000Y107500D03*
X115000D03*
X106000Y144000D03*
X182000Y137000D03*
Y170000D03*
X185000Y214000D03*
X166000Y190000D03*
G54D16*X124000Y166000D03*
X119000D03*
X110000Y179000D03*
X108000Y174000D03*
X131000Y137000D03*
X129000Y119000D03*
X137000Y127000D03*
G54D15*X112000Y121000D03*
G54D16*X124000Y128000D03*
X120000D03*
X117000Y118000D03*
X122000Y117000D03*
X124000Y160000D03*
X137000Y143000D03*
X106000Y120000D03*
X113000Y139000D03*
X124000Y132000D03*
X120000D03*
G54D22*X118914Y185000D02*Y184214D01*
X126000Y185000D02*Y184214D01*
X134607Y192543D02*X135393D01*
X134607Y185457D02*X135393D01*
G54D23*X142894Y206318D02*Y200216D01*
X135906Y170374D02*X142008D01*
X135906Y162500D02*X142008D01*
X135906Y154626D02*X142008D01*
X150768Y206318D02*Y200216D01*
X158642Y206318D02*Y200216D01*
X166516Y206318D02*Y200216D01*
X174390Y206318D02*Y200216D01*
X182264Y206318D02*Y200216D01*
X190138Y206318D02*Y200216D01*
G54D22*X177607Y213457D02*X178393D01*
X177607Y220543D02*X178393D01*
X170607Y213457D02*X171393D01*
X170607Y220543D02*X171393D01*
X163607D02*X164393D01*
X163607Y213457D02*X164393D01*
X156607Y220543D02*X157393D01*
X156607Y213457D02*X157393D01*
X106607Y114543D02*X107393D01*
X106607Y107457D02*X107393D01*
X106214Y125914D02*X107000D01*
X106214Y133000D02*X107000D01*
G54D24*X118162Y138129D02*Y136043D01*
X120721Y138129D02*Y136043D01*
X123279Y138129D02*Y136043D01*
X125838Y138129D02*Y136043D01*
X128043Y133838D02*X130129D01*
X128043Y131279D02*X130129D01*
X128043Y128721D02*X130129D01*
X128043Y126162D02*X130129D01*
X125838Y123957D02*Y121871D01*
X123279Y123957D02*Y121871D01*
X120721Y123957D02*Y121871D01*
X118162Y123957D02*Y121871D01*
X113871Y126162D02*X115957D01*
X113871Y128721D02*X115957D01*
X113871Y131279D02*X115957D01*
X113871Y133838D02*X115957D01*
G54D11*G36*
X117867Y134133D02*Y125866D01*
X126134D01*
Y134133D01*
X117867D01*
G37*
G54D23*X142894Y124784D02*Y118682D01*
X150768Y124784D02*Y118682D01*
X158642Y124784D02*Y118682D01*
X166516Y124784D02*Y118682D01*
X174390Y124784D02*Y118682D01*
X182264Y124784D02*Y118682D01*
X190138Y124784D02*Y118682D01*
G54D17*G54D18*G54D19*G54D11*G54D20*G54D21*G54D11*G54D19*G54D11*G54D20*M02*
