G04 start of page 13 for group -3984 idx -3984 *
G04 Title: (unknown), fab *
G04 Creator: pcb 20091103 *
G04 CreationDate: Wed May  9 21:08:20 2012 UTC *
G04 For: markrages *
G04 Format: Gerber/RS-274X *
G04 PCB-Dimensions: 315000 325000 *
G04 PCB-Coordinate-Origin: lower left *
%MOIN*%
%FSLAX25Y25*%
%LNFAB*%
%ADD11C,0.0200*%
%ADD12C,0.0100*%
%ADD31R,0.0080X0.0080*%
%ADD32C,0.0060*%
G54D31*X119000Y206000D02*Y202800D01*
G54D11*G36*
X118453Y206147D02*X121919Y208147D01*
X122319Y207454D01*
X118853Y205454D01*
X118453Y206147D01*
G37*
G36*
X119146Y205454D02*X115680Y207454D01*
X116080Y208147D01*
X119546Y206147D01*
X119146Y205454D01*
G37*
G54D31*X117400Y206000D02*G75*G03X120600Y206000I1600J0D01*G01*
G75*G03X117400Y206000I-1600J0D01*G01*
X15000Y336250D02*Y333050D01*
G54D11*G36*
X14453Y336396D02*X17919Y338396D01*
X18319Y337703D01*
X14853Y335703D01*
X14453Y336396D01*
G37*
G36*
X15146Y335703D02*X11680Y337703D01*
X12080Y338396D01*
X15546Y336396D01*
X15146Y335703D01*
G37*
G54D31*X13400Y336250D02*G75*G03X16600Y336250I1600J0D01*G01*
G75*G03X13400Y336250I-1600J0D01*G01*
G54D32*X140000Y338500D02*Y332500D01*
Y338500D02*Y337750D01*
X143750Y334000D01*
Y338500D02*Y332500D01*
X145551Y337750D02*Y333250D01*
Y337750D02*X146301Y338500D01*
X147801D01*
X148551Y337750D01*
Y333250D01*
X147801Y332500D02*X148551Y333250D01*
X146301Y332500D02*X147801D01*
X145551Y333250D02*X146301Y332500D01*
X140000Y329249D02*X150353D01*
X98750Y332500D02*X100250D01*
X99500Y338500D02*Y332500D01*
X98000Y337000D02*X99500Y338500D01*
X98000Y329249D02*X102051D01*
X45000Y333250D02*X45750Y332500D01*
X45000Y337750D02*Y333250D01*
Y337750D02*X45750Y338500D01*
X47250D01*
X48000Y337750D01*
Y333250D01*
X47250Y332500D02*X48000Y333250D01*
X45750Y332500D02*X47250D01*
X45000Y334000D02*X48000Y337000D01*
X49801Y332500D02*X50551D01*
X52353Y337750D02*X53103Y338500D01*
X54603D01*
X55353Y337750D01*
Y333250D01*
X54603Y332500D02*X55353Y333250D01*
X53103Y332500D02*X54603D01*
X52353Y333250D02*X53103Y332500D01*
Y335500D02*X55353D01*
X57904Y332500D02*X59404D01*
X58654Y338500D02*Y332500D01*
X57154Y337000D02*X58654Y338500D01*
X61206D02*X64206D01*
X61206D02*Y335500D01*
X61956Y336250D01*
X63456D01*
X64206Y335500D01*
Y333250D01*
X63456Y332500D02*X64206Y333250D01*
X61956Y332500D02*X63456D01*
X61206Y333250D02*X61956Y332500D01*
X45000Y329249D02*X66007D01*
X203400Y111600D02*X206600D01*
X203400D02*Y108400D01*
X206600D01*
Y111600D02*Y108400D01*
X203400Y216600D02*X206600D01*
X203400D02*Y213400D01*
X206600D01*
Y216600D02*Y213400D01*
X13400Y352850D02*X16600D01*
X13400D02*Y349650D01*
X16600D01*
Y352850D02*Y349650D01*
X140000Y353500D02*Y347500D01*
Y353500D02*Y352750D01*
X143750Y349000D01*
Y353500D02*Y347500D01*
X145551Y352750D02*Y348250D01*
Y352750D02*X146301Y353500D01*
X147801D01*
X148551Y352750D01*
Y348250D01*
X147801Y347500D02*X148551Y348250D01*
X146301Y347500D02*X147801D01*
X145551Y348250D02*X146301Y347500D01*
X140000Y344249D02*X150353D01*
X98000Y352750D02*X98750Y353500D01*
X101000D01*
X101750Y352750D01*
Y351250D01*
X98000Y347500D02*X101750Y351250D01*
X98000Y347500D02*X101750D01*
X98000Y344249D02*X103551D01*
X45000Y348250D02*X45750Y347500D01*
X45000Y352750D02*Y348250D01*
Y352750D02*X45750Y353500D01*
X47250D01*
X48000Y352750D01*
Y348250D01*
X47250Y347500D02*X48000Y348250D01*
X45750Y347500D02*X47250D01*
X45000Y349000D02*X48000Y352000D01*
X49801Y347500D02*X50551D01*
X53103D02*X54603D01*
X53853Y353500D02*Y347500D01*
X52353Y352000D02*X53853Y353500D01*
X56404Y352750D02*X57154Y353500D01*
X59404D01*
X60154Y352750D01*
Y351250D01*
X56404Y347500D02*X60154Y351250D01*
X56404Y347500D02*X60154D01*
X61956D02*X65706Y351250D01*
Y353500D02*Y351250D01*
X61956Y353500D02*X65706D01*
X45000Y344249D02*X67507D01*
X106200Y186501D02*G75*G03X107800Y186501I800J0D01*G01*
G75*G03X106200Y186501I-800J0D01*G01*
X136200Y218000D02*G75*G03X137800Y218000I800J0D01*G01*
G75*G03X136200Y218000I-800J0D01*G01*
X14200Y366250D02*G75*G03X15800Y366250I800J0D01*G01*
G75*G03X14200Y366250I-800J0D01*G01*
X135000Y368500D02*Y367750D01*
X136500Y366250D01*
X138000Y367750D01*
Y368500D02*Y367750D01*
X136500Y366250D02*Y362500D01*
X139801Y365500D02*X142051D01*
X139801Y362500D02*X142801D01*
X139801Y368500D02*Y362500D01*
Y368500D02*X142801D01*
X147603D02*X148353Y367750D01*
X145353Y368500D02*X147603D01*
X144603Y367750D02*X145353Y368500D01*
X144603Y367750D02*Y366250D01*
X145353Y365500D01*
X147603D01*
X148353Y364750D01*
Y363250D01*
X147603Y362500D02*X148353Y363250D01*
X145353Y362500D02*X147603D01*
X144603Y363250D02*X145353Y362500D01*
X135000Y359249D02*X150154D01*
X98000Y367750D02*X98750Y368500D01*
X101000D01*
X101750Y367750D01*
Y366250D01*
X98000Y362500D02*X101750Y366250D01*
X98000Y362500D02*X101750D01*
X98000Y359249D02*X103551D01*
X45000Y363250D02*X45750Y362500D01*
X45000Y367750D02*Y363250D01*
Y367750D02*X45750Y368500D01*
X47250D01*
X48000Y367750D01*
Y363250D01*
X47250Y362500D02*X48000Y363250D01*
X45750Y362500D02*X47250D01*
X45000Y364000D02*X48000Y367000D01*
X49801Y362500D02*X50551D01*
X52353Y363250D02*X53103Y362500D01*
X52353Y367750D02*Y363250D01*
Y367750D02*X53103Y368500D01*
X54603D01*
X55353Y367750D01*
Y363250D01*
X54603Y362500D02*X55353Y363250D01*
X53103Y362500D02*X54603D01*
X52353Y364000D02*X55353Y367000D01*
X57154Y367750D02*X57904Y368500D01*
X59404D01*
X60154Y367750D01*
Y363250D01*
X59404Y362500D02*X60154Y363250D01*
X57904Y362500D02*X59404D01*
X57154Y363250D02*X57904Y362500D01*
Y365500D02*X60154D01*
X61956Y362500D02*X64956Y365500D01*
Y367750D02*Y365500D01*
X64206Y368500D02*X64956Y367750D01*
X62706Y368500D02*X64206D01*
X61956Y367750D02*X62706Y368500D01*
X61956Y367750D02*Y366250D01*
X62706Y365500D01*
X64956D01*
X45000Y359249D02*X66757D01*
X104800Y165200D02*X107200Y162800D01*
X104800D02*X107200Y165200D01*
X104800Y155200D02*X107200Y152800D01*
X104800D02*X107200Y155200D01*
X104800Y145200D02*X107200Y142800D01*
X104800D02*X107200Y145200D01*
X133800Y108700D02*X136200Y106300D01*
X133800D02*X136200Y108700D01*
X123800D02*X126200Y106300D01*
X123800D02*X126200Y108700D01*
X113800D02*X116200Y106300D01*
X113800D02*X116200Y108700D01*
X13800Y382450D02*X16200Y380050D01*
X13800D02*X16200Y382450D01*
X135000Y383500D02*Y382750D01*
X136500Y381250D01*
X138000Y382750D01*
Y383500D02*Y382750D01*
X136500Y381250D02*Y377500D01*
X139801Y380500D02*X142051D01*
X139801Y377500D02*X142801D01*
X139801Y383500D02*Y377500D01*
Y383500D02*X142801D01*
X147603D02*X148353Y382750D01*
X145353Y383500D02*X147603D01*
X144603Y382750D02*X145353Y383500D01*
X144603Y382750D02*Y381250D01*
X145353Y380500D01*
X147603D01*
X148353Y379750D01*
Y378250D01*
X147603Y377500D02*X148353Y378250D01*
X145353Y377500D02*X147603D01*
X144603Y378250D02*X145353Y377500D01*
X135000Y374249D02*X150154D01*
X100250Y383500D02*X101000Y382750D01*
X98750Y383500D02*X100250D01*
X98000Y382750D02*X98750Y383500D01*
X98000Y382750D02*Y378250D01*
X98750Y377500D01*
X100250Y380500D02*X101000Y379750D01*
X98000Y380500D02*X100250D01*
X98750Y377500D02*X100250D01*
X101000Y378250D01*
Y379750D02*Y378250D01*
X98000Y374249D02*X102801D01*
X45000Y378250D02*X45750Y377500D01*
X45000Y382750D02*Y378250D01*
Y382750D02*X45750Y383500D01*
X47250D01*
X48000Y382750D01*
Y378250D01*
X47250Y377500D02*X48000Y378250D01*
X45750Y377500D02*X47250D01*
X45000Y379000D02*X48000Y382000D01*
X49801Y377500D02*X50551D01*
X52353Y378250D02*X53103Y377500D01*
X52353Y382750D02*Y378250D01*
Y382750D02*X53103Y383500D01*
X54603D01*
X55353Y382750D01*
Y378250D01*
X54603Y377500D02*X55353Y378250D01*
X53103Y377500D02*X54603D01*
X52353Y379000D02*X55353Y382000D01*
X57154Y382750D02*X57904Y383500D01*
X59404D01*
X60154Y382750D01*
Y378250D01*
X59404Y377500D02*X60154Y378250D01*
X57904Y377500D02*X59404D01*
X57154Y378250D02*X57904Y377500D01*
Y380500D02*X60154D01*
X61956Y378250D02*X62706Y377500D01*
X61956Y379750D02*Y378250D01*
Y379750D02*X62706Y380500D01*
X64206D01*
X64956Y379750D01*
Y378250D01*
X64206Y377500D02*X64956Y378250D01*
X62706Y377500D02*X64206D01*
X61956Y381250D02*X62706Y380500D01*
X61956Y382750D02*Y381250D01*
Y382750D02*X62706Y383500D01*
X64206D01*
X64956Y382750D01*
Y381250D01*
X64206Y380500D02*X64956Y381250D01*
X45000Y374249D02*X66757D01*
X182000Y138600D02*Y135400D01*
X180400Y137000D02*X183600D01*
X182000Y171600D02*Y168400D01*
X180400Y170000D02*X183600D01*
X185000Y215600D02*Y212400D01*
X183400Y214000D02*X186600D01*
X112000Y122600D02*Y119400D01*
X110400Y121000D02*X113600D01*
X166000Y191600D02*Y188400D01*
X164400Y190000D02*X167600D01*
X15000Y397850D02*Y394650D01*
X13400Y396250D02*X16600D01*
X135000Y398500D02*Y397750D01*
X136500Y396250D01*
X138000Y397750D01*
Y398500D02*Y397750D01*
X136500Y396250D02*Y392500D01*
X139801Y395500D02*X142051D01*
X139801Y392500D02*X142801D01*
X139801Y398500D02*Y392500D01*
Y398500D02*X142801D01*
X147603D02*X148353Y397750D01*
X145353Y398500D02*X147603D01*
X144603Y397750D02*X145353Y398500D01*
X144603Y397750D02*Y396250D01*
X145353Y395500D01*
X147603D01*
X148353Y394750D01*
Y393250D01*
X147603Y392500D02*X148353Y393250D01*
X145353Y392500D02*X147603D01*
X144603Y393250D02*X145353Y392500D01*
X135000Y389249D02*X150154D01*
X98000Y398500D02*X101000D01*
X98000D02*Y395500D01*
X98750Y396250D01*
X100250D01*
X101000Y395500D01*
Y393250D01*
X100250Y392500D02*X101000Y393250D01*
X98750Y392500D02*X100250D01*
X98000Y393250D02*X98750Y392500D01*
X98000Y389249D02*X102801D01*
X45000Y393250D02*X45750Y392500D01*
X45000Y397750D02*Y393250D01*
Y397750D02*X45750Y398500D01*
X47250D01*
X48000Y397750D01*
Y393250D01*
X47250Y392500D02*X48000Y393250D01*
X45750Y392500D02*X47250D01*
X45000Y394000D02*X48000Y397000D01*
X49801Y392500D02*X50551D01*
X52353Y393250D02*X53103Y392500D01*
X52353Y397750D02*Y393250D01*
Y397750D02*X53103Y398500D01*
X54603D01*
X55353Y397750D01*
Y393250D01*
X54603Y392500D02*X55353Y393250D01*
X53103Y392500D02*X54603D01*
X52353Y394000D02*X55353Y397000D01*
X57154Y397750D02*X57904Y398500D01*
X59404D01*
X60154Y397750D01*
Y393250D01*
X59404Y392500D02*X60154Y393250D01*
X57904Y392500D02*X59404D01*
X57154Y393250D02*X57904Y392500D01*
Y395500D02*X60154D01*
X61956Y398500D02*X64956D01*
X61956D02*Y395500D01*
X62706Y396250D01*
X64206D01*
X64956Y395500D01*
Y393250D01*
X64206Y392500D02*X64956Y393250D01*
X62706Y392500D02*X64206D01*
X61956Y393250D02*X62706Y392500D01*
X45000Y389249D02*X66757D01*
X129000Y119000D02*Y117400D01*
Y119000D02*X130386Y119800D01*
X129000Y119000D02*X127614Y119800D01*
X137000Y127000D02*Y125400D01*
Y127000D02*X138386Y127800D01*
X137000Y127000D02*X135614Y127800D01*
X137000Y143000D02*Y141400D01*
Y143000D02*X138386Y143800D01*
X137000Y143000D02*X135614Y143800D01*
X106000Y120000D02*Y118400D01*
Y120000D02*X107386Y120800D01*
X106000Y120000D02*X104614Y120800D01*
X117000Y118000D02*Y116400D01*
Y118000D02*X118386Y118800D01*
X117000Y118000D02*X115614Y118800D01*
X124000Y128000D02*Y126400D01*
Y128000D02*X125386Y128800D01*
X124000Y128000D02*X122614Y128800D01*
X124000Y160000D02*Y158400D01*
Y160000D02*X125386Y160800D01*
X124000Y160000D02*X122614Y160800D01*
X124000Y166000D02*Y164400D01*
Y166000D02*X125386Y166800D01*
X124000Y166000D02*X122614Y166800D01*
X119000Y166000D02*Y164400D01*
Y166000D02*X120386Y166800D01*
X119000Y166000D02*X117614Y166800D01*
X110000Y179000D02*Y177400D01*
Y179000D02*X111386Y179800D01*
X110000Y179000D02*X108614Y179800D01*
X108000Y174000D02*Y172400D01*
Y174000D02*X109386Y174800D01*
X108000Y174000D02*X106614Y174800D01*
X122000Y117000D02*Y115400D01*
Y117000D02*X123386Y117800D01*
X122000Y117000D02*X120614Y117800D01*
X113000Y139000D02*Y137400D01*
Y139000D02*X114386Y139800D01*
X113000Y139000D02*X111614Y139800D01*
X124000Y132000D02*Y130400D01*
Y132000D02*X125386Y132800D01*
X124000Y132000D02*X122614Y132800D01*
X120000Y132000D02*Y130400D01*
Y132000D02*X121386Y132800D01*
X120000Y132000D02*X118614Y132800D01*
X120000Y128000D02*Y126400D01*
Y128000D02*X121386Y128800D01*
X120000Y128000D02*X118614Y128800D01*
X131000Y137000D02*Y135400D01*
Y137000D02*X132386Y137800D01*
X131000Y137000D02*X129614Y137800D01*
X15000Y411250D02*Y409650D01*
Y411250D02*X16386Y412050D01*
X15000Y411250D02*X13614Y412050D01*
X135000Y413500D02*Y412750D01*
X136500Y411250D01*
X138000Y412750D01*
Y413500D02*Y412750D01*
X136500Y411250D02*Y407500D01*
X139801Y410500D02*X142051D01*
X139801Y407500D02*X142801D01*
X139801Y413500D02*Y407500D01*
Y413500D02*X142801D01*
X147603D02*X148353Y412750D01*
X145353Y413500D02*X147603D01*
X144603Y412750D02*X145353Y413500D01*
X144603Y412750D02*Y411250D01*
X145353Y410500D01*
X147603D01*
X148353Y409750D01*
Y408250D01*
X147603Y407500D02*X148353Y408250D01*
X145353Y407500D02*X147603D01*
X144603Y408250D02*X145353Y407500D01*
X135000Y404249D02*X150154D01*
X98750Y407500D02*X100250D01*
X99500Y413500D02*Y407500D01*
X98000Y412000D02*X99500Y413500D01*
X102051Y407500D02*X105801Y411250D01*
Y413500D02*Y411250D01*
X102051Y413500D02*X105801D01*
X98000Y404249D02*X107603D01*
X45000Y408250D02*X45750Y407500D01*
X45000Y412750D02*Y408250D01*
Y412750D02*X45750Y413500D01*
X47250D01*
X48000Y412750D01*
Y408250D01*
X47250Y407500D02*X48000Y408250D01*
X45750Y407500D02*X47250D01*
X45000Y409000D02*X48000Y412000D01*
X49801Y407500D02*X50551D01*
X52353Y408250D02*X53103Y407500D01*
X52353Y412750D02*Y408250D01*
Y412750D02*X53103Y413500D01*
X54603D01*
X55353Y412750D01*
Y408250D01*
X54603Y407500D02*X55353Y408250D01*
X53103Y407500D02*X54603D01*
X52353Y409000D02*X55353Y412000D01*
X57154Y412750D02*X57904Y413500D01*
X60154D01*
X60904Y412750D01*
Y411250D01*
X57154Y407500D02*X60904Y411250D01*
X57154Y407500D02*X60904D01*
X62706Y408250D02*X63456Y407500D01*
X62706Y412750D02*Y408250D01*
Y412750D02*X63456Y413500D01*
X64956D01*
X65706Y412750D01*
Y408250D01*
X64956Y407500D02*X65706Y408250D01*
X63456Y407500D02*X64956D01*
X62706Y409000D02*X65706Y412000D01*
X45000Y404249D02*X67507D01*
X3000Y428500D02*X3750Y427750D01*
X750Y428500D02*X3000D01*
X0Y427750D02*X750Y428500D01*
X0Y427750D02*Y426250D01*
X750Y425500D01*
X3000D01*
X3750Y424750D01*
Y423250D01*
X3000Y422500D02*X3750Y423250D01*
X750Y422500D02*X3000D01*
X0Y423250D02*X750Y422500D01*
X5551Y425500D02*Y423250D01*
X6301Y422500D01*
X8551Y425500D02*Y421000D01*
X7801Y420250D02*X8551Y421000D01*
X6301Y420250D02*X7801D01*
X5551Y421000D02*X6301Y420250D01*
Y422500D02*X7801D01*
X8551Y423250D01*
X11103Y424750D02*Y422500D01*
Y424750D02*X11853Y425500D01*
X12603D01*
X13353Y424750D01*
Y422500D01*
Y424750D02*X14103Y425500D01*
X14853D01*
X15603Y424750D01*
Y422500D01*
X10353Y425500D02*X11103Y424750D01*
X17404Y428500D02*Y422500D01*
Y423250D02*X18154Y422500D01*
X19654D01*
X20404Y423250D01*
Y424750D02*Y423250D01*
X19654Y425500D02*X20404Y424750D01*
X18154Y425500D02*X19654D01*
X17404Y424750D02*X18154Y425500D01*
X22206Y424750D02*Y423250D01*
Y424750D02*X22956Y425500D01*
X24456D01*
X25206Y424750D01*
Y423250D01*
X24456Y422500D02*X25206Y423250D01*
X22956Y422500D02*X24456D01*
X22206Y423250D02*X22956Y422500D01*
X27007Y428500D02*Y423250D01*
X27757Y422500D01*
X41750Y428500D02*Y422500D01*
X44000Y428500D02*X44750Y427750D01*
Y423250D01*
X44000Y422500D02*X44750Y423250D01*
X41000Y422500D02*X44000D01*
X41000Y428500D02*X44000D01*
X46551Y427000D02*Y426250D01*
Y424750D02*Y422500D01*
X50303Y425500D02*X51053Y424750D01*
X48803Y425500D02*X50303D01*
X48053Y424750D02*X48803Y425500D01*
X48053Y424750D02*Y423250D01*
X48803Y422500D01*
X51053Y425500D02*Y423250D01*
X51803Y422500D01*
X48803D02*X50303D01*
X51053Y423250D01*
X54354Y424750D02*Y422500D01*
Y424750D02*X55104Y425500D01*
X55854D01*
X56604Y424750D01*
Y422500D01*
Y424750D02*X57354Y425500D01*
X58104D01*
X58854Y424750D01*
Y422500D01*
X53604Y425500D02*X54354Y424750D01*
X60656Y422500D02*X61406D01*
X65907Y423250D02*X66657Y422500D01*
X65907Y427750D02*X66657Y428500D01*
X65907Y427750D02*Y423250D01*
X68459Y428500D02*X69959D01*
X69209D02*Y422500D01*
X68459D02*X69959D01*
X72510Y424750D02*Y422500D01*
Y424750D02*X73260Y425500D01*
X74010D01*
X74760Y424750D01*
Y422500D01*
X71760Y425500D02*X72510Y424750D01*
X77312Y425500D02*X79562D01*
X76562Y424750D02*X77312Y425500D01*
X76562Y424750D02*Y423250D01*
X77312Y422500D01*
X79562D01*
X81363Y428500D02*Y422500D01*
Y424750D02*X82113Y425500D01*
X83613D01*
X84363Y424750D01*
Y422500D01*
X86165Y428500D02*X86915Y427750D01*
Y423250D01*
X86165Y422500D02*X86915Y423250D01*
X95750Y422500D02*X98000D01*
X95000Y423250D02*X95750Y422500D01*
X95000Y427750D02*Y423250D01*
Y427750D02*X95750Y428500D01*
X98000D01*
X99801Y424750D02*Y423250D01*
Y424750D02*X100551Y425500D01*
X102051D01*
X102801Y424750D01*
Y423250D01*
X102051Y422500D02*X102801Y423250D01*
X100551Y422500D02*X102051D01*
X99801Y423250D02*X100551Y422500D01*
X104603Y425500D02*Y423250D01*
X105353Y422500D01*
X106853D01*
X107603Y423250D01*
Y425500D02*Y423250D01*
X110154Y424750D02*Y422500D01*
Y424750D02*X110904Y425500D01*
X111654D01*
X112404Y424750D01*
Y422500D01*
X109404Y425500D02*X110154Y424750D01*
X114956Y428500D02*Y423250D01*
X115706Y422500D01*
X114206Y426250D02*X115706D01*
X130750Y428500D02*Y422500D01*
X130000Y428500D02*X133000D01*
X133750Y427750D01*
Y426250D01*
X133000Y425500D02*X133750Y426250D01*
X130750Y425500D02*X133000D01*
X135551Y428500D02*Y423250D01*
X136301Y422500D01*
X140053Y425500D02*X140803Y424750D01*
X138553Y425500D02*X140053D01*
X137803Y424750D02*X138553Y425500D01*
X137803Y424750D02*Y423250D01*
X138553Y422500D01*
X140803Y425500D02*Y423250D01*
X141553Y422500D01*
X138553D02*X140053D01*
X140803Y423250D01*
X144104Y428500D02*Y423250D01*
X144854Y422500D01*
X143354Y426250D02*X144854D01*
X147106Y422500D02*X149356D01*
X146356Y423250D02*X147106Y422500D01*
X146356Y424750D02*Y423250D01*
Y424750D02*X147106Y425500D01*
X148606D01*
X149356Y424750D01*
X146356Y424000D02*X149356D01*
Y424750D02*Y424000D01*
X154157Y428500D02*Y422500D01*
X153407D02*X154157Y423250D01*
X151907Y422500D02*X153407D01*
X151157Y423250D02*X151907Y422500D01*
X151157Y424750D02*Y423250D01*
Y424750D02*X151907Y425500D01*
X153407D01*
X154157Y424750D01*
X157459Y425500D02*Y424750D01*
Y423250D02*Y422500D01*
X155959Y427750D02*Y427000D01*
Y427750D02*X156709Y428500D01*
X158209D01*
X158959Y427750D01*
Y427000D01*
X157459Y425500D02*X158959Y427000D01*
X0Y443500D02*X3000D01*
X1500D02*Y437500D01*
X4801Y443500D02*Y437500D01*
Y439750D02*X5551Y440500D01*
X7051D01*
X7801Y439750D01*
Y437500D01*
X10353D02*X12603D01*
X9603Y438250D02*X10353Y437500D01*
X9603Y439750D02*Y438250D01*
Y439750D02*X10353Y440500D01*
X11853D01*
X12603Y439750D01*
X9603Y439000D02*X12603D01*
Y439750D02*Y439000D01*
X15154Y439750D02*Y437500D01*
Y439750D02*X15904Y440500D01*
X17404D01*
X14404D02*X15154Y439750D01*
X19956Y437500D02*X22206D01*
X19206Y438250D02*X19956Y437500D01*
X19206Y439750D02*Y438250D01*
Y439750D02*X19956Y440500D01*
X21456D01*
X22206Y439750D01*
X19206Y439000D02*X22206D01*
Y439750D02*Y439000D01*
X28957Y440500D02*X29707Y439750D01*
X27457Y440500D02*X28957D01*
X26707Y439750D02*X27457Y440500D01*
X26707Y439750D02*Y438250D01*
X27457Y437500D01*
X29707Y440500D02*Y438250D01*
X30457Y437500D01*
X27457D02*X28957D01*
X29707Y438250D01*
X33009Y439750D02*Y437500D01*
Y439750D02*X33759Y440500D01*
X35259D01*
X32259D02*X33009Y439750D01*
X37810Y437500D02*X40060D01*
X37060Y438250D02*X37810Y437500D01*
X37060Y439750D02*Y438250D01*
Y439750D02*X37810Y440500D01*
X39310D01*
X40060Y439750D01*
X37060Y439000D02*X40060D01*
Y439750D02*Y439000D01*
X46812Y443500D02*X47562Y442750D01*
X45312Y443500D02*X46812D01*
X44562Y442750D02*X45312Y443500D01*
X44562Y442750D02*Y438250D01*
X45312Y437500D01*
X46812Y440500D02*X47562Y439750D01*
X44562Y440500D02*X46812D01*
X45312Y437500D02*X46812D01*
X47562Y438250D01*
Y439750D02*Y438250D01*
X55063Y443500D02*Y437500D01*
X54313D02*X55063Y438250D01*
X52813Y437500D02*X54313D01*
X52063Y438250D02*X52813Y437500D01*
X52063Y439750D02*Y438250D01*
Y439750D02*X52813Y440500D01*
X54313D01*
X55063Y439750D01*
X56865Y442000D02*Y441250D01*
Y439750D02*Y437500D01*
X59116Y442750D02*Y437500D01*
Y442750D02*X59866Y443500D01*
X60616D01*
X58366Y440500D02*X59866D01*
X62868Y442750D02*Y437500D01*
Y442750D02*X63618Y443500D01*
X64368D01*
X62118Y440500D02*X63618D01*
X66619Y437500D02*X68869D01*
X65869Y438250D02*X66619Y437500D01*
X65869Y439750D02*Y438250D01*
Y439750D02*X66619Y440500D01*
X68119D01*
X68869Y439750D01*
X65869Y439000D02*X68869D01*
Y439750D02*Y439000D01*
X71421Y439750D02*Y437500D01*
Y439750D02*X72171Y440500D01*
X73671D01*
X70671D02*X71421Y439750D01*
X76222Y437500D02*X78472D01*
X75472Y438250D02*X76222Y437500D01*
X75472Y439750D02*Y438250D01*
Y439750D02*X76222Y440500D01*
X77722D01*
X78472Y439750D01*
X75472Y439000D02*X78472D01*
Y439750D02*Y439000D01*
X81024Y439750D02*Y437500D01*
Y439750D02*X81774Y440500D01*
X82524D01*
X83274Y439750D01*
Y437500D01*
X80274Y440500D02*X81024Y439750D01*
X85825Y443500D02*Y438250D01*
X86575Y437500D01*
X85075Y441250D02*X86575D01*
X93777Y443500D02*Y437500D01*
X93027D02*X93777Y438250D01*
X91527Y437500D02*X93027D01*
X90777Y438250D02*X91527Y437500D01*
X90777Y439750D02*Y438250D01*
Y439750D02*X91527Y440500D01*
X93027D01*
X93777Y439750D01*
X96328D02*Y437500D01*
Y439750D02*X97078Y440500D01*
X98578D01*
X95578D02*X96328Y439750D01*
X100380Y442000D02*Y441250D01*
Y439750D02*Y437500D01*
X101881Y443500D02*Y438250D01*
X102631Y437500D01*
X104133Y443500D02*Y438250D01*
X104883Y437500D01*
X109834D02*X112084D01*
X112834Y438250D01*
X112084Y439000D02*X112834Y438250D01*
X109834Y439000D02*X112084D01*
X109084Y439750D02*X109834Y439000D01*
X109084Y439750D02*X109834Y440500D01*
X112084D01*
X112834Y439750D01*
X109084Y438250D02*X109834Y437500D01*
X114636Y442000D02*Y441250D01*
Y439750D02*Y437500D01*
X116137Y440500D02*X119137D01*
X116137Y437500D02*X119137Y440500D01*
X116137Y437500D02*X119137D01*
X121689D02*X123939D01*
X120939Y438250D02*X121689Y437500D01*
X120939Y439750D02*Y438250D01*
Y439750D02*X121689Y440500D01*
X123189D01*
X123939Y439750D01*
X120939Y439000D02*X123939D01*
Y439750D02*Y439000D01*
X126490Y437500D02*X128740D01*
X129490Y438250D01*
X128740Y439000D02*X129490Y438250D01*
X126490Y439000D02*X128740D01*
X125740Y439750D02*X126490Y439000D01*
X125740Y439750D02*X126490Y440500D01*
X128740D01*
X129490Y439750D01*
X125740Y438250D02*X126490Y437500D01*
X133992Y440500D02*Y438250D01*
X134742Y437500D01*
X136242D01*
X136992Y438250D01*
Y440500D02*Y438250D01*
X139543Y437500D02*X141793D01*
X142543Y438250D01*
X141793Y439000D02*X142543Y438250D01*
X139543Y439000D02*X141793D01*
X138793Y439750D02*X139543Y439000D01*
X138793Y439750D02*X139543Y440500D01*
X141793D01*
X142543Y439750D01*
X138793Y438250D02*X139543Y437500D01*
X145095D02*X147345D01*
X144345Y438250D02*X145095Y437500D01*
X144345Y439750D02*Y438250D01*
Y439750D02*X145095Y440500D01*
X146595D01*
X147345Y439750D01*
X144345Y439000D02*X147345D01*
Y439750D02*Y439000D01*
X152146Y443500D02*Y437500D01*
X151396D02*X152146Y438250D01*
X149896Y437500D02*X151396D01*
X149146Y438250D02*X149896Y437500D01*
X149146Y439750D02*Y438250D01*
Y439750D02*X149896Y440500D01*
X151396D01*
X152146Y439750D01*
X156648Y442000D02*Y441250D01*
Y439750D02*Y437500D01*
X158899Y439750D02*Y437500D01*
Y439750D02*X159649Y440500D01*
X160399D01*
X161149Y439750D01*
Y437500D01*
X158149Y440500D02*X158899Y439750D01*
X166401Y443500D02*Y438250D01*
X167151Y437500D01*
X165651Y441250D02*X167151D01*
X168652Y443500D02*Y437500D01*
Y439750D02*X169402Y440500D01*
X170902D01*
X171652Y439750D01*
Y437500D01*
X173454Y442000D02*Y441250D01*
Y439750D02*Y437500D01*
X175705D02*X177955D01*
X178705Y438250D01*
X177955Y439000D02*X178705Y438250D01*
X175705Y439000D02*X177955D01*
X174955Y439750D02*X175705Y439000D01*
X174955Y439750D02*X175705Y440500D01*
X177955D01*
X178705Y439750D01*
X174955Y438250D02*X175705Y437500D01*
X183207Y443500D02*Y438250D01*
X183957Y437500D01*
X187708Y440500D02*X188458Y439750D01*
X186208Y440500D02*X187708D01*
X185458Y439750D02*X186208Y440500D01*
X185458Y439750D02*Y438250D01*
X186208Y437500D01*
X188458Y440500D02*Y438250D01*
X189208Y437500D01*
X186208D02*X187708D01*
X188458Y438250D01*
X191010Y440500D02*Y438250D01*
X191760Y437500D01*
X194010Y440500D02*Y436000D01*
X193260Y435250D02*X194010Y436000D01*
X191760Y435250D02*X193260D01*
X191010Y436000D02*X191760Y435250D01*
Y437500D02*X193260D01*
X194010Y438250D01*
X195811Y439750D02*Y438250D01*
Y439750D02*X196561Y440500D01*
X198061D01*
X198811Y439750D01*
Y438250D01*
X198061Y437500D02*X198811Y438250D01*
X196561Y437500D02*X198061D01*
X195811Y438250D02*X196561Y437500D01*
X200613Y440500D02*Y438250D01*
X201363Y437500D01*
X202863D01*
X203613Y438250D01*
Y440500D02*Y438250D01*
X206164Y443500D02*Y438250D01*
X206914Y437500D01*
X205414Y441250D02*X206914D01*
X208416Y436000D02*X209916Y437500D01*
X214417Y442750D02*X215167Y443500D01*
X216667D01*
X217417Y442750D01*
Y438250D01*
X216667Y437500D02*X217417Y438250D01*
X215167Y437500D02*X216667D01*
X214417Y438250D02*X215167Y437500D01*
Y440500D02*X217417D01*
X219219Y442750D02*X219969Y443500D01*
X221469D01*
X222219Y442750D01*
Y438250D01*
X221469Y437500D02*X222219Y438250D01*
X219969Y437500D02*X221469D01*
X219219Y438250D02*X219969Y437500D01*
Y440500D02*X222219D01*
X226720Y443500D02*Y437500D01*
Y439750D02*X227470Y440500D01*
X228970D01*
X229720Y439750D01*
Y437500D01*
X231522Y439750D02*Y438250D01*
Y439750D02*X232272Y440500D01*
X233772D01*
X234522Y439750D01*
Y438250D01*
X233772Y437500D02*X234522Y438250D01*
X232272Y437500D02*X233772D01*
X231522Y438250D02*X232272Y437500D01*
X236323Y443500D02*Y438250D01*
X237073Y437500D01*
X239325D02*X241575D01*
X238575Y438250D02*X239325Y437500D01*
X238575Y439750D02*Y438250D01*
Y439750D02*X239325Y440500D01*
X240825D01*
X241575Y439750D01*
X238575Y439000D02*X241575D01*
Y439750D02*Y439000D01*
X244126Y437500D02*X246376D01*
X247126Y438250D01*
X246376Y439000D02*X247126Y438250D01*
X244126Y439000D02*X246376D01*
X243376Y439750D02*X244126Y439000D01*
X243376Y439750D02*X244126Y440500D01*
X246376D01*
X247126Y439750D01*
X243376Y438250D02*X244126Y437500D01*
X252378Y443500D02*Y438250D01*
X253128Y437500D01*
X251628Y441250D02*X253128D01*
X254629Y439750D02*Y438250D01*
Y439750D02*X255379Y440500D01*
X256879D01*
X257629Y439750D01*
Y438250D01*
X256879Y437500D02*X257629Y438250D01*
X255379Y437500D02*X256879D01*
X254629Y438250D02*X255379Y437500D01*
X260181Y443500D02*Y438250D01*
X260931Y437500D01*
X259431Y441250D02*X260931D01*
X264682Y440500D02*X265432Y439750D01*
X263182Y440500D02*X264682D01*
X262432Y439750D02*X263182Y440500D01*
X262432Y439750D02*Y438250D01*
X263182Y437500D01*
X265432Y440500D02*Y438250D01*
X266182Y437500D01*
X263182D02*X264682D01*
X265432Y438250D01*
X267984Y443500D02*Y438250D01*
X268734Y437500D01*
G54D12*X0Y325000D02*X315000D01*
X0D02*Y0D01*
X315000Y325000D02*Y0D01*
X0D02*X315000D01*
G54D32*X200000Y338500D02*Y332500D01*
Y338500D02*X202250Y336250D01*
X204500Y338500D01*
Y332500D01*
X208551Y335500D02*X209301Y334750D01*
X207051Y335500D02*X208551D01*
X206301Y334750D02*X207051Y335500D01*
X206301Y334750D02*Y333250D01*
X207051Y332500D01*
X209301Y335500D02*Y333250D01*
X210051Y332500D01*
X207051D02*X208551D01*
X209301Y333250D01*
X211853Y335500D02*X214853Y332500D01*
X211853D02*X214853Y335500D01*
X216654Y337000D02*Y336250D01*
Y334750D02*Y332500D01*
X218906Y334750D02*Y332500D01*
Y334750D02*X219656Y335500D01*
X220406D01*
X221156Y334750D01*
Y332500D01*
Y334750D02*X221906Y335500D01*
X222656D01*
X223406Y334750D01*
Y332500D01*
X218156Y335500D02*X218906Y334750D01*
X225207Y335500D02*Y333250D01*
X225957Y332500D01*
X227457D01*
X228207Y333250D01*
Y335500D02*Y333250D01*
X230759Y334750D02*Y332500D01*
Y334750D02*X231509Y335500D01*
X232259D01*
X233009Y334750D01*
Y332500D01*
Y334750D02*X233759Y335500D01*
X234509D01*
X235259Y334750D01*
Y332500D01*
X230009Y335500D02*X230759Y334750D01*
X240510Y338500D02*Y332500D01*
X242760Y338500D02*X243510Y337750D01*
Y333250D01*
X242760Y332500D02*X243510Y333250D01*
X239760Y332500D02*X242760D01*
X239760Y338500D02*X242760D01*
X245312Y337000D02*Y336250D01*
Y334750D02*Y332500D01*
X247563Y334750D02*Y332500D01*
Y334750D02*X248313Y335500D01*
X249063D01*
X249813Y334750D01*
Y332500D01*
Y334750D02*X250563Y335500D01*
X251313D01*
X252063Y334750D01*
Y332500D01*
X246813Y335500D02*X247563Y334750D01*
X254615Y332500D02*X256865D01*
X253865Y333250D02*X254615Y332500D01*
X253865Y334750D02*Y333250D01*
Y334750D02*X254615Y335500D01*
X256115D01*
X256865Y334750D01*
X253865Y334000D02*X256865D01*
Y334750D02*Y334000D01*
X259416Y334750D02*Y332500D01*
Y334750D02*X260166Y335500D01*
X260916D01*
X261666Y334750D01*
Y332500D01*
X258666Y335500D02*X259416Y334750D01*
X264218Y332500D02*X266468D01*
X267218Y333250D01*
X266468Y334000D02*X267218Y333250D01*
X264218Y334000D02*X266468D01*
X263468Y334750D02*X264218Y334000D01*
X263468Y334750D02*X264218Y335500D01*
X266468D01*
X267218Y334750D01*
X263468Y333250D02*X264218Y332500D01*
X269019Y337000D02*Y336250D01*
Y334750D02*Y332500D01*
X270521Y334750D02*Y333250D01*
Y334750D02*X271271Y335500D01*
X272771D01*
X273521Y334750D01*
Y333250D01*
X272771Y332500D02*X273521Y333250D01*
X271271Y332500D02*X272771D01*
X270521Y333250D02*X271271Y332500D01*
X276072Y334750D02*Y332500D01*
Y334750D02*X276822Y335500D01*
X277572D01*
X278322Y334750D01*
Y332500D01*
X275322Y335500D02*X276072Y334750D01*
X280874Y332500D02*X283124D01*
X283874Y333250D01*
X283124Y334000D02*X283874Y333250D01*
X280874Y334000D02*X283124D01*
X280124Y334750D02*X280874Y334000D01*
X280124Y334750D02*X280874Y335500D01*
X283124D01*
X283874Y334750D01*
X280124Y333250D02*X280874Y332500D01*
X285675Y336250D02*X286425D01*
X285675Y334750D02*X286425D01*
X290927Y337750D02*X291677Y338500D01*
X293177D01*
X293927Y337750D01*
Y333250D01*
X293177Y332500D02*X293927Y333250D01*
X291677Y332500D02*X293177D01*
X290927Y333250D02*X291677Y332500D01*
Y335500D02*X293927D01*
X296478Y332500D02*X297978D01*
X297228Y338500D02*Y332500D01*
X295728Y337000D02*X297228Y338500D01*
X299780D02*X302780D01*
X299780D02*Y335500D01*
X300530Y336250D01*
X302030D01*
X302780Y335500D01*
Y333250D01*
X302030Y332500D02*X302780Y333250D01*
X300530Y332500D02*X302030D01*
X299780Y333250D02*X300530Y332500D01*
X304581Y333250D02*X305331Y332500D01*
X304581Y337750D02*Y333250D01*
Y337750D02*X305331Y338500D01*
X306831D01*
X307581Y337750D01*
Y333250D01*
X306831Y332500D02*X307581Y333250D01*
X305331Y332500D02*X306831D01*
X304581Y334000D02*X307581Y337000D01*
X312833Y334750D02*Y332500D01*
Y334750D02*X313583Y335500D01*
X314333D01*
X315083Y334750D01*
Y332500D01*
Y334750D02*X315833Y335500D01*
X316583D01*
X317333Y334750D01*
Y332500D01*
X312083Y335500D02*X312833Y334750D01*
X319134Y337000D02*Y336250D01*
Y334750D02*Y332500D01*
X320636Y338500D02*Y333250D01*
X321386Y332500D01*
X323637D02*X325887D01*
X326637Y333250D01*
X325887Y334000D02*X326637Y333250D01*
X323637Y334000D02*X325887D01*
X322887Y334750D02*X323637Y334000D01*
X322887Y334750D02*X323637Y335500D01*
X325887D01*
X326637Y334750D01*
X322887Y333250D02*X323637Y332500D01*
X331139Y335500D02*Y333250D01*
X331889Y332500D01*
X332639D01*
X333389Y333250D01*
Y335500D02*Y333250D01*
X334139Y332500D01*
X334889D01*
X335639Y333250D01*
Y335500D02*Y333250D01*
X337440Y337000D02*Y336250D01*
Y334750D02*Y332500D01*
X341942Y338500D02*Y332500D01*
X341192D02*X341942Y333250D01*
X339692Y332500D02*X341192D01*
X338942Y333250D02*X339692Y332500D01*
X338942Y334750D02*Y333250D01*
Y334750D02*X339692Y335500D01*
X341192D01*
X341942Y334750D01*
X344493Y332500D02*X346743D01*
X343743Y333250D02*X344493Y332500D01*
X343743Y334750D02*Y333250D01*
Y334750D02*X344493Y335500D01*
X345993D01*
X346743Y334750D01*
X343743Y334000D02*X346743D01*
Y334750D02*Y334000D01*
X348545Y331000D02*X350045Y332500D01*
X354546Y337750D02*X355296Y338500D01*
X356796D01*
X357546Y337750D01*
Y333250D01*
X356796Y332500D02*X357546Y333250D01*
X355296Y332500D02*X356796D01*
X354546Y333250D02*X355296Y332500D01*
Y335500D02*X357546D01*
X359348Y337750D02*X360098Y338500D01*
X362348D01*
X363098Y337750D01*
Y336250D01*
X359348Y332500D02*X363098Y336250D01*
X359348Y332500D02*X363098D01*
X364899Y338500D02*X367899D01*
X364899D02*Y335500D01*
X365649Y336250D01*
X367149D01*
X367899Y335500D01*
Y333250D01*
X367149Y332500D02*X367899Y333250D01*
X365649Y332500D02*X367149D01*
X364899Y333250D02*X365649Y332500D01*
X369701Y333250D02*X370451Y332500D01*
X369701Y337750D02*Y333250D01*
Y337750D02*X370451Y338500D01*
X371951D01*
X372701Y337750D01*
Y333250D01*
X371951Y332500D02*X372701Y333250D01*
X370451Y332500D02*X371951D01*
X369701Y334000D02*X372701Y337000D01*
X377952Y334750D02*Y332500D01*
Y334750D02*X378702Y335500D01*
X379452D01*
X380202Y334750D01*
Y332500D01*
Y334750D02*X380952Y335500D01*
X381702D01*
X382452Y334750D01*
Y332500D01*
X377202Y335500D02*X377952Y334750D01*
X384254Y337000D02*Y336250D01*
Y334750D02*Y332500D01*
X385755Y338500D02*Y333250D01*
X386505Y332500D01*
X388757D02*X391007D01*
X391757Y333250D01*
X391007Y334000D02*X391757Y333250D01*
X388757Y334000D02*X391007D01*
X388007Y334750D02*X388757Y334000D01*
X388007Y334750D02*X388757Y335500D01*
X391007D01*
X391757Y334750D01*
X388007Y333250D02*X388757Y332500D01*
X396258Y338500D02*Y332500D01*
Y334750D02*X397008Y335500D01*
X398508D01*
X399258Y334750D01*
Y332500D01*
X401060Y337000D02*Y336250D01*
Y334750D02*Y332500D01*
X404811Y335500D02*X405561Y334750D01*
X403311Y335500D02*X404811D01*
X402561Y334750D02*X403311Y335500D01*
X402561Y334750D02*Y333250D01*
X403311Y332500D01*
X404811D01*
X405561Y333250D01*
X402561Y331000D02*X403311Y330250D01*
X404811D01*
X405561Y331000D01*
Y335500D02*Y331000D01*
X407363Y338500D02*Y332500D01*
Y334750D02*X408113Y335500D01*
X409613D01*
X410363Y334750D01*
Y332500D01*
X0Y-9500D02*X3000D01*
X3750Y-8750D01*
Y-7250D02*Y-8750D01*
X3000Y-6500D02*X3750Y-7250D01*
X750Y-6500D02*X3000D01*
X750Y-3500D02*Y-9500D01*
X0Y-3500D02*X3000D01*
X3750Y-4250D01*
Y-5750D01*
X3000Y-6500D02*X3750Y-5750D01*
X5551Y-7250D02*Y-8750D01*
Y-7250D02*X6301Y-6500D01*
X7801D01*
X8551Y-7250D01*
Y-8750D01*
X7801Y-9500D02*X8551Y-8750D01*
X6301Y-9500D02*X7801D01*
X5551Y-8750D02*X6301Y-9500D01*
X12603Y-6500D02*X13353Y-7250D01*
X11103Y-6500D02*X12603D01*
X10353Y-7250D02*X11103Y-6500D01*
X10353Y-7250D02*Y-8750D01*
X11103Y-9500D01*
X13353Y-6500D02*Y-8750D01*
X14103Y-9500D01*
X11103D02*X12603D01*
X13353Y-8750D01*
X16654Y-7250D02*Y-9500D01*
Y-7250D02*X17404Y-6500D01*
X18904D01*
X15904D02*X16654Y-7250D01*
X23706Y-3500D02*Y-9500D01*
X22956D02*X23706Y-8750D01*
X21456Y-9500D02*X22956D01*
X20706Y-8750D02*X21456Y-9500D01*
X20706Y-7250D02*Y-8750D01*
Y-7250D02*X21456Y-6500D01*
X22956D01*
X23706Y-7250D01*
X28207D02*Y-8750D01*
Y-7250D02*X28957Y-6500D01*
X30457D01*
X31207Y-7250D01*
Y-8750D01*
X30457Y-9500D02*X31207Y-8750D01*
X28957Y-9500D02*X30457D01*
X28207Y-8750D02*X28957Y-9500D01*
X33009Y-6500D02*Y-8750D01*
X33759Y-9500D01*
X35259D01*
X36009Y-8750D01*
Y-6500D02*Y-8750D01*
X38560Y-3500D02*Y-8750D01*
X39310Y-9500D01*
X37810Y-5750D02*X39310D01*
X40812Y-3500D02*Y-8750D01*
X41562Y-9500D01*
X43063Y-5000D02*Y-5750D01*
Y-7250D02*Y-9500D01*
X45315Y-7250D02*Y-9500D01*
Y-7250D02*X46065Y-6500D01*
X46815D01*
X47565Y-7250D01*
Y-9500D01*
X44565Y-6500D02*X45315Y-7250D01*
X50116Y-9500D02*X52366D01*
X49366Y-8750D02*X50116Y-9500D01*
X49366Y-7250D02*Y-8750D01*
Y-7250D02*X50116Y-6500D01*
X51616D01*
X52366Y-7250D01*
X49366Y-8000D02*X52366D01*
Y-7250D02*Y-8000D01*
X56868Y-5000D02*Y-5750D01*
Y-7250D02*Y-9500D01*
X59119D02*X61369D01*
X62119Y-8750D01*
X61369Y-8000D02*X62119Y-8750D01*
X59119Y-8000D02*X61369D01*
X58369Y-7250D02*X59119Y-8000D01*
X58369Y-7250D02*X59119Y-6500D01*
X61369D01*
X62119Y-7250D01*
X58369Y-8750D02*X59119Y-9500D01*
X67371Y-3500D02*Y-8750D01*
X68121Y-9500D01*
X66621Y-5750D02*X68121D01*
X69622Y-3500D02*Y-9500D01*
Y-7250D02*X70372Y-6500D01*
X71872D01*
X72622Y-7250D01*
Y-9500D01*
X75174D02*X77424D01*
X74424Y-8750D02*X75174Y-9500D01*
X74424Y-7250D02*Y-8750D01*
Y-7250D02*X75174Y-6500D01*
X76674D01*
X77424Y-7250D01*
X74424Y-8000D02*X77424D01*
Y-7250D02*Y-8000D01*
X82675Y-6500D02*X84925D01*
X81925Y-7250D02*X82675Y-6500D01*
X81925Y-7250D02*Y-8750D01*
X82675Y-9500D01*
X84925D01*
X87477D02*X89727D01*
X86727Y-8750D02*X87477Y-9500D01*
X86727Y-7250D02*Y-8750D01*
Y-7250D02*X87477Y-6500D01*
X88977D01*
X89727Y-7250D01*
X86727Y-8000D02*X89727D01*
Y-7250D02*Y-8000D01*
X92278Y-7250D02*Y-9500D01*
Y-7250D02*X93028Y-6500D01*
X93778D01*
X94528Y-7250D01*
Y-9500D01*
X91528Y-6500D02*X92278Y-7250D01*
X97080Y-3500D02*Y-8750D01*
X97830Y-9500D01*
X96330Y-5750D02*X97830D01*
X100081Y-9500D02*X102331D01*
X99331Y-8750D02*X100081Y-9500D01*
X99331Y-7250D02*Y-8750D01*
Y-7250D02*X100081Y-6500D01*
X101581D01*
X102331Y-7250D01*
X99331Y-8000D02*X102331D01*
Y-7250D02*Y-8000D01*
X104883Y-7250D02*Y-9500D01*
Y-7250D02*X105633Y-6500D01*
X107133D01*
X104133D02*X104883Y-7250D01*
X108934Y-3500D02*Y-8750D01*
X109684Y-9500D01*
X111186Y-5000D02*Y-5750D01*
Y-7250D02*Y-9500D01*
X113437Y-7250D02*Y-9500D01*
Y-7250D02*X114187Y-6500D01*
X114937D01*
X115687Y-7250D01*
Y-9500D01*
X112687Y-6500D02*X113437Y-7250D01*
X118239Y-9500D02*X120489D01*
X117489Y-8750D02*X118239Y-9500D01*
X117489Y-7250D02*Y-8750D01*
Y-7250D02*X118239Y-6500D01*
X119739D01*
X120489Y-7250D01*
X117489Y-8000D02*X120489D01*
Y-7250D02*Y-8000D01*
X124990Y-7250D02*Y-8750D01*
Y-7250D02*X125740Y-6500D01*
X127240D01*
X127990Y-7250D01*
Y-8750D01*
X127240Y-9500D02*X127990Y-8750D01*
X125740Y-9500D02*X127240D01*
X124990Y-8750D02*X125740Y-9500D01*
X130542Y-4250D02*Y-9500D01*
Y-4250D02*X131292Y-3500D01*
X132042D01*
X129792Y-6500D02*X131292D01*
X136993Y-3500D02*Y-8750D01*
X137743Y-9500D01*
X136243Y-5750D02*X137743D01*
X139245Y-3500D02*Y-9500D01*
Y-7250D02*X139995Y-6500D01*
X141495D01*
X142245Y-7250D01*
Y-9500D01*
X144046Y-5000D02*Y-5750D01*
Y-7250D02*Y-9500D01*
X146298D02*X148548D01*
X149298Y-8750D01*
X148548Y-8000D02*X149298Y-8750D01*
X146298Y-8000D02*X148548D01*
X145548Y-7250D02*X146298Y-8000D01*
X145548Y-7250D02*X146298Y-6500D01*
X148548D01*
X149298Y-7250D01*
X145548Y-8750D02*X146298Y-9500D01*
X154549D02*X156049D01*
X155299Y-3500D02*Y-9500D01*
X153799Y-5000D02*X155299Y-3500D01*
X157851Y-8750D02*X158601Y-9500D01*
X157851Y-4250D02*Y-8750D01*
Y-4250D02*X158601Y-3500D01*
X160101D01*
X160851Y-4250D01*
Y-8750D01*
X160101Y-9500D02*X160851Y-8750D01*
X158601Y-9500D02*X160101D01*
X157851Y-8000D02*X160851Y-5000D01*
X166102Y-7250D02*Y-9500D01*
Y-7250D02*X166852Y-6500D01*
X167602D01*
X168352Y-7250D01*
Y-9500D01*
Y-7250D02*X169102Y-6500D01*
X169852D01*
X170602Y-7250D01*
Y-9500D01*
X165352Y-6500D02*X166102Y-7250D01*
X172404Y-5000D02*Y-5750D01*
Y-7250D02*Y-9500D01*
X173905Y-3500D02*Y-8750D01*
X174655Y-9500D01*
X179607Y-7250D02*Y-9500D01*
Y-7250D02*X180357Y-6500D01*
X181857D01*
X178857D02*X179607Y-7250D01*
X184408Y-9500D02*X186658D01*
X183658Y-8750D02*X184408Y-9500D01*
X183658Y-7250D02*Y-8750D01*
Y-7250D02*X184408Y-6500D01*
X185908D01*
X186658Y-7250D01*
X183658Y-8000D02*X186658D01*
Y-7250D02*Y-8000D01*
X189210Y-6500D02*X191460D01*
X188460Y-7250D02*X189210Y-6500D01*
X188460Y-7250D02*Y-8750D01*
X189210Y-9500D01*
X191460D01*
X194011Y-3500D02*Y-8750D01*
X194761Y-9500D01*
X193261Y-5750D02*X194761D01*
X198513Y-6500D02*X199263Y-7250D01*
X197013Y-6500D02*X198513D01*
X196263Y-7250D02*X197013Y-6500D01*
X196263Y-7250D02*Y-8750D01*
X197013Y-9500D01*
X199263Y-6500D02*Y-8750D01*
X200013Y-9500D01*
X197013D02*X198513D01*
X199263Y-8750D01*
X202564Y-7250D02*Y-9500D01*
Y-7250D02*X203314Y-6500D01*
X204064D01*
X204814Y-7250D01*
Y-9500D01*
X201814Y-6500D02*X202564Y-7250D01*
X208866Y-6500D02*X209616Y-7250D01*
X207366Y-6500D02*X208866D01*
X206616Y-7250D02*X207366Y-6500D01*
X206616Y-7250D02*Y-8750D01*
X207366Y-9500D01*
X208866D01*
X209616Y-8750D01*
X206616Y-11000D02*X207366Y-11750D01*
X208866D01*
X209616Y-11000D01*
Y-6500D02*Y-11000D01*
X211417Y-3500D02*Y-8750D01*
X212167Y-9500D01*
X214419D02*X216669D01*
X213669Y-8750D02*X214419Y-9500D01*
X213669Y-7250D02*Y-8750D01*
Y-7250D02*X214419Y-6500D01*
X215919D01*
X216669Y-7250D01*
X213669Y-8000D02*X216669D01*
Y-7250D02*Y-8000D01*
X221170Y-6500D02*X224170D01*
X228672Y-8750D02*X229422Y-9500D01*
X228672Y-4250D02*Y-8750D01*
Y-4250D02*X229422Y-3500D01*
X230922D01*
X231672Y-4250D01*
Y-8750D01*
X230922Y-9500D02*X231672Y-8750D01*
X229422Y-9500D02*X230922D01*
X228672Y-8000D02*X231672Y-5000D01*
X233473Y-11000D02*X234973Y-9500D01*
X236775Y-8750D02*X237525Y-9500D01*
X236775Y-4250D02*Y-8750D01*
Y-4250D02*X237525Y-3500D01*
X239025D01*
X239775Y-4250D01*
Y-8750D01*
X239025Y-9500D02*X239775Y-8750D01*
X237525Y-9500D02*X239025D01*
X236775Y-8000D02*X239775Y-5000D01*
X245026Y-3500D02*Y-8750D01*
X245776Y-9500D01*
X244276Y-5750D02*X245776D01*
X247278Y-7250D02*Y-8750D01*
Y-7250D02*X248028Y-6500D01*
X249528D01*
X250278Y-7250D01*
Y-8750D01*
X249528Y-9500D02*X250278Y-8750D01*
X248028Y-9500D02*X249528D01*
X247278Y-8750D02*X248028Y-9500D01*
X254779Y-4250D02*X255529Y-3500D01*
X257029D01*
X257779Y-4250D01*
Y-8750D01*
X257029Y-9500D02*X257779Y-8750D01*
X255529Y-9500D02*X257029D01*
X254779Y-8750D02*X255529Y-9500D01*
Y-6500D02*X257779D01*
X260331Y-9500D02*X261831D01*
X261081Y-3500D02*Y-9500D01*
X259581Y-5000D02*X261081Y-3500D01*
X263632D02*X266632D01*
X263632D02*Y-6500D01*
X264382Y-5750D01*
X265882D01*
X266632Y-6500D01*
Y-8750D01*
X265882Y-9500D02*X266632Y-8750D01*
X264382Y-9500D02*X265882D01*
X263632Y-8750D02*X264382Y-9500D01*
X268434Y-8750D02*X269184Y-9500D01*
X268434Y-4250D02*Y-8750D01*
Y-4250D02*X269184Y-3500D01*
X270684D01*
X271434Y-4250D01*
Y-8750D01*
X270684Y-9500D02*X271434Y-8750D01*
X269184Y-9500D02*X270684D01*
X268434Y-8000D02*X271434Y-5000D01*
X273235Y-11000D02*X274735Y-9500D01*
X276537Y-4250D02*X277287Y-3500D01*
X278787D01*
X279537Y-4250D01*
Y-8750D01*
X278787Y-9500D02*X279537Y-8750D01*
X277287Y-9500D02*X278787D01*
X276537Y-8750D02*X277287Y-9500D01*
Y-6500D02*X279537D01*
X281338Y-4250D02*X282088Y-3500D01*
X284338D01*
X285088Y-4250D01*
Y-5750D01*
X281338Y-9500D02*X285088Y-5750D01*
X281338Y-9500D02*X285088D01*
X286890Y-3500D02*X289890D01*
X286890D02*Y-6500D01*
X287640Y-5750D01*
X289140D01*
X289890Y-6500D01*
Y-8750D01*
X289140Y-9500D02*X289890Y-8750D01*
X287640Y-9500D02*X289140D01*
X286890Y-8750D02*X287640Y-9500D01*
X291691Y-8750D02*X292441Y-9500D01*
X291691Y-4250D02*Y-8750D01*
Y-4250D02*X292441Y-3500D01*
X293941D01*
X294691Y-4250D01*
Y-8750D01*
X293941Y-9500D02*X294691Y-8750D01*
X292441Y-9500D02*X293941D01*
X291691Y-8000D02*X294691Y-5000D01*
X299943Y-7250D02*Y-9500D01*
Y-7250D02*X300693Y-6500D01*
X301443D01*
X302193Y-7250D01*
Y-9500D01*
Y-7250D02*X302943Y-6500D01*
X303693D01*
X304443Y-7250D01*
Y-9500D01*
X299193Y-6500D02*X299943Y-7250D01*
X306244Y-5000D02*Y-5750D01*
Y-7250D02*Y-9500D01*
X307746Y-3500D02*Y-8750D01*
X308496Y-9500D01*
X310747D02*X312997D01*
X313747Y-8750D01*
X312997Y-8000D02*X313747Y-8750D01*
X310747Y-8000D02*X312997D01*
X309997Y-7250D02*X310747Y-8000D01*
X309997Y-7250D02*X310747Y-6500D01*
X312997D01*
X313747Y-7250D01*
X309997Y-8750D02*X310747Y-9500D01*
X200750Y353500D02*Y347500D01*
X203000Y353500D02*X203750Y352750D01*
Y348250D01*
X203000Y347500D02*X203750Y348250D01*
X200000Y347500D02*X203000D01*
X200000Y353500D02*X203000D01*
X207801Y350500D02*X208551Y349750D01*
X206301Y350500D02*X207801D01*
X205551Y349750D02*X206301Y350500D01*
X205551Y349750D02*Y348250D01*
X206301Y347500D01*
X208551Y350500D02*Y348250D01*
X209301Y347500D01*
X206301D02*X207801D01*
X208551Y348250D01*
X211853Y353500D02*Y348250D01*
X212603Y347500D01*
X211103Y351250D02*X212603D01*
X214854Y347500D02*X217104D01*
X214104Y348250D02*X214854Y347500D01*
X214104Y349750D02*Y348250D01*
Y349750D02*X214854Y350500D01*
X216354D01*
X217104Y349750D01*
X214104Y349000D02*X217104D01*
Y349750D02*Y349000D01*
X218906Y351250D02*X219656D01*
X218906Y349750D02*X219656D01*
X224157Y353500D02*Y347500D01*
X226407Y349750D01*
X228657Y347500D01*
Y353500D02*Y347500D01*
X231209D02*X233459D01*
X230459Y348250D02*X231209Y347500D01*
X230459Y349750D02*Y348250D01*
Y349750D02*X231209Y350500D01*
X232709D01*
X233459Y349750D01*
X230459Y349000D02*X233459D01*
Y349750D02*Y349000D01*
X238260Y353500D02*Y347500D01*
X237510D02*X238260Y348250D01*
X236010Y347500D02*X237510D01*
X235260Y348250D02*X236010Y347500D01*
X235260Y349750D02*Y348250D01*
Y349750D02*X236010Y350500D01*
X237510D01*
X238260Y349750D01*
X242762Y353500D02*Y347500D01*
Y353500D02*X245012Y351250D01*
X247262Y353500D01*
Y347500D01*
X251313Y350500D02*X252063Y349750D01*
X249813Y350500D02*X251313D01*
X249063Y349750D02*X249813Y350500D01*
X249063Y349750D02*Y348250D01*
X249813Y347500D01*
X252063Y350500D02*Y348250D01*
X252813Y347500D01*
X249813D02*X251313D01*
X252063Y348250D01*
X254615Y350500D02*Y348250D01*
X255365Y347500D01*
X257615Y350500D02*Y346000D01*
X256865Y345250D02*X257615Y346000D01*
X255365Y345250D02*X256865D01*
X254615Y346000D02*X255365Y345250D01*
Y347500D02*X256865D01*
X257615Y348250D01*
X264816Y347500D02*X267816Y350500D01*
Y352750D02*Y350500D01*
X267066Y353500D02*X267816Y352750D01*
X265566Y353500D02*X267066D01*
X264816Y352750D02*X265566Y353500D01*
X264816Y352750D02*Y351250D01*
X265566Y350500D01*
X267816D01*
X272318Y352750D02*X273068Y353500D01*
X275318D01*
X276068Y352750D01*
Y351250D01*
X272318Y347500D02*X276068Y351250D01*
X272318Y347500D02*X276068D01*
X278619D02*X280119D01*
X279369Y353500D02*Y347500D01*
X277869Y352000D02*X279369Y353500D01*
X281921Y351250D02*X282671D01*
X281921Y349750D02*X282671D01*
X284472Y348250D02*X285222Y347500D01*
X284472Y352750D02*Y348250D01*
Y352750D02*X285222Y353500D01*
X286722D01*
X287472Y352750D01*
Y348250D01*
X286722Y347500D02*X287472Y348250D01*
X285222Y347500D02*X286722D01*
X284472Y349000D02*X287472Y352000D01*
X289274Y348250D02*X290024Y347500D01*
X289274Y349750D02*Y348250D01*
Y349750D02*X290024Y350500D01*
X291524D01*
X292274Y349750D01*
Y348250D01*
X291524Y347500D02*X292274Y348250D01*
X290024Y347500D02*X291524D01*
X289274Y351250D02*X290024Y350500D01*
X289274Y352750D02*Y351250D01*
Y352750D02*X290024Y353500D01*
X291524D01*
X292274Y352750D01*
Y351250D01*
X291524Y350500D02*X292274Y351250D01*
X294075D02*X294825D01*
X294075Y349750D02*X294825D01*
X296627Y352750D02*X297377Y353500D01*
X299627D01*
X300377Y352750D01*
Y351250D01*
X296627Y347500D02*X300377Y351250D01*
X296627Y347500D02*X300377D01*
X302178Y348250D02*X302928Y347500D01*
X302178Y352750D02*Y348250D01*
Y352750D02*X302928Y353500D01*
X304428D01*
X305178Y352750D01*
Y348250D01*
X304428Y347500D02*X305178Y348250D01*
X302928Y347500D02*X304428D01*
X302178Y349000D02*X305178Y352000D01*
X309680Y352750D02*X310430Y353500D01*
X312680D01*
X313430Y352750D01*
Y351250D01*
X309680Y347500D02*X313430Y351250D01*
X309680Y347500D02*X313430D01*
X315231Y348250D02*X315981Y347500D01*
X315231Y352750D02*Y348250D01*
Y352750D02*X315981Y353500D01*
X317481D01*
X318231Y352750D01*
Y348250D01*
X317481Y347500D02*X318231Y348250D01*
X315981Y347500D02*X317481D01*
X315231Y349000D02*X318231Y352000D01*
X320783Y347500D02*X322283D01*
X321533Y353500D02*Y347500D01*
X320033Y352000D02*X321533Y353500D01*
X324084Y352750D02*X324834Y353500D01*
X327084D01*
X327834Y352750D01*
Y351250D01*
X324084Y347500D02*X327834Y351250D01*
X324084Y347500D02*X327834D01*
X332336Y353500D02*Y348250D01*
X333086Y347500D01*
X334586D01*
X335336Y348250D01*
Y353500D02*Y348250D01*
X337137Y353500D02*X340137D01*
X338637D02*Y347500D01*
X342689D02*X344939D01*
X341939Y348250D02*X342689Y347500D01*
X341939Y352750D02*Y348250D01*
Y352750D02*X342689Y353500D01*
X344939D01*
X200000Y367750D02*Y362500D01*
Y367750D02*X200750Y368500D01*
X203000D01*
X203750Y367750D01*
Y362500D01*
X200000Y365500D02*X203750D01*
X205551D02*Y363250D01*
X206301Y362500D01*
X207801D01*
X208551Y363250D01*
Y365500D02*Y363250D01*
X211103Y368500D02*Y363250D01*
X211853Y362500D01*
X210353Y366250D02*X211853D01*
X213354Y368500D02*Y362500D01*
Y364750D02*X214104Y365500D01*
X215604D01*
X216354Y364750D01*
Y362500D01*
X218156Y364750D02*Y363250D01*
Y364750D02*X218906Y365500D01*
X220406D01*
X221156Y364750D01*
Y363250D01*
X220406Y362500D02*X221156Y363250D01*
X218906Y362500D02*X220406D01*
X218156Y363250D02*X218906Y362500D01*
X223707Y364750D02*Y362500D01*
Y364750D02*X224457Y365500D01*
X225957D01*
X222957D02*X223707Y364750D01*
X227759Y366250D02*X228509D01*
X227759Y364750D02*X228509D01*
X233010Y368500D02*Y362500D01*
Y368500D02*X235260Y366250D01*
X237510Y368500D01*
Y362500D01*
X241562Y365500D02*X242312Y364750D01*
X240062Y365500D02*X241562D01*
X239312Y364750D02*X240062Y365500D01*
X239312Y364750D02*Y363250D01*
X240062Y362500D01*
X242312Y365500D02*Y363250D01*
X243062Y362500D01*
X240062D02*X241562D01*
X242312Y363250D01*
X245613Y364750D02*Y362500D01*
Y364750D02*X246363Y365500D01*
X247863D01*
X244863D02*X245613Y364750D01*
X249665Y368500D02*Y362500D01*
Y364750D02*X251915Y362500D01*
X249665Y364750D02*X251165Y366250D01*
X256416Y368500D02*X259416D01*
X260166Y367750D01*
Y366250D01*
X259416Y365500D02*X260166Y366250D01*
X257166Y365500D02*X259416D01*
X257166Y368500D02*Y362500D01*
Y365500D02*X260166Y362500D01*
X264218Y365500D02*X264968Y364750D01*
X262718Y365500D02*X264218D01*
X261968Y364750D02*X262718Y365500D01*
X261968Y364750D02*Y363250D01*
X262718Y362500D01*
X264968Y365500D02*Y363250D01*
X265718Y362500D01*
X262718D02*X264218D01*
X264968Y363250D01*
X269769Y365500D02*X270519Y364750D01*
X268269Y365500D02*X269769D01*
X267519Y364750D02*X268269Y365500D01*
X267519Y364750D02*Y363250D01*
X268269Y362500D01*
X269769D01*
X270519Y363250D01*
X267519Y361000D02*X268269Y360250D01*
X269769D01*
X270519Y361000D01*
Y365500D02*Y361000D01*
X273071Y362500D02*X275321D01*
X272321Y363250D02*X273071Y362500D01*
X272321Y364750D02*Y363250D01*
Y364750D02*X273071Y365500D01*
X274571D01*
X275321Y364750D01*
X272321Y364000D02*X275321D01*
Y364750D02*Y364000D01*
X277872Y362500D02*X280122D01*
X280872Y363250D01*
X280122Y364000D02*X280872Y363250D01*
X277872Y364000D02*X280122D01*
X277122Y364750D02*X277872Y364000D01*
X277122Y364750D02*X277872Y365500D01*
X280122D01*
X280872Y364750D01*
X277122Y363250D02*X277872Y362500D01*
X200000Y383500D02*X203000D01*
X201500D02*Y377500D01*
X204801Y382000D02*Y381250D01*
Y379750D02*Y377500D01*
X207053Y383500D02*Y378250D01*
X207803Y377500D01*
X206303Y381250D02*X207803D01*
X209304Y383500D02*Y378250D01*
X210054Y377500D01*
X212306D02*X214556D01*
X211556Y378250D02*X212306Y377500D01*
X211556Y379750D02*Y378250D01*
Y379750D02*X212306Y380500D01*
X213806D01*
X214556Y379750D01*
X211556Y379000D02*X214556D01*
Y379750D02*Y379000D01*
X216357Y381250D02*X217107D01*
X216357Y379750D02*X217107D01*
X221609Y378250D02*X222359Y377500D01*
X221609Y382750D02*X222359Y383500D01*
X221609Y382750D02*Y378250D01*
X224160Y380500D02*Y378250D01*
X224910Y377500D01*
X226410D01*
X227160Y378250D01*
Y380500D02*Y378250D01*
X229712Y379750D02*Y377500D01*
Y379750D02*X230462Y380500D01*
X231212D01*
X231962Y379750D01*
Y377500D01*
X228962Y380500D02*X229712Y379750D01*
X233763Y383500D02*Y377500D01*
Y379750D02*X236013Y377500D01*
X233763Y379750D02*X235263Y381250D01*
X238565Y379750D02*Y377500D01*
Y379750D02*X239315Y380500D01*
X240065D01*
X240815Y379750D01*
Y377500D01*
X237815Y380500D02*X238565Y379750D01*
X242616D02*Y378250D01*
Y379750D02*X243366Y380500D01*
X244866D01*
X245616Y379750D01*
Y378250D01*
X244866Y377500D02*X245616Y378250D01*
X243366Y377500D02*X244866D01*
X242616Y378250D02*X243366Y377500D01*
X247418Y380500D02*Y378250D01*
X248168Y377500D01*
X248918D01*
X249668Y378250D01*
Y380500D02*Y378250D01*
X250418Y377500D01*
X251168D01*
X251918Y378250D01*
Y380500D02*Y378250D01*
X254469Y379750D02*Y377500D01*
Y379750D02*X255219Y380500D01*
X255969D01*
X256719Y379750D01*
Y377500D01*
X253719Y380500D02*X254469Y379750D01*
X258521Y383500D02*X259271Y382750D01*
Y378250D01*
X258521Y377500D02*X259271Y378250D01*
X263772Y380500D02*X266772D01*
X271274Y383500D02*Y377500D01*
Y383500D02*X274274D01*
X271274Y380500D02*X273524D01*
X278325D02*X279075Y379750D01*
X276825Y380500D02*X278325D01*
X276075Y379750D02*X276825Y380500D01*
X276075Y379750D02*Y378250D01*
X276825Y377500D01*
X279075Y380500D02*Y378250D01*
X279825Y377500D01*
X276825D02*X278325D01*
X279075Y378250D01*
X281627Y383500D02*Y377500D01*
Y378250D02*X282377Y377500D01*
X283877D01*
X284627Y378250D01*
Y379750D02*Y378250D01*
X283877Y380500D02*X284627Y379750D01*
X282377Y380500D02*X283877D01*
X281627Y379750D02*X282377Y380500D01*
X287178Y379750D02*Y377500D01*
Y379750D02*X287928Y380500D01*
X289428D01*
X286428D02*X287178Y379750D01*
X291230Y382000D02*Y381250D01*
Y379750D02*Y377500D01*
X293481Y380500D02*X295731D01*
X292731Y379750D02*X293481Y380500D01*
X292731Y379750D02*Y378250D01*
X293481Y377500D01*
X295731D01*
X299783Y380500D02*X300533Y379750D01*
X298283Y380500D02*X299783D01*
X297533Y379750D02*X298283Y380500D01*
X297533Y379750D02*Y378250D01*
X298283Y377500D01*
X300533Y380500D02*Y378250D01*
X301283Y377500D01*
X298283D02*X299783D01*
X300533Y378250D01*
X303834Y383500D02*Y378250D01*
X304584Y377500D01*
X303084Y381250D02*X304584D01*
X306086Y382000D02*Y381250D01*
Y379750D02*Y377500D01*
X307587Y379750D02*Y378250D01*
Y379750D02*X308337Y380500D01*
X309837D01*
X310587Y379750D01*
Y378250D01*
X309837Y377500D02*X310587Y378250D01*
X308337Y377500D02*X309837D01*
X307587Y378250D02*X308337Y377500D01*
X313139Y379750D02*Y377500D01*
Y379750D02*X313889Y380500D01*
X314639D01*
X315389Y379750D01*
Y377500D01*
X312389Y380500D02*X313139Y379750D01*
X320640Y383500D02*Y377500D01*
X322890Y383500D02*X323640Y382750D01*
Y378250D01*
X322890Y377500D02*X323640Y378250D01*
X319890Y377500D02*X322890D01*
X319890Y383500D02*X322890D01*
X326192Y379750D02*Y377500D01*
Y379750D02*X326942Y380500D01*
X328442D01*
X325442D02*X326192Y379750D01*
X332493Y380500D02*X333243Y379750D01*
X330993Y380500D02*X332493D01*
X330243Y379750D02*X330993Y380500D01*
X330243Y379750D02*Y378250D01*
X330993Y377500D01*
X333243Y380500D02*Y378250D01*
X333993Y377500D01*
X330993D02*X332493D01*
X333243Y378250D01*
X335795Y380500D02*Y378250D01*
X336545Y377500D01*
X337295D01*
X338045Y378250D01*
Y380500D02*Y378250D01*
X338795Y377500D01*
X339545D01*
X340295Y378250D01*
Y380500D02*Y378250D01*
X342096Y382000D02*Y381250D01*
Y379750D02*Y377500D01*
X344348Y379750D02*Y377500D01*
Y379750D02*X345098Y380500D01*
X345848D01*
X346598Y379750D01*
Y377500D01*
X343598Y380500D02*X344348Y379750D01*
X350649Y380500D02*X351399Y379750D01*
X349149Y380500D02*X350649D01*
X348399Y379750D02*X349149Y380500D01*
X348399Y379750D02*Y378250D01*
X349149Y377500D01*
X350649D01*
X351399Y378250D01*
X348399Y376000D02*X349149Y375250D01*
X350649D01*
X351399Y376000D01*
Y380500D02*Y376000D01*
M02*
