M48
INCH
T11C0.020
T18C0.038
T19C0.035
T29C0.039
%
T11
X012400Y016600
X011900Y016600
X011000Y017900
X010800Y017400
X013100Y013700
X012900Y011900
X013700Y012700
X012400Y012800
X012000Y012800
X011700Y011800
X012200Y011700
X012400Y016000
X013700Y014300
X010600Y012000
X011300Y013900
X012400Y013200
X012000Y013200
T19
X018200Y013700
X018200Y017000
X018500Y021400
X016600Y019000
X011200Y012100
T18
X010600Y016400
X010600Y015400
X013500Y010750
X012500Y010750
X011500Y010750
X010600Y014400
T29
X010700Y018650
X013700Y021800
M30
